<svg id="OBJECTS" xmlns="http://www.w3.org/2000/svg" xmlns:xlink="http://www.w3.org/1999/xlink" viewBox="0 0 333.35 251.26"><defs><style>.cls-1{fill:#f0f6ff;}.cls-17,.cls-19,.cls-2{fill:#c5d9ff;}.cls-20,.cls-3,.cls-4{fill:#243762;}.cls-4{opacity:0.57;}.cls-5{fill:url(#Безымянный_градиент_15);}.cls-6{fill:url(#Безымянный_градиент_15-2);}.cls-12,.cls-18,.cls-7{fill:#ecf1f7;}.cls-15,.cls-7{opacity:0.35;}.cls-8{fill:url(#Безымянный_градиент_15-3);}.cls-9{fill:url(#Безымянный_градиент_21);}.cls-10{fill:#fff;}.cls-11{fill:#fe4c1c;}.cls-13,.cls-16{fill:#af9cda;}.cls-13,.cls-20{opacity:0.29;}.cls-14{fill:#00c3ff;}.cls-17,.cls-18{opacity:0.63;}.cls-19{opacity:0.66;}.cls-21{fill:#0160e7;}.cls-22{fill:#15b7ec;}</style><linearGradient id="Безымянный_градиент_15" x1="367.17" y1="338.76" x2="393.05" y2="338.76" gradientUnits="userSpaceOnUse"><stop offset="0" stop-color="#ff811b"/><stop offset="0.63" stop-color="#fd4b1c"/></linearGradient><linearGradient id="Безымянный_градиент_15-2" x1="322.38" y1="340.18" x2="374.44" y2="340.18" xlink:href="#Безымянный_градиент_15"/><linearGradient id="Безымянный_градиент_15-3" x1="78.77" y1="253.72" x2="201.34" y2="253.72" xlink:href="#Безымянный_градиент_15"/><linearGradient id="Безымянный_градиент_21" x1="293.45" y1="222.76" x2="364.95" y2="222.76" gradientUnits="userSpaceOnUse"><stop offset="0" stop-color="#04dbf1"/><stop offset="1" stop-color="#0039e4"/></linearGradient></defs><path class="cls-1" d="M411.51,300.61a104.68,104.68,0,0,0-47.67-93.27,22.13,22.13,0,0,1-9.93-16.16c0-.35-.09-.71-.13-1.07-5.46-43.71-46.31-74.42-89.82-68.5-41.63,5.67-71.59,27.66-67.16,70,0,.2,0,.49.07.85A20.23,20.23,0,0,1,177.05,214q-3.63.09-7.3.47a90.53,90.53,0,0,0-51.51,156.79H377.09C396.76,352.43,410.36,326.31,411.51,300.61Z" transform="translate(-78.27 -120.88)"/><path class="cls-2" d="M387.78,311a89.29,89.29,0,0,0-40.66-79.55,18.89,18.89,0,0,1-8.47-13.78c0-.3-.07-.61-.11-.91-4.65-37.28-39.49-63.47-76.6-58.42-35.5,4.83-61.05,23.59-57.28,59.71,0,.17,0,.42.06.73a17.25,17.25,0,0,1-16.9,18.35q-3.09.08-6.23.4a77.21,77.21,0,0,0-43.93,133.72H358.42C375.2,355.2,386.8,332.92,387.78,311Z" transform="translate(-78.27 -120.88)"/><path class="cls-3" d="M404.12,372.14H98.35a.88.88,0,0,1,0-1.76H404.12a.88.88,0,0,1,0,1.76Z" transform="translate(-78.27 -120.88)"/><path class="cls-4" d="M342,309.38a.5.5,0,0,1-.5-.5v-5a7.1,7.1,0,0,0-7.09-7.09h-1.9a6.93,6.93,0,0,1-6.92-6.92v-2.77a6.78,6.78,0,0,1,6.77-6.78h2.78a6.37,6.37,0,0,0,6.36-6.36,8.41,8.41,0,0,0-8.41-8.4H320.52a.5.5,0,0,1-.5-.5.5.5,0,0,1,.5-.5h12.61a9.42,9.42,0,0,1,9.41,9.4,7.37,7.37,0,0,1-7.36,7.36H332.4a5.78,5.78,0,0,0-5.77,5.78v2.77a5.93,5.93,0,0,0,5.92,5.92h1.9a8.1,8.1,0,0,1,8.09,8.09v5A.51.51,0,0,1,342,309.38Z" transform="translate(-78.27 -120.88)"/><path class="cls-4" d="M359.9,310.15a.5.5,0,0,1-.5-.5v-3a4.09,4.09,0,0,0-4.09-4.09h-1.14a4.4,4.4,0,0,1-4.39-4.39V296.5a4.31,4.31,0,0,1,4.3-4.3h1.67a3.65,3.65,0,0,0,3.65-3.65,4.89,4.89,0,0,0-4.88-4.88h-7.63a.5.5,0,0,1-.5-.5.5.5,0,0,1,.5-.5h7.63a5.89,5.89,0,0,1,5.88,5.88,4.65,4.65,0,0,1-4.65,4.65h-1.67a3.3,3.3,0,0,0-3.3,3.3v1.67a3.39,3.39,0,0,0,3.39,3.39h1.14a5.09,5.09,0,0,1,5.09,5.09v3A.5.5,0,0,1,359.9,310.15Z" transform="translate(-78.27 -120.88)"/><path class="cls-5" d="M377.19,357.43h-10v-7h10a8.86,8.86,0,0,0,8.86-8.86V331a3.91,3.91,0,0,0-3.9-3.9H369.5v-7h12.65a10.91,10.91,0,0,1,10.9,10.9v10.59A15.87,15.87,0,0,1,377.19,357.43Z" transform="translate(-78.27 -120.88)"/><path class="cls-3" d="M377.19,350.93h-10a.5.5,0,0,1-.5-.5.5.5,0,0,1,.5-.5h10a8.37,8.37,0,0,0,8.36-8.36V331a3.4,3.4,0,0,0-3.4-3.4H369v-8h13.15a11.41,11.41,0,0,1,11.4,11.4v10.59a.5.5,0,0,1-1,0V331a10.41,10.41,0,0,0-10.4-10.4H370v6h12.15a4.4,4.4,0,0,1,4.4,4.4v10.59A9.37,9.37,0,0,1,377.19,350.93Z" transform="translate(-78.27 -120.88)"/><path class="cls-6" d="M367,370.79H329.85a7.48,7.48,0,0,1-7.47-7.48V314a4.45,4.45,0,0,1,4.45-4.45h41.93a5.68,5.68,0,0,1,5.68,5.68v48.06A7.47,7.47,0,0,1,367,370.79Z" transform="translate(-78.27 -120.88)"/><path class="cls-7" d="M367.81,335.6H334.87c-3.66,0-6.63-1.67-6.63-3.73V311.79c0-1.22,1.76-2.22,3.94-2.22H369.4c2.79,0,5,1.27,5,2.84v19.46C374.44,333.93,371.47,335.6,367.81,335.6Z" transform="translate(-78.27 -120.88)"/><path class="cls-3" d="M322.38,339.26a.5.5,0,0,1-.5-.5V314a5,5,0,0,1,4.95-4.95h41.93a.5.5,0,0,1,0,1H326.83a4,4,0,0,0-3.95,3.95v24.74A.5.5,0,0,1,322.38,339.26Z" transform="translate(-78.27 -120.88)"/><path class="cls-3" d="M356.23,322.54H322.64a.5.5,0,0,1,0-1h33.59a.5.5,0,0,1,0,1Z" transform="translate(-78.27 -120.88)"/><path class="cls-8" d="M195.44,243.34H185a5.9,5.9,0,0,1-5.54-3.81c-.39-1.06-.83-2.1-1.31-3.12a5.75,5.75,0,0,1,1.16-6.59l7.4-7.29a5.73,5.73,0,0,0,0-8.21l-6.58-6.47a6,6,0,0,0-8.34,0l-7.41,7.28a6,6,0,0,1-6.7,1.14c-1-.47-2.09-.9-3.17-1.29a5.81,5.81,0,0,1-3.87-5.45v-10.3a5.85,5.85,0,0,0-5.9-5.8H135.4a5.85,5.85,0,0,0-5.9,5.8v10.3a5.81,5.81,0,0,1-3.87,5.45c-1.08.39-2.13.82-3.17,1.29a6,6,0,0,1-6.7-1.14l-7.41-7.28a6,6,0,0,0-8.34,0l-6.58,6.47a5.75,5.75,0,0,0,0,8.21l7.41,7.29a5.76,5.76,0,0,1,1.15,6.59c-.48,1-.91,2.06-1.31,3.12a5.9,5.9,0,0,1-5.54,3.81H84.67a5.85,5.85,0,0,0-5.9,5.8v9.16a5.85,5.85,0,0,0,5.9,5.8H95.14a5.9,5.9,0,0,1,5.54,3.81c.4,1.06.83,2.1,1.31,3.12a5.77,5.77,0,0,1-1.15,6.59l-7.41,7.29a5.73,5.73,0,0,0,0,8.2l6.58,6.48a6,6,0,0,0,8.34,0l7.41-7.29a6,6,0,0,1,6.7-1.13c1,.47,2.09.9,3.17,1.29a5.81,5.81,0,0,1,3.87,5.44v10.31a5.85,5.85,0,0,0,5.9,5.8h9.31a5.85,5.85,0,0,0,5.9-5.8V297.9a5.81,5.81,0,0,1,3.87-5.44c1.08-.39,2.13-.82,3.17-1.29a6,6,0,0,1,6.7,1.13l7.41,7.29a6,6,0,0,0,8.34,0l6.58-6.48a5.72,5.72,0,0,0,0-8.2l-7.4-7.29a5.75,5.75,0,0,1-1.16-6.59c.48-1,.92-2.06,1.31-3.12A5.9,5.9,0,0,1,185,264.1h10.47a5.85,5.85,0,0,0,5.9-5.8v-9.16A5.85,5.85,0,0,0,195.44,243.34ZM140.06,285c-17.54,0-31.75-14-31.75-31.23s14.21-31.24,31.75-31.24,31.74,14,31.74,31.24S157.59,285,140.06,285Z" transform="translate(-78.27 -120.88)"/><path class="cls-3" d="M100.84,278.12a.5.5,0,0,1-.35-.86,5.28,5.28,0,0,0,1.05-6c-.48-1-.93-2.09-1.33-3.15a5.4,5.4,0,0,0-5.07-3.49H84.67a6.35,6.35,0,0,1-6.4-6.3v-9.16a6.35,6.35,0,0,1,6.4-6.3H95.14a5.4,5.4,0,0,0,5.07-3.49c.4-1.06.84-2.12,1.33-3.15a5.3,5.3,0,0,0-1.05-6l-7.41-7.28a6.23,6.23,0,0,1,0-8.92l6.58-6.48a6.48,6.48,0,0,1,9,0l7.41,7.29a5.55,5.55,0,0,0,6.15,1c1-.48,2.12-.92,3.2-1.31a5.32,5.32,0,0,0,3.54-5v-10.3a6.35,6.35,0,0,1,6.4-6.3h9.31a6.35,6.35,0,0,1,6.4,6.3.5.5,0,1,1-1,0,5.35,5.35,0,0,0-5.4-5.3H135.4a5.35,5.35,0,0,0-5.4,5.3v10.3a6.33,6.33,0,0,1-4.2,5.92c-1.06.38-2.11.81-3.13,1.28a6.53,6.53,0,0,1-7.26-1.24L108,208.2a5.48,5.48,0,0,0-7.64,0l-6.58,6.48a5.23,5.23,0,0,0,0,7.49l7.41,7.29a6.3,6.3,0,0,1,1.26,7.16c-.48,1-.91,2-1.3,3.08a6.43,6.43,0,0,1-6,4.14H84.67a5.35,5.35,0,0,0-5.4,5.3v9.16a5.36,5.36,0,0,0,5.4,5.3H95.14a6.42,6.42,0,0,1,6,4.14c.39,1,.82,2.07,1.3,3.07a6.31,6.31,0,0,1-1.26,7.17A.54.54,0,0,1,100.84,278.12Zm7.47-23.9a.5.5,0,0,1-.5-.5c0-17.5,14.46-31.74,32.25-31.74a.51.51,0,0,1,.5.5.5.5,0,0,1-.5.5c-17.23,0-31.25,13.79-31.25,30.74A.5.5,0,0,1,108.31,254.22Z" transform="translate(-78.27 -120.88)"/><path class="cls-2" d="M193.46,200.18l-2.09-5.55a3.32,3.32,0,0,1,.91-3.69c.48-.42.94-.86,1.39-1.32a3.26,3.26,0,0,1,3.72-.7l5.34,2.46a3.25,3.25,0,0,0,4.35-1.64L209.2,185a3.38,3.38,0,0,0-1.67-4.42l-5.35-2.47a3.41,3.41,0,0,1-1.94-3.32c0-.64.06-1.29,0-1.94a3.29,3.29,0,0,1,2.11-3.14l5.46-2.06a3.31,3.31,0,0,0,1.9-4.28l-1.86-4.94a3.32,3.32,0,0,0-4.26-2l-5.46,2.06a3.29,3.29,0,0,1-3.66-1c-.42-.5-.86-1-1.31-1.42a3.4,3.4,0,0,1-.74-3.78l2.38-5.38a3.38,3.38,0,0,0-1.67-4.42l-4.75-2.19a3.24,3.24,0,0,0-4.35,1.64l-2.38,5.38a3.26,3.26,0,0,1-3.26,1.93c-.63,0-1.27-.07-1.91-.07a3.36,3.36,0,0,1-3.13-2.17l-2.09-5.55a3.31,3.31,0,0,0-4.25-2l-4.86,1.83a3.32,3.32,0,0,0-1.89,4.29l2.09,5.55a3.34,3.34,0,0,1-.91,3.7c-.48.42-.94.86-1.39,1.31a3.26,3.26,0,0,1-3.72.71L151,154.45a3.25,3.25,0,0,0-4.35,1.64l-2.12,4.79a3.38,3.38,0,0,0,1.67,4.42l5.34,2.46a3.41,3.41,0,0,1,1.95,3.33c-.05.64-.06,1.28-.05,1.93a3.29,3.29,0,0,1-2.11,3.14l-5.47,2.06a3.32,3.32,0,0,0-1.89,4.29l1.86,4.93a3.32,3.32,0,0,0,4.26,2l5.46-2.07a3.29,3.29,0,0,1,3.66,1c.42.49.86,1,1.31,1.42a3.38,3.38,0,0,1,.74,3.77l-2.38,5.39a3.37,3.37,0,0,0,1.67,4.41l4.75,2.2a3.25,3.25,0,0,0,4.35-1.64l2.38-5.39a3.26,3.26,0,0,1,3.26-1.93c.63.05,1.27.08,1.91.08a3.35,3.35,0,0,1,3.13,2.17l2.09,5.55a3.31,3.31,0,0,0,4.25,2l4.86-1.83A3.31,3.31,0,0,0,193.46,200.18Zm-33.12-21a17.69,17.69,0,1,1,22.89,10.58A17.82,17.82,0,0,1,160.34,179.16Z" transform="translate(-78.27 -120.88)"/><path class="cls-9" d="M296.91,184.12h65.94a2.11,2.11,0,0,1,2.1,2.11v48.38a3.72,3.72,0,0,1-3.72,3.71H335.79a1.06,1.06,0,0,0-.78.34l-21.14,22.39a1.08,1.08,0,0,1-1.85-.81V239.47a1.12,1.12,0,0,0-1.08-1.15h-14a3.56,3.56,0,0,1-3.46-3.65V187.78A3.57,3.57,0,0,1,296.91,184.12Z" transform="translate(-78.27 -120.88)"/><path class="cls-10" d="M355,200.36H305.88a.37.37,0,0,1-.38-.37.38.38,0,0,1,.38-.38H355a.38.38,0,0,1,.38.38A.37.37,0,0,1,355,200.36Z" transform="translate(-78.27 -120.88)"/><path class="cls-10" d="M355,211.4H332.92a.38.38,0,0,1,0-.75H355a.38.38,0,1,1,0,.75Z" transform="translate(-78.27 -120.88)"/><path class="cls-10" d="M328.67,211.4H306.56a.38.38,0,1,1,0-.75h22.11a.38.38,0,0,1,0,.75Z" transform="translate(-78.27 -120.88)"/><path class="cls-10" d="M341.42,221.4H308.33A.38.38,0,0,1,308,221a.37.37,0,0,1,.38-.37h33.09a.37.37,0,0,1,.38.37A.38.38,0,0,1,341.42,221.4Z" transform="translate(-78.27 -120.88)"/><circle class="cls-11" cx="282.58" cy="119.34" r="20.37"/><circle class="cls-12" cx="282.58" cy="119.34" r="16.37"/><path class="cls-3" d="M360.85,257.09a16.87,16.87,0,1,1,16.87-16.87A16.88,16.88,0,0,1,360.85,257.09Zm0-32.73a15.87,15.87,0,1,0,15.87,15.86A15.87,15.87,0,0,0,360.85,224.36Z" transform="translate(-78.27 -120.88)"/><path class="cls-3" d="M360.23,243.6a1.26,1.26,0,0,1-.45-.12,1.2,1.2,0,0,1-.65-1.15l.84-11.06a.83.83,0,0,1,1.65.12l-.75,10,6.34-5.45a.83.83,0,0,1,1.17.08.84.84,0,0,1-.09,1.17l-7.19,6.18A1.17,1.17,0,0,1,360.23,243.6Z" transform="translate(-78.27 -120.88)"/><path class="cls-3" d="M120.45,245.91v.14l11.11,116.46,173.54,2.86L291.36,245.3a3.16,3.16,0,0,0-3.16-2.87H123.61A3.17,3.17,0,0,0,120.45,245.91Z" transform="translate(-78.27 -120.88)"/><path class="cls-3" d="M363.71,356.66H134.87a7.27,7.27,0,0,0-7.27,7.27v5.83H370.4v-6.42A6.68,6.68,0,0,0,363.71,356.66Z" transform="translate(-78.27 -120.88)"/><path class="cls-3" d="M363.71,356.66H134.87a7.27,7.27,0,0,0-7.27,7.27v5.83H370.4v-6.42A6.68,6.68,0,0,0,363.71,356.66Z" transform="translate(-78.27 -120.88)"/><path class="cls-13" d="M363.71,356.66H210.35a7.26,7.26,0,0,0-7.27,7.27v5.83H370.4v-6.42A6.68,6.68,0,0,0,363.71,356.66Z" transform="translate(-78.27 -120.88)"/><path class="cls-12" d="M126.7,245.91l0,.14,10.54,110.61h171L297.62,245.3a3.18,3.18,0,0,0-3.17-2.87H129.86A3.18,3.18,0,0,0,126.7,245.91Z" transform="translate(-78.27 -120.88)"/><path class="cls-3" d="M213.61,249.12a2.11,2.11,0,1,1,2.11-2.11A2.11,2.11,0,0,1,213.61,249.12Zm0-3.47A1.36,1.36,0,1,0,215,247,1.36,1.36,0,0,0,213.61,245.65Z" transform="translate(-78.27 -120.88)"/><path class="cls-10" d="M146.38,348.42H297.2A1.78,1.78,0,0,0,299,346.5l-9-90a1.8,1.8,0,0,0-1.82-1.58H137.41a1.78,1.78,0,0,0-1.82,1.91l9,90A1.81,1.81,0,0,0,146.38,348.42Z" transform="translate(-78.27 -120.88)"/><path class="cls-14" d="M291,264.34l-154.05.41-.87-8.05A1.74,1.74,0,0,1,138,255H286.33c1.44,0,3.63.94,3.63,2.1Z" transform="translate(-78.27 -120.88)"/><path class="cls-12" d="M143.48,261.71a1.69,1.69,0,1,1,1.69-1.68A1.69,1.69,0,0,1,143.48,261.71Zm0-2.62a.94.94,0,1,0,.94.94A.94.94,0,0,0,143.48,259.09Z" transform="translate(-78.27 -120.88)"/><path class="cls-12" d="M148.36,261.71a1.69,1.69,0,1,1,1.69-1.68A1.69,1.69,0,0,1,148.36,261.71Zm0-2.62a.94.94,0,1,0,.94.94A.94.94,0,0,0,148.36,259.09Z" transform="translate(-78.27 -120.88)"/><path class="cls-12" d="M152.87,261.71a1.69,1.69,0,1,1,1.69-1.68A1.69,1.69,0,0,1,152.87,261.71Zm0-2.62a.94.94,0,1,0,.94.94A.94.94,0,0,0,152.87,259.09Z" transform="translate(-78.27 -120.88)"/><path class="cls-12" d="M303.06,363.58H262.61a2.42,2.42,0,0,1-2.43-2.42v-4.5h.75v4.5a1.68,1.68,0,0,0,1.68,1.67h40.45a1.67,1.67,0,0,0,1.67-1.67v-4.5h.75v4.5A2.42,2.42,0,0,1,303.06,363.58Z" transform="translate(-78.27 -120.88)"/><path class="cls-12" d="M137.9,365.74a2.7,2.7,0,1,1,2.7-2.69A2.7,2.7,0,0,1,137.9,365.74Zm0-4.64a1.95,1.95,0,1,0,1.95,1.95A2,2,0,0,0,137.9,361.1Z" transform="translate(-78.27 -120.88)"/><path class="cls-3" d="M247.75,255.48H137.1a.5.5,0,0,1-.5-.5.5.5,0,0,1,.5-.5H247.75a.5.5,0,0,1,.5.5A.5.5,0,0,1,247.75,255.48Z" transform="translate(-78.27 -120.88)"/><g class="cls-15"><path class="cls-16" d="M200,285.72l-46.11,1.06a3.27,3.27,0,0,1-1.52-.15l-.06-2.45a3.07,3.07,0,0,1,1.87-1l45.74-1.05c.84,0,1.55,1.17,1.55,1.27l.05,2.08A3.36,3.36,0,0,1,200,285.72Z" transform="translate(-78.27 -120.88)"/><path class="cls-16" d="M200.55,310.72l-46.11,1.06a1.72,1.72,0,0,1-1.75-1.67l-.58-25.34a1.71,1.71,0,0,1,1.67-1.75L199.89,282a1.71,1.71,0,0,1,1.74,1.67l.59,25.34A1.72,1.72,0,0,1,200.55,310.72Zm-46.77-27.33a1.34,1.34,0,0,0-1.3,1.37l.58,25.34a1.33,1.33,0,0,0,1.37,1.3l46.11-1.06a1.32,1.32,0,0,0,1.3-1.36l-.58-25.34a1.35,1.35,0,0,0-1.37-1.31Z" transform="translate(-78.27 -120.88)"/><path class="cls-16" d="M201.5,285.87,154.25,287a.19.19,0,0,1,0-.37l47.25-1.09a.19.19,0,0,1,.19.18A.18.18,0,0,1,201.5,285.87Z" transform="translate(-78.27 -120.88)"/><path class="cls-12" d="M154.52,285.83a.55.55,0,0,1-.57-.53.56.56,0,0,1,.54-.56.54.54,0,0,1,.56.53A.53.53,0,0,1,154.52,285.83Zm0-.91a.37.37,0,0,0,0,.73.37.37,0,1,0,0-.73Z" transform="translate(-78.27 -120.88)"/><path class="cls-12" d="M156.17,285.8a.56.56,0,0,1-.56-.54.55.55,0,0,1,1.1,0A.56.56,0,0,1,156.17,285.8Zm0-.92a.37.37,0,0,0-.35.38.36.36,0,1,0,.72,0A.37.37,0,0,0,156.15,284.88Z" transform="translate(-78.27 -120.88)"/><path class="cls-12" d="M157.74,285.76a.55.55,0,1,1,0-1.1.55.55,0,0,1,.56.54A.55.55,0,0,1,157.74,285.76Zm0-.91a.36.36,0,1,0,.37.35A.35.35,0,0,0,157.72,284.85Z" transform="translate(-78.27 -120.88)"/><path class="cls-16" d="M158.3,297.12l-.09-4.21,36.52-.84.1,4.21Zm.42-3.72.07,3.21,35.53-.81-.08-3.22Z" transform="translate(-78.27 -120.88)"/><path class="cls-16" d="M158.45,303.48l-.1-4.22,36.53-.84.09,4.22Zm.42-3.73.07,3.21,35.52-.81-.07-3.22Z" transform="translate(-78.27 -120.88)"/></g><g class="cls-15"><path class="cls-16" d="M285.4,296.36l-46.11,1.06c-.84,0-1.52-.05-1.52-.16l-.06-2.44a3.07,3.07,0,0,1,1.87-1l45.74-1.06c.84,0,1.55,1.17,1.55,1.28l.05,2.07C286.92,296.24,286.24,296.34,285.4,296.36Z" transform="translate(-78.27 -120.88)"/><path class="cls-16" d="M286,321.35l-46.11,1.06a1.7,1.7,0,0,1-1.75-1.67l-.58-25.33a1.7,1.7,0,0,1,1.66-1.75l46.12-1.06a1.7,1.7,0,0,1,1.74,1.67l.59,25.33A1.71,1.71,0,0,1,286,321.35ZM239.21,294a1.34,1.34,0,0,0-1.3,1.37l.58,25.34a1.34,1.34,0,0,0,1.37,1.3L286,321a1.34,1.34,0,0,0,1.3-1.37l-.58-25.33a1.34,1.34,0,0,0-1.37-1.31Z" transform="translate(-78.27 -120.88)"/><path class="cls-16" d="M286.93,296.51l-47.25,1.09a.18.18,0,0,1-.19-.18.17.17,0,0,1,.18-.19l47.25-1.09a.19.19,0,0,1,0,.37Z" transform="translate(-78.27 -120.88)"/><path class="cls-12" d="M240,296.47a.55.55,0,0,1-.57-.54.56.56,0,0,1,.54-.56.56.56,0,0,1,.56.54A.55.55,0,0,1,240,296.47Zm0-.91a.35.35,0,0,0-.35.37.37.37,0,0,0,.37.36.38.38,0,0,0,.36-.38A.37.37,0,0,0,239.92,295.56Z" transform="translate(-78.27 -120.88)"/><path class="cls-12" d="M241.6,296.43a.55.55,0,1,1,0-1.1.56.56,0,0,1,.56.54A.56.56,0,0,1,241.6,296.43Zm0-.91a.37.37,0,0,0-.36.37.38.38,0,0,0,.38.36.36.36,0,0,0,.35-.37A.37.37,0,0,0,241.58,295.52Z" transform="translate(-78.27 -120.88)"/><path class="cls-12" d="M243.17,296.4a.56.56,0,0,1-.56-.54.55.55,0,1,1,.56.54Zm0-.92a.37.37,0,0,0-.35.38.36.36,0,0,0,.72,0A.37.37,0,0,0,243.15,295.48Z" transform="translate(-78.27 -120.88)"/><path class="cls-16" d="M243.73,307.76l-.09-4.22,36.52-.84.1,4.22Zm.42-3.73.07,3.22,35.53-.82-.08-3.22Z" transform="translate(-78.27 -120.88)"/><path class="cls-16" d="M243.88,314.11l-.1-4.21,36.53-.85.09,4.22Zm.41-3.73.08,3.22,35.52-.82-.07-3.21Z" transform="translate(-78.27 -120.88)"/></g><path class="cls-10" d="M250.55,305.85a36.25,36.25,0,0,0-20.44,6.29l0,0-7.37-31h-8.64l-7.37,31,0,0a36.41,36.41,0,0,0-56.32,36.37h136a36.36,36.36,0,0,0-35.88-42.66Z" transform="translate(-78.27 -120.88)"/><path class="cls-17" d="M258.7,326.19a17.7,17.7,0,0,0-4.89-19.7c-7.88-14-26.64-53.26-10.68-86.17l-8-6s-49,20.83-50.81,93.95a17.63,17.63,0,0,0-3.6,16.32,10.35,10.35,0,1,0,9.71,17.43,17,17,0,0,0,21.46.68,10.36,10.36,0,0,0,13.26-.18,17,17,0,0,0,21,.09,10.36,10.36,0,1,0,12.54-16.46Z" transform="translate(-78.27 -120.88)"/><path class="cls-18" d="M247,304.76a13.58,13.58,0,0,0,1.09-4.7c.17-4-7.87-6.93-10.54-9.5-5.43-10.74-8.48-46,4.56-70.14l-6.9-5.17s-35.1,18.46-38.84,73.13c-2.09,2.24-7.85,5.74-8,9a13.31,13.31,0,0,0,.34,3.59,7.76,7.76,0,1,0,6.69,13.36,12.73,12.73,0,0,0,16,1.22,7.74,7.74,0,0,0,9.93.3,12.63,12.63,0,0,0,7.77,3.1,12.77,12.77,0,0,0,7.93-2.33,7.76,7.76,0,1,0,9.93-11.9Z" transform="translate(-78.27 -120.88)"/><path class="cls-3" d="M186.4,259.69a73.25,73.25,0,0,0,1.56,10.4,82.78,82.78,0,0,0,3,10.25c.57,1.7,1.28,3.33,2,5l1.13,2.42.58,1.22.63,1.18a68.33,68.33,0,0,0,5.74,9.08v0a.5.5,0,0,1-.79.61,70.37,70.37,0,0,1-6.52-8.81l-.74-1.16-.68-1.2-1.35-2.4c-.82-1.65-1.67-3.28-2.39-5A85.88,85.88,0,0,1,184.65,271,76.6,76.6,0,0,1,182.19,260a2.12,2.12,0,1,1,4.19-.6c0,.05,0,.1,0,.15Z" transform="translate(-78.27 -120.88)"/><path class="cls-3" d="M166.12,281.72a12.86,12.86,0,0,0,.69,1.15c.27.4.55.81.86,1.21.59.81,1.26,1.58,1.94,2.35a46.81,46.81,0,0,0,4.49,4.29,57,57,0,0,0,5,3.77c.87.6,1.78,1.13,2.67,1.71l2.76,1.58,0,0A.64.64,0,0,1,184,299l-3-1.29c-1-.47-2-.92-2.93-1.42a61.88,61.88,0,0,1-5.66-3.31,49.37,49.37,0,0,1-5.29-4c-.83-.74-1.66-1.51-2.44-2.34-.39-.41-.77-.84-1.15-1.28a18.22,18.22,0,0,1-1.13-1.5v0a2.12,2.12,0,1,1,3.55-2.31A2.15,2.15,0,0,1,166.12,281.72Z" transform="translate(-78.27 -120.88)"/><path class="cls-3" d="M257.53,260A76.6,76.6,0,0,1,255.07,271a85.88,85.88,0,0,1-3.84,10.37c-.72,1.69-1.57,3.32-2.39,5l-1.35,2.4-.68,1.2-.74,1.16a70.37,70.37,0,0,1-6.52,8.81.51.51,0,0,1-.71.06.5.5,0,0,1-.08-.67v0a68.33,68.33,0,0,0,5.74-9.08l.63-1.18.58-1.22,1.13-2.42c.67-1.66,1.38-3.29,2-5a82.78,82.78,0,0,0,3-10.25,73.25,73.25,0,0,0,1.56-10.4v-.1a2.11,2.11,0,0,1,4.22.29A.78.78,0,0,1,257.53,260Z" transform="translate(-78.27 -120.88)"/><path class="cls-3" d="M277.28,283.8a18.22,18.22,0,0,1-1.13,1.5c-.38.44-.76.87-1.16,1.28-.77.83-1.6,1.6-2.43,2.34a49.37,49.37,0,0,1-5.29,4,61.88,61.88,0,0,1-5.66,3.31c-1,.5-1.95.95-2.93,1.42l-3,1.29a.65.65,0,0,1-.85-.34.64.64,0,0,1,.28-.81l0,0,2.76-1.58c.89-.58,1.8-1.11,2.67-1.71a57,57,0,0,0,5-3.77,48,48,0,0,0,4.49-4.29c.68-.77,1.35-1.54,1.94-2.35.31-.4.59-.81.86-1.21s.55-.87.69-1.15a2.12,2.12,0,0,1,3.84,1.8,1.88,1.88,0,0,1-.14.24Z" transform="translate(-78.27 -120.88)"/><path class="cls-2" d="M263.58,335.51a23.36,23.36,0,0,0-15.64,6,30.09,30.09,0,0,0-58.66.54,23.39,23.39,0,0,0-37.17,6.47H284.54A23.38,23.38,0,0,0,263.58,335.51Z" transform="translate(-78.27 -120.88)"/><path class="cls-19" d="M186.33,305.85a36.41,36.41,0,0,0-35.88,42.66h64.21a36.41,36.41,0,0,1,3.78-23.45A36.42,36.42,0,0,0,186.33,305.85Z" transform="translate(-78.27 -120.88)"/><path class="cls-19" d="M250.55,305.85a36.44,36.44,0,0,0-32.11,19.21,36.41,36.41,0,0,1,3.78,23.45h64.21a36.36,36.36,0,0,0-35.88-42.66Z" transform="translate(-78.27 -120.88)"/><path class="cls-20" d="M292.07,152.94a1.9,1.9,0,0,0-2.66.34,1.87,1.87,0,0,0-.26,1.83l-3.84,5c-11.52-.26-26.48,10-33.15,18.68l-7.64,9.89c-.7.91-1.36,1.83-2,2.78l.1-.39-4-.8a12.88,12.88,0,0,0-14.35,7.54l-10.75,24.9a5,5,0,0,0,5.84-1.92l5-7.41a11.87,11.87,0,0,1,11-5.16,49.81,49.81,0,0,0-1.08,7.61l3.94,3h0l-3.94-3-2,6.39,2.1,1.62L226,234.69c-.74,1-2.21,4.57-1.2,5.35s4.14-1.55,4.88-2.51l7.14-9.24h0l1.26-1.65,2.13,1.65,5.64-3.58h0a49.72,49.72,0,0,0,7-2.93,11.87,11.87,0,0,1-2.25,11.82l-5.91,6.73a5,5,0,0,0-.37,6.14l21.37-16.7A12.88,12.88,0,0,0,269.37,214l-1.78-3.66c.67-.76,1.32-1.54,2-2.35l7.63-9.89a53.14,53.14,0,0,0,7.21-13.51.23.23,0,0,0,.08-.11c2.89-7.83,4.32-16.59,2.42-23.2l3.82-4.95a1.89,1.89,0,0,0,1.37-3.37Z" transform="translate(-78.27 -120.88)"/><path class="cls-21" d="M269.27,203.16l1.7,3.5a12.31,12.31,0,0,1-3.49,15.08l-20.41,15.94h0a4.8,4.8,0,0,1,.36-5.86l5.64-6.42a11.35,11.35,0,0,0,.83-13.88h0Z" transform="translate(-78.27 -120.88)"/><path class="cls-20" d="M269.27,203.16l1.7,3.5a12.31,12.31,0,0,1-3.49,15.08l-20.41,15.94h0a4.8,4.8,0,0,1,.36-5.86l5.64-6.42a11.35,11.35,0,0,0,.83-13.88h0Z" transform="translate(-78.27 -120.88)"/><path class="cls-21" d="M245.44,184.76l-3.82-.76a12.31,12.31,0,0,0-13.7,7.2L217.66,215h0a4.79,4.79,0,0,0,5.57-1.83l4.79-7.07a11.34,11.34,0,0,1,13.22-4.32h0Z" transform="translate(-78.27 -120.88)"/><path class="cls-21" d="M241.62,184a12.31,12.31,0,0,0-13.7,7.2L217.66,215h0a4.79,4.79,0,0,0,5.57-1.83l4.79-7.07" transform="translate(-78.27 -120.88)"/><path class="cls-3" d="M219.27,215.75a5.21,5.21,0,0,1-1.78-.31l-.5-.18L227.46,191a12.88,12.88,0,0,1,14.26-7.49.5.5,0,0,1,.39.59.48.48,0,0,1-.58.39,11.87,11.87,0,0,0-13.15,6.9l-10,23.26a4.31,4.31,0,0,0,4.48-1.79l4.79-7.07a.51.51,0,0,1,.7-.14.52.52,0,0,1,.13.7l-4.79,7.07A5.3,5.3,0,0,1,219.27,215.75Z" transform="translate(-78.27 -120.88)"/><rect class="cls-10" x="285.03" y="152.36" width="7.64" height="1.87" transform="translate(-87.29 167.35) rotate(-52.33)"/><path class="cls-3" d="M287.35,157.59l-2.27-1.76,5.27-6.83,2.27,1.75Zm-.87-1.94.68.53,4.06-5.25-.69-.53Z" transform="translate(-78.27 -120.88)"/><path class="cls-11" d="M293,150.92a1.81,1.81,0,1,1-.32-2.53A1.8,1.8,0,0,1,293,150.92Z" transform="translate(-78.27 -120.88)"/><path class="cls-3" d="M291.53,152.12a2.3,2.3,0,0,1-1.82-3.71,2.31,2.31,0,1,1,3.65,2.82h0a2.32,2.32,0,0,1-1.53.87A1.51,1.51,0,0,1,291.53,152.12Zm0-3.61a1.31,1.31,0,0,0-1.3,1.47,1.26,1.26,0,0,0,.5.87,1.3,1.3,0,0,0,1.83-.24,1.31,1.31,0,0,0-.24-1.83A1.32,1.32,0,0,0,291.54,148.51Z" transform="translate(-78.27 -120.88)"/><path class="cls-10" d="M287.37,155.38s0-.11,0-.12-.13,0-.13,0c-11.12-.91-26.1,9.28-32.66,17.79l-7.29,9.43a47.18,47.18,0,0,0-9.75,25.92l5.23,4,.56.43,5.23,4h0a47.22,47.22,0,0,0,22.61-16l7.29-9.44C285,183,291.06,165.91,287.37,155.38Z" transform="translate(-78.27 -120.88)"/><path class="cls-12" d="M242.73,212.44l.54.42,5,3.89h0a48.41,48.41,0,0,0,22.39-16.16l7.29-9.44c6.56-8.5,12.79-25.45,9.36-35.78,0,0,0-.11,0-.11s-.12,0-.12,0" transform="translate(-78.27 -120.88)"/><path class="cls-21" d="M287.4,155.41s0-.12,0-.12-.13,0-.13,0c-6.84-.56-15.13,3.08-22,7.95-2.14,1.5,19.25,17.81,20.19,15.26C288.27,170.64,289.64,161.81,287.4,155.41Z" transform="translate(-78.27 -120.88)"/><path class="cls-20" d="M287.4,155.41s0-.12,0-.12-.13,0-.13,0c-6.84-.56-15.13,3.08-22,7.95-2.14,1.5,19.25,17.81,20.19,15.26C288.27,170.64,289.64,161.81,287.4,155.41Z" transform="translate(-78.27 -120.88)"/><path class="cls-22" d="M272.2,188.75a8.49,8.49,0,1,1-1.53-11.92A8.5,8.5,0,0,1,272.2,188.75Z" transform="translate(-78.27 -120.88)"/><path class="cls-3" d="M265.47,192.55a9,9,0,1,1,7.13-3.49h0A9,9,0,0,1,265.47,192.55Zm0-17a8,8,0,1,0,6.32,12.89h0a8,8,0,0,0-6.32-12.89Z" transform="translate(-78.27 -120.88)"/><path class="cls-2" d="M270.59,187.51a6.46,6.46,0,1,1-1.17-9.06A6.46,6.46,0,0,1,270.59,187.51Z" transform="translate(-78.27 -120.88)"/><path class="cls-12" d="M267.48,183a2.87,2.87,0,1,1-.52-4A2.88,2.88,0,0,1,267.48,183Z" transform="translate(-78.27 -120.88)"/><polygon class="cls-11" points="159.23 87.52 157.32 93.62 164.86 99.44 170.25 96.03 159.23 87.52"/><path class="cls-3" d="M243.1,220.93,235,214.69l2.23-7.12L249.39,217Zm-6.93-6.61,7,5.39,4.49-2.84-9.89-7.63Z" transform="translate(-78.27 -120.88)"/><path class="cls-21" d="M228.42,231.55h0c-1-.75.44-4.19,1.15-5.11l23.8-30.83a2.16,2.16,0,0,1,3-.3h0a2.15,2.15,0,0,1,.47,3l-23.8,30.83C232.37,230.07,229.39,232.3,228.42,231.55Z" transform="translate(-78.27 -120.88)"/><path class="cls-21" d="M239.89,220.32l-6.81,8.83c-.71.92-3.69,3.15-4.66,2.4h0c-1-.75.44-4.19,1.15-5.11" transform="translate(-78.27 -120.88)"/><path class="cls-3" d="M228.93,232.2a1.29,1.29,0,0,1-.81-.26c-.61-.47-.69-1.49-.23-3a9.91,9.91,0,0,1,1.28-2.78l.79.62a9.05,9.05,0,0,0-1.12,2.45c-.36,1.22-.26,1.83-.11,2s.77,0,1.86-.6a9.31,9.31,0,0,0,2.09-1.71l6.81-8.82.8.61-6.82,8.82a9.82,9.82,0,0,1-2.36,2A4.57,4.57,0,0,1,228.93,232.2Z" transform="translate(-78.27 -120.88)"/></svg>