<svg xmlns="http://www.w3.org/2000/svg" width="13" height="11" viewBox="0 0 13 11"><g><g><path fill="#a5b7d2" d="M12.883 1.698a5.475 5.475 0 0 1-1.518.393A2.537 2.537 0 0 0 12.527.704a5.446 5.446 0 0 1-1.679.609 2.709 2.709 0 0 0-1.93-.79c-1.459 0-2.642 1.12-2.642 2.504 0 .197.023.388.068.57C4.148 3.496 2.2 2.498.896.98c-.227.37-.358.8-.358 1.26 0 .87.467 1.636 1.176 2.087a2.762 2.762 0 0 1-1.197-.315v.032c0 1.213.91 2.227 2.12 2.456a2.815 2.815 0 0 1-1.194.044c.337.995 1.313 1.719 2.47 1.739A5.479 5.479 0 0 1 .63 9.356c-.213 0-.424-.012-.63-.036a7.776 7.776 0 0 0 4.051 1.128c4.862 0 7.52-3.82 7.52-7.13 0-.11-.002-.216-.007-.324a5.236 5.236 0 0 0 1.319-1.296z"/></g></g></svg>