<svg xmlns="http://www.w3.org/2000/svg" width="1400" height="1123" xmlns:xlink="http://www.w3.org/1999/xlink" viewBox="0 0 457.2 366.71"><defs><style>.cls-1,.cls-18{isolation:isolate;}.cls-2{fill:#edf3ff;}.cls-10,.cls-3{fill:#fc4b1f;}.cls-15,.cls-4{fill:#114fde;}.cls-13,.cls-5{fill:#ffb925;}.cls-6,.cls-7{fill:#fdbba5;}.cls-16,.cls-7,.cls-9{opacity:0.5;}.cls-10,.cls-12,.cls-13,.cls-14,.cls-15,.cls-16,.cls-7,.cls-9{mix-blend-mode:multiply;}.cls-8,.cls-9{fill:#3f2f49;}.cls-11,.cls-12{fill:#e6e6e6;}.cls-17{opacity:0.3;}.cls-18{fill:#00c3ff;fill-rule:evenodd;opacity:0.3;}.cls-19{fill:url(#Безымянный_градиент_8);}.cls-20{fill:url(#Безымянный_градиент_8-2);}.cls-21{fill:url(#Безымянный_градиент_9);}</style><linearGradient id="Безымянный_градиент_8" x1="-58.88" y1="467.64" x2="-58.4" y2="468.12" gradientTransform="matrix(63.99, 0, 0, -42.98, 4183.45, 20463.87)" gradientUnits="userSpaceOnUse"><stop offset="0" stop-color="#07c3e7"/><stop offset="0.76" stop-color="#f0f6ff"/></linearGradient><linearGradient id="Безымянный_градиент_8-2" x1="-65.27" y1="474.23" x2="-64.81" y2="474.69" gradientTransform="matrix(63.99, 0, 0, -42.98, 4183.45, 20463.42)" xlink:href="#Безымянный_градиент_8"/><linearGradient id="Безымянный_градиент_9" x1="-61.28" y1="477.11" x2="-60.83" y2="477.56" gradientTransform="matrix(88.99, 0, 0, -59.98, 5842.59, 28648.31)" gradientUnits="userSpaceOnUse"><stop offset="0" stop-color="#415ffa"/><stop offset="0.76" stop-color="#f0f6ff"/></linearGradient></defs><g class="cls-1"><g id="Слой_2" data-name="Слой 2"><g id="OBJECTS"><path class="cls-2" d="M100.38,316c-22.12-5-48.3-25.16-63.13-45.83C9.46,231.46,32.29,165,62.4,154.88c4.07-1.36,9.8-2.21,14.15-7,9.34-10.29-.56-24.65,0-40.57.81-23,23.17-42.63,40-51.32,43.19-22.36,105.39-1.1,120.56,28.64,7.75,15.21,1.61,29.5,11.32,34C260,124,273.91,105.94,299,99c33.53-9.33,71.15,5.58,91.25,20.29,40.89,29.92,50.76,89.34,31.31,128.89C376.94,338.88,180.17,333.9,100.38,316Z"/><path class="cls-3" d="M375.45,212.79c-.94,3.07-2.66,5.81-3.39,9a26,26,0,0,0-.5,8.07c.48,5.88,2.56,11.56,4.84,17a.36.36,0,0,0,.17.38h0A158.45,158.45,0,0,0,358,297.78c-.1.57.78.85.88.27A153.3,153.3,0,0,1,368.73,265a170.64,170.64,0,0,1,8.49-17.21.45.45,0,0,0,.29-.51l.1-.17c12.38,3.29,22.95-6.55,30.5-15,.31-.34,0-1-.49-.71-2.67,1.52-6.05,1.7-9,2.54a54.27,54.27,0,0,0-7.78,2.89,51.91,51.91,0,0,0-11.26,6.84,192,192,0,0,1,13.31-19.33.43.43,0,0,0,.18-.06l.29-.14c9.89,3,21.08.2,29.05-6.17a.47.47,0,0,0-.18-.8c-9.43-1.63-19.36.68-27.77,5.18q4.18-5.22,8.69-10.14c1.39-1.53,2.8-3,4.24-4.52a2.27,2.27,0,0,0,.22.22c.91,1.65,2.77,2.4,4.51,2.88a23.37,23.37,0,0,0,6.89,1c4.42-.17,8.36-2.39,12.1-4.54a.46.46,0,0,0-.08-.84,29.91,29.91,0,0,0-22.3-.07Q414,201,419.55,196a.38.38,0,0,0,.43,0,.28.28,0,0,0,.38,0l.28-.19c8.11,2.56,17.48-.93,22.77-7.34.22-.27-.05-.63-.34-.66a30.85,30.85,0,0,0-12.58,1.45,32.32,32.32,0,0,0-7,3.25c.75-.65,1.49-1.3,2.25-1.94,4.05-3.44,8.21-6.71,12.43-9.9,3.58.24,7.25-1.63,10-3.73a34.61,34.61,0,0,0,9-11.1.42.42,0,0,0-.68-.49c-8.15.75-16.23,6.36-18.62,14.4-4.61,3.43-9.08,7-13.43,10.75a18.52,18.52,0,0,0,3-7.1c.74-4.38-.09-8.83-.17-13.23a.46.46,0,0,0-.85-.26A58.16,58.16,0,0,0,419,183.32c-1.46,4.13-.75,7.68.25,11.74q-5.19,4.65-10.1,9.61c4.25-7.43,1.08-16.93-2.06-24.33a.52.52,0,0,0-.89,0c-6,8-3.59,18.48.8,26.57q-6.39,6.65-12.23,13.79a33.23,33.23,0,0,0,1.5-13.32,37.56,37.56,0,0,0-4.73-15.65.49.49,0,0,0-.83,0c-3.29,4.45-3.65,10-2.84,15.36s2.17,11.5,4.75,16.35a192.67,192.67,0,0,0-13.38,19.28c3.61-9.55,2-21.32-2.89-29.92A.49.49,0,0,0,375.45,212.79Z"/><path class="cls-4" d="M192.6,159.65c-.45-2.9-3.21-2.76-5.14-1.42-6,4.17-10.38,11.76-17.84,13.65h0c-.26-5.61-.59-11.27-1.05-16.92a2.58,2.58,0,0,0,.05-1.06,33,33,0,0,0,14.8-5.77c2.63-1.88,8.06-5.6,7.27-9.43-.59-2.88-3.34-2.6-5.2-1.16-5.77,4.46-9.78,12.26-17.14,14.52h0a.24.24,0,0,0,0-.08c-.48-5.35-1.09-10.69-1.89-16a2.51,2.51,0,0,0,0-.85,33.11,33.11,0,0,0,14.35-6.8c2.49-2.07,7.65-6.16,6.59-9.92-.8-2.83-3.52-2.37-5.28-.8-5.43,4.85-8.88,12.9-16,15.68-.84-5.15-1.85-10.25-3.09-15.28a33,33,0,0,0,14.16-7.19c2.43-2.13,7.47-6.36,6.31-10.1-.87-2.8-3.58-2.26-5.29-.64-5.31,5-8.53,13.16-15.63,16.12l0,0c-1.18-4.53-2.54-9-4.15-13.35a1,1,0,0,0,.29-.14c4.11-3,8.95-5.71,11.59-10.28,1.28-2.21,3.09-7.22,1-9.51s-4.38,1.45-5.32,2.89c-3.06,4.73-4.94,10.07-8.51,14.48a113.25,113.25,0,0,0-5.25-11.49,23.6,23.6,0,0,0,7.74-9.07c1-2,1.86-6-.44-7.66-3.42-2.49-7,10-8.53,14.46-1.5-2.7-3.12-5.35-4.89-7.92-1.48-5.91-3-12-6.38-17.14-1.89-2.89-5.54-7.29-9.53-6.27-8,2,10.56,20.13,14,23.62a99.35,99.35,0,0,1,5.45,8.74c-3.43-.21-7.1-1.77-10.43-2.24-1.75-.26-4-.36-5.18,1.18a.86.86,0,0,0,0,1c3.48,4.78,11.92,3.86,16.91,2.44A116,116,0,0,1,156,101.55a122.25,122.25,0,0,1-12.21-2.61c-2.48-.65-5.64-1.68-8.05-.31a.9.9,0,0,0-.5.91c0,3,5.41,4.45,7.71,4.93a28.6,28.6,0,0,0,14-.49c1.43,3.94,2.68,8,3.76,12-7.09,1.6-13.56-.78-20.7-.75-2,0-7,0-6,3.3,1.32,4.41,10.9,3.75,14.06,3.71,4.81-.06,9.3-.78,13.47-3.07,1.06,4.36,1.94,8.78,2.69,13.24a1.32,1.32,0,0,0,0,.62c-7.13,1.41-13.54-1.15-20.67-1.32-2,0-7-.23-6.11,3.14,1.19,4.44,10.79,4,13.95,4.09,4.76.07,9.23-.51,13.42-2.64.75,5.05,1.34,10.14,1.8,15.24,0,0,0,.07,0,.11-7.22.9-13.43-2.11-20.53-2.78-2-.19-7-.72-6.32,2.7.88,4.52,10.48,4.8,13.63,5.07A28.09,28.09,0,0,0,166.87,155c.44,5.42.76,10.83,1,16.2a1.47,1.47,0,0,0,0,.21c-7.26.54-13.31-2.78-20.37-3.8-2-.29-6.94-1.07-6.44,2.38.65,4.55,10.23,5.31,13.36,5.74a28,28,0,0,0,13.61-1c.15,3.41.27,6.79.39,10.15,0,1.1,1.73.84,1.69-.25q-.17-5-.39-10a2.48,2.48,0,0,0,.07-.89,33.08,33.08,0,0,0,15.07-5C187.59,167,193.2,163.52,192.6,159.65Z"/><path class="cls-4" d="M232.1,127.57a.61.61,0,0,0,.71-.08.54.54,0,0,0,.55,0c5.16,1.47,9.9,4.22,15.18,5.25,1.92.37,8.25,1.5,8.82-1.43s-5.48-4.61-7.36-5c-5.48-1.28-11.17-.28-16.73-.24a.72.72,0,0,0-.15-.11c1.27-2.06,2.63-4.07,4.09-6s3.06-3.85,4.71-5.67c2.53.92,4.57,3.25,6.74,4.77a19.91,19.91,0,0,0,5.64,2.92c2.42.72,7.09,1.24,8.35-1.72,3-6.91-15.39-6.11-19.4-7.41a81,81,0,0,1,12-10.31c2.12,3.59,4.79,7.54,8.61,9.4,2.21,1.07,6.24,1.71,8.18-.36,1.71-1.81.06-3.89-1.65-5-2-1.29-4.59-2-6.79-2.89l-6.32-2.54A82.64,82.64,0,0,1,267.8,95.2c3.85,2.67,7.81,6,12.35,7.35,1.89.57,6.83,1.56,7.86-1.11,1.14-3-3.46-4.52-5.44-4.92-4.34-.88-8.8-.67-12.95-2.13A83.18,83.18,0,0,1,280,90.64a.62.62,0,0,0,.31,0c4.16-.57,8.33,0,12.48.42,3.71.34,8,.85,11.71.17A6.13,6.13,0,0,0,308,89.61a4.52,4.52,0,0,0,.65-4.69,6.8,6.8,0,0,0-3.52-3.38,13.25,13.25,0,0,0-7.84-.6c-5.74,1-12.91,4.22-17.11,8.32a82.86,82.86,0,0,0-12.12,4.48,1.24,1.24,0,0,1-.2-.1c0-.15,0-.31-.05-.47,1-5,7.38-8,10-12,1.57-2.33,1.33-5.77-1.93-6.24-3.6-.52-6.52,3.12-7.79,6a24.59,24.59,0,0,0-1.59,12.31,8.54,8.54,0,0,0-.13,1.25,83.43,83.43,0,0,0-10.17,5.88l-.11,0a38.93,38.93,0,0,1,2.06-8.3c.91-2.4,2.52-4.79,2.81-7.39s-1.1-5.12-4.14-4.51c-9.45,1.91-6.82,16.19-2.38,21.42a0,0,0,0,0,0,0,84.35,84.35,0,0,0-12.26,10.7l0,0-.07-.06a.57.57,0,0,0-.32-.16,1.92,1.92,0,0,0-.22-1.2,17.36,17.36,0,0,1-.4-2.36c-.13-1.15-.15-2.32-.21-3.47a22.79,22.79,0,0,0-.82-6c-.89-2.71-3.11-5.59-6.21-3.82s-2.37,5.61-1.24,8.28c1.82,4.31,3.72,8.38,8.11,10.38a82.66,82.66,0,0,0-8.52,11.31c-1.51-2.14-1.93-5.29-2.77-7.62a67.76,67.76,0,0,0-3.21-7.49c-1.2-2.4-4.26-7.42-7.47-4.43-2.64,2.46-1.42,7.26.1,9.93,2.7,4.78,7.94,8.06,12.27,11.36a80.77,80.77,0,0,0-9.7,24.95,83.27,83.27,0,0,0-.79,29.28c.13.82,1.42.73,1.3-.1A82.68,82.68,0,0,1,232.1,127.57Z"/><path class="cls-4" d="M161.07,297.52c.39-10,5.5-21.43,13.37-24.21,5.84-2.07,10.87,1.31,11.16,7.48.33,6.81-3.88,12.75-8.32,17.5-1,1.07-12.86,12.39-13.61,11.21C161.69,306.42,160.89,302.11,161.07,297.52Z"/><path class="cls-4" d="M158.49,308.73l-.84-.5c-4.89-3.11-12.07-9-9.56-15.55,3.64-9.61,14.69.17,17.75,13.63C167.28,312.63,162,310.76,158.49,308.73Z"/><path class="cls-4" d="M170.15,310.53l1-.13c5.73-.85,14.67-3.3,15-10.33.56-10.26-13.5-5.8-21.76,5.26C160.54,310.53,166.14,311,170.15,310.53Z"/><path class="cls-4" d="M160,288.82s-10.17-7.23-6.83-14.11S164.19,270.32,160,288.82Z"/><path class="cls-5" d="M263,290.35c-.39-10.05-5.5-21.44-13.37-24.22-5.84-2.06-10.87,1.31-11.17,7.49-.32,6.81,3.89,12.75,8.33,17.49,1,1.08,12.86,12.4,13.61,11.22C262.36,299.25,263.16,294.94,263,290.35Z"/><path class="cls-5" d="M265.56,301.56c.3-.17.57-.34.84-.51,4.89-3.1,12.07-9,9.56-15.55-3.64-9.61-14.69.17-17.75,13.64C256.77,305.46,262.07,303.58,265.56,301.56Z"/><path class="cls-5" d="M253.9,303.35c-.34,0-.66-.07-1-.12-5.73-.86-14.67-3.3-15.05-10.33-.56-10.27,13.5-5.81,21.76,5.26C263.51,303.35,257.91,303.79,253.9,303.35Z"/><path class="cls-5" d="M23.37,215.85s-3.78-5.53-9-5.58-4.06,5.82-.82,6.76S23.37,215.85,23.37,215.85Z"/><path class="cls-5" d="M15.14,213s37.58,10.73,76.31,74.18L94.18,285S55,223,15.14,213Z"/><path class="cls-5" d="M30.39,219.08s3.38-5.79,1.19-10.53-7-1.18-6.46,2.15S30.39,219.08,30.39,219.08Z"/><path class="cls-5" d="M29.49,219.46A21.56,21.56,0,0,0,28,208.73s2.38,3,2.87,10.82Z"/><path class="cls-5" d="M38.74,224s5.08-4.37,4.54-9.56-6.23-3.39-6.81-.06S38.74,224,38.74,224Z"/><path class="cls-5" d="M37.77,224.08a21.5,21.5,0,0,0,2-10.65S41.09,217,39,224.6Z"/><path class="cls-5" d="M47.53,230.78S53,226.92,53,221.7s-5.88-4-6.77-.72S47.53,230.78,47.53,230.78Z"/><path class="cls-5" d="M46.55,230.77a21.47,21.47,0,0,0,3-10.41s.94,3.7-1.86,11Z"/><path class="cls-5" d="M57.06,239.17s5.48-3.87,5.44-9.09-5.88-4-6.77-.72S57.06,239.17,57.06,239.17Z"/><path class="cls-5" d="M56.09,239.15a21.58,21.58,0,0,0,3-10.4s.94,3.7-1.86,11Z"/><path class="cls-5" d="M65.66,247.9s5.91-3.16,6.52-8.35-5.34-4.66-6.63-1.54S65.66,247.9,65.66,247.9Z"/><path class="cls-5" d="M64.7,247.77a21.58,21.58,0,0,0,4.3-10s.48,3.79-3.21,10.73Z"/><path class="cls-5" d="M29.2,220.2s-3.3,5.83-8.51,6.31-4.53-5.45-1.38-6.66S29.2,220.2,29.2,220.2Z"/><path class="cls-5" d="M29.08,219.23a21.5,21.5,0,0,1-10,4.06s3.78.57,10.8-2.94Z"/><path class="cls-5" d="M38.09,225.47s-1.92,6.42-6.88,8-5.64-4.3-2.83-6.19S38.09,225.47,38.09,225.47Z"/><path class="cls-5" d="M37.77,224.55a21.61,21.61,0,0,1-8.9,6.2s3.81-.29,9.87-5.28Z"/><path class="cls-5" d="M46.78,232.3s-2,6.4-6.93,8-5.61-4.33-2.8-6.2S46.78,232.3,46.78,232.3Z"/><path class="cls-5" d="M46.46,231.38a21.52,21.52,0,0,1-8.93,6.14s3.81-.27,9.9-5.22Z"/><path class="cls-5" d="M55.44,240.77s-3,6-8.18,6.72-4.8-5.22-1.71-6.59S55.44,240.77,55.44,240.77Z"/><path class="cls-5" d="M55.28,239.81a21.61,21.61,0,0,1-9.84,4.55s3.8.38,10.64-3.48Z"/><path class="cls-5" d="M63.74,249.49s-3,6-8.18,6.73-4.8-5.23-1.72-6.59S63.74,249.49,63.74,249.49Z"/><path class="cls-5" d="M63.58,248.53a21.61,21.61,0,0,1-9.84,4.55s3.8.38,10.63-3.48Z"/><path class="cls-5" d="M74.28,258.15s5.9-3.16,6.51-8.35-5.34-4.67-6.63-1.55S74.28,258.15,74.28,258.15Z"/><path class="cls-5" d="M73.31,258a21.51,21.51,0,0,0,4.3-9.95s.48,3.79-3.2,10.72Z"/><path class="cls-5" d="M72.35,259.74s-3,6-8.18,6.72-4.8-5.22-1.71-6.59S72.35,259.74,72.35,259.74Z"/><path class="cls-5" d="M72.19,258.77a21.57,21.57,0,0,1-9.84,4.56s3.8.38,10.64-3.48Z"/><path class="cls-5" d="M82.28,267.53s5.91-3.16,6.52-8.35-5.35-4.66-6.63-1.54S82.28,267.53,82.28,267.53Z"/><path class="cls-5" d="M81.32,267.4a21.58,21.58,0,0,0,4.3-10s.47,3.79-3.21,10.73Z"/><path class="cls-5" d="M80.35,269.12s-3,6-8.17,6.73-4.81-5.22-1.72-6.59S80.35,269.12,80.35,269.12Z"/><path class="cls-5" d="M80.19,268.16a21.54,21.54,0,0,1-9.83,4.55s3.79.38,10.63-3.48Z"/><path class="cls-5" d="M443.67,243s4.85-5.1,10.27-4.26,3.22,6.71-.3,7.14S443.67,243,443.67,243Z"/><path class="cls-5" d="M452.67,241.43s-40.74,4.76-91.59,64l-2.47-2.69S409.66,245,452.67,241.43Z"/><path class="cls-5" d="M435.85,245.15s-2.53-6.56.55-11.1,7.44,0,6.33,3.32S435.85,245.15,435.85,245.15Z"/><path class="cls-5" d="M436.71,245.71a22.6,22.6,0,0,1,3.4-10.86s-3,2.68-4.8,10.72Z"/><path class="cls-5" d="M426.36,248.85s-4.52-5.39-3.09-10.68,7-2.46,7.07,1.09S426.36,248.85,426.36,248.85Z"/><path class="cls-5" d="M427.35,249.09a22.57,22.57,0,0,1-.3-11.37s-1.94,3.5-1.07,11.7Z"/><path class="cls-5" d="M416.11,254.39s-5-4.93-4.09-10.33,6.76-3.13,7.13.4S416.11,254.39,416.11,254.39Z"/><path class="cls-5" d="M417.12,254.54a22.72,22.72,0,0,1-1.39-11.3s-1.6,3.68.06,11.75Z"/><path class="cls-5" d="M404.81,261.46s-5-4.92-4.09-10.33,6.76-3.12,7.13.4S404.81,261.46,404.81,261.46Z"/><path class="cls-5" d="M405.82,261.61a22.67,22.67,0,0,1-1.39-11.29s-1.59,3.67.06,11.75Z"/><path class="cls-5" d="M394.43,269.06s-5.59-4.27-5.34-9.75,6.32-3.93,7.13-.48S394.43,269.06,394.43,269.06Z"/><path class="cls-5" d="M395.45,269.08a22.64,22.64,0,0,1-2.78-11s-1.13,3.85,1.51,11.66Z"/><path class="cls-5" d="M436.89,246.52s2.44,6.6,7.75,8,5.62-4.89,2.56-6.67S436.89,246.52,436.89,246.52Z"/><path class="cls-5" d="M437.17,245.54a22.64,22.64,0,0,0,9.73,5.9s-4-.05-10.69-4.87Z"/><path class="cls-5" d="M426.78,250.48s.91,7,5.78,9.5,6.56-3.51,4-5.94S426.78,250.48,426.78,250.48Z"/><path class="cls-5" d="M427.27,249.58a22.67,22.67,0,0,0,8.18,7.92s-3.9-.94-9.34-7.13Z"/><path class="cls-5" d="M416.63,256.08s.94,7,5.82,9.47,6.55-3.54,3.95-6S416.63,256.08,416.63,256.08Z"/><path class="cls-5" d="M417.11,255.18a22.59,22.59,0,0,0,8.22,7.88s-3.9-.92-9.37-7.08Z"/><path class="cls-5" d="M406.23,263.4s2.1,6.71,7.33,8.35,5.86-4.6,2.89-6.54S406.23,263.4,406.23,263.4Z"/><path class="cls-5" d="M406.56,262.43a22.66,22.66,0,0,0,9.42,6.38s-4-.25-10.43-5.41Z"/><path class="cls-5" d="M396.16,271s2.1,6.71,7.33,8.35,5.86-4.6,2.89-6.53S396.16,271,396.16,271Z"/><path class="cls-5" d="M396.48,270.06a22.55,22.55,0,0,0,9.43,6.38s-4-.25-10.44-5.4Z"/><path class="cls-5" d="M383.77,278.22s-5.59-4.27-5.34-9.75,6.32-3.93,7.13-.48S383.77,278.22,383.77,278.22Z"/><path class="cls-5" d="M384.79,278.24a22.55,22.55,0,0,1-2.77-11s-1.13,3.84,1.51,11.65Z"/><path class="cls-5" d="M385.5,280.19s2.1,6.71,7.34,8.35,5.85-4.59,2.89-6.53S385.5,280.19,385.5,280.19Z"/><path class="cls-5" d="M385.83,279.22a22.63,22.63,0,0,0,9.42,6.39s-4-.26-10.43-5.41Z"/><path class="cls-5" d="M373.89,286.59s-5.59-4.27-5.34-9.75,6.32-3.93,7.13-.48S373.89,286.59,373.89,286.59Z"/><path class="cls-5" d="M374.91,286.61a22.55,22.55,0,0,1-2.77-11s-1.13,3.84,1.51,11.65Z"/><path class="cls-5" d="M375.62,288.56s2.1,6.71,7.34,8.35,5.85-4.59,2.89-6.53S375.62,288.56,375.62,288.56Z"/><path class="cls-5" d="M376,287.59a22.63,22.63,0,0,0,9.42,6.39s-4-.26-10.43-5.41Z"/><path class="cls-3" d="M82.44,171.06c-5.07,8.77-6.81,20.81-3.18,30.62A200.39,200.39,0,0,0,65.7,181.83c2.67-4.94,4.11-11.2,5-16.7s.54-11.17-2.79-15.76a.51.51,0,0,0-.86,0,38.72,38.72,0,0,0-5,16,34.29,34.29,0,0,0,1.44,13.65q-5.91-7.37-12.42-14.22c4.55-8.24,7.1-19,1-27.21a.53.53,0,0,0-.91,0c-3.27,7.56-6.6,17.26-2.3,24.9q-5-5.12-10.26-9.92c1.05-4.14,1.8-7.78.34-12a59.33,59.33,0,0,0-7.44-13.77.47.47,0,0,0-.87.27c-.11,4.5-1,9.05-.27,13.54a19,19,0,0,0,3,7.29c-4.42-3.83-9-7.56-13.67-11.11C17.33,128.6,9.1,122.79.75,122c-.3-.4-.94,0-.69.5a35.33,35.33,0,0,0,9.12,11.43c2.82,2.18,6.57,4.12,10.24,3.9C23.71,141.1,28,144.48,32.07,148l2.3,2a33.77,33.77,0,0,0-7.19-3.39,31.63,31.63,0,0,0-12.88-1.57c-.29,0-.57.39-.35.67,5.37,6.61,14.94,10.26,23.26,7.69l.29.2a.29.29,0,0,0,.39,0,.38.38,0,0,0,.44,0q5.64,5.17,11,10.69a30.63,30.63,0,0,0-22.84-.1.47.47,0,0,0-.08.86c3.81,2.23,7.83,4.53,12.35,4.74a23.76,23.76,0,0,0,7.06-.94c1.79-.48,3.7-1.23,4.64-2.91l.24-.23c1.45,1.53,2.89,3.09,4.3,4.66q4.58,5.08,8.82,10.45c-8.58-4.67-18.73-7.12-28.4-5.52a.49.49,0,0,0-.19.83c8.11,6.58,19.55,9.51,29.7,6.54l.3.15a.45.45,0,0,0,.19.05,196.34,196.34,0,0,1,13.48,19.9,53.83,53.83,0,0,0-11.48-7.09,55.31,55.31,0,0,0-8-3c-3-.88-6.45-1.09-9.18-2.67-.47-.27-.82.37-.51.73,7.68,8.68,18.42,18.83,31.13,15.56l.1.18a.46.46,0,0,0,.29.52,174.69,174.69,0,0,1,8.57,17.69,156.62,156.62,0,0,1,9.84,33.93c.1.59,1,.31.9-.27a162.14,162.14,0,0,0-18.64-52h0a.39.39,0,0,0,.17-.39c2.37-5.52,4.55-11.33,5.09-17.34a27,27,0,0,0-.45-8.27c-.72-3.23-2.47-6-3.41-9.2A.5.5,0,0,0,82.44,171.06Z"/><polygon class="cls-6" points="206.22 302.04 203.11 255.97 204.49 241.05 190.63 244.01 190.68 255.06 198.34 302.73 188.22 312.01 193.15 315.66 207.32 306.06 206.22 302.04"/><path class="cls-7" d="M202.74,309.17l4.58-3.11-1.1-4L203.11,256l1.38-14.92-8.2,2.22c3.42,10.27,1.24,21.6,3,32.41,1.1,6.72,2.72,13.21,4.27,19.84.8,3.43,0,7.07-.31,10.62A25.59,25.59,0,0,1,202.74,309.17Z"/><path class="cls-8" d="M189.24,311a21.23,21.23,0,0,1-8.57,3.75s.33,3.47,9.22,3.38c6.84,0,11.2-6.76,15.92-8.59v6.12H208v-6.12s2.14-5.85-1.73-8.23C206.28,301.31,202.9,313.83,189.24,311Z"/><path class="cls-9" d="M208,315.66v-6.12a10.13,10.13,0,0,0,.31-5.53,35.77,35.77,0,0,1-11.45,8.69,27.6,27.6,0,0,1-7.4,2.44c-1.9.36-6.3.38-8.19.74.9,1,3.12,2.31,8.61,2.25,6.84,0,11.2-6.76,15.92-8.59v6.12Z"/><path class="cls-8" d="M228.67,314.71a25.51,25.51,0,0,0-1.66-6.22c-.86-2.28-1.48-4.68-2.42-6.93-.14-.35-.72-.45-.82,0-.38,1.7-1.08,3.52-1.57,5.31a48.28,48.28,0,0,1-2.52-5.78.15.15,0,0,0-.29,0,67.89,67.89,0,0,0-1.23,7.35,18.71,18.71,0,0,0,2.45,10.41,22.51,22.51,0,0,0,3.14,4.43c.41.45,1.12,1.48,1.73,1.65,1.52.42,2.83-4.88,3-5.91A14,14,0,0,0,228.67,314.71Z"/><path class="cls-9" d="M228.67,314.71a25.51,25.51,0,0,0-1.66-6.22c-.86-2.28-1.48-4.68-2.42-6.93a.51.51,0,0,0-.51-.29c-.11.41,4.64,16.18.52,23a2.27,2.27,0,0,0,.88.65c1.52.42,2.83-4.88,3-5.91A14,14,0,0,0,228.67,314.71Z"/><path class="cls-8" d="M196.9,122.34s-9-.79-14.76-6.32a6.15,6.15,0,0,1-1.85-5.08c.83-8.06,4.81-32,22.6-32.47,0,0,21.14-3.64,24.69,31.12a6.81,6.81,0,0,1-2,5.61,29.69,29.69,0,0,1-13.12,7.14Z"/><path class="cls-6" d="M225.69,304.6l-3-63.43L208.6,242.9l9.16,57.34a27.66,27.66,0,0,1,.34,4.36h0s1,9.6,5,9C223.13,313.65,226.88,313.1,225.69,304.6Z"/><path class="cls-7" d="M222.56,313.65c-5.52-17.9-4-49.4-5.71-56.78-.88-3.72-3-7.39-3.15-11.22,0-.8-.06-1.61-.06-2.42a1.15,1.15,0,0,0,.31-1l-5.35.66,9.16,57.34a27.66,27.66,0,0,1,.34,4.36S219,313.26,222.56,313.65Z"/><path class="cls-8" d="M185.2,192.72a242.64,242.64,0,0,0,2.92,52.47l38.94-1.46s4.21-40.24-1.46-56.5l-21.94-17.91Z"/><path class="cls-9" d="M191.36,214.84c.08-7.27.06-12.72-1.45-19.83-.74-3.45,1.94-7,1.77-10.51l-6.48,8.22a242.64,242.64,0,0,0,2.92,52.47A190.49,190.49,0,0,0,191.36,214.84Z"/><path class="cls-9" d="M228.57,213.91c0-7.29-.2-14.67-1.68-21.82l-.09-.44a38.59,38.59,0,0,0-1-4c-.29-.94-1.77-1.77-2.51-2.36L219.2,182l-8.84-7.22-2.62-2.14a16.69,16.69,0,0,0-5.92-1l-8.49,10.75a5.92,5.92,0,0,0,2.44,1.75.92.92,0,0,0,1-.12c4.13,2.93,8.29,5.77,11.5,9.79,3.78,4.74,6.08,10.86,8,16.54,3.73,10.79,4,22.41,6.51,33.52l4.26-.16c.26,0,.74-8.92.78-9.45C228.29,227.55,228.6,220.7,228.57,213.91Z"/><path class="cls-3" d="M187.94,147.93l1.65,16.82-9.51,28.7s23.42,5.49,25.23-16.52c0,0,5.44,24,28.29,13.42l-12.39-25.6,5.49-38.57-11.16-2.38-10.23,1.28-10.42-1.28-8.59,2.75Z"/><path class="cls-10" d="M221.21,164.75l.34-2.38c-2.87-.42-6-.62-8.23,1.42-3.18,3-2.1,7.1-.94,10.63a.75.75,0,0,0,.39.48c1.47,5.12,5.19,9.58,8.83,13.51,1.39,1.5,2.84,3,4.38,4.36a28.87,28.87,0,0,0,7.62-2.42Z"/><path class="cls-6" d="M165.36,194.06l-3.33,9a3.6,3.6,0,0,0,.06,2.68l2,4.69a3.18,3.18,0,0,0,2.93,1.93h0l3.39-2.45a2.15,2.15,0,0,0,2.18-1.59l.65-2.34a2.3,2.3,0,0,0,0-1.3l-2.09-6.85.28-4.29Z"/><path class="cls-7" d="M171.12,197.84l.28-4.29-4.09.34c.06.84.15,1.66.26,2.47.46,3.21,1,6.26,1.14,9.41a10.77,10.77,0,0,0-.8,5.95l2.49-1.8a2.15,2.15,0,0,0,2.18-1.59l.65-2.34a2.3,2.3,0,0,0,0-1.3Z"/><path class="cls-3" d="M186.3,126.55s-17.92,36.19-25.6,66c0,0,2.74,4.5,14.26,3.11l14.17-42.78,7-12.17Z"/><path class="cls-10" d="M194.54,168.75c.28-5.47-.56-10.91-1.45-16.29-.28-1.67-.56-3.34-.83-5-.16-1-.31-2-.44-3s-.34-2-1.61-2.12a2.34,2.34,0,0,0-.38,0l-.11,0-.25.07-.11,0-.29.16h0a3.15,3.15,0,0,0-.3.24s0,0-.06.06a2.39,2.39,0,0,0-.23.22l-.06.07a5.69,5.69,0,0,0-.73,1.06c-.31.54-.56,1.08-.77,1.49-2.68,5.12-5,10.4-7.21,15.75-4.57,11.24-8.64,22.69-12.8,34.09a28,28,0,0,0,8.08.05l13.62-41.14,1,10.24-9.51,28.7a27.53,27.53,0,0,0,7.41.58C194.34,185,194.37,172.08,194.54,168.75Z"/><polygon class="cls-11" points="199.86 129.74 205.32 147.21 210.75 129.76 205.32 125.09 199.86 129.74"/><polygon class="cls-12" points="199.86 129.74 205.32 147.21 210.75 129.76 205.32 125.09 199.86 129.74"/><polygon class="cls-5" points="202.04 136.72 196.17 172.66 220.44 177.18 224.72 140.05 202.04 136.72"/><path class="cls-13" d="M196.17,172.66l24.26,4.52,4.29-37.13C213.66,148.58,202.73,157.32,196.17,172.66Z"/><path class="cls-6" d="M209.74,156.62s-11.1-5.84-14.8-1.51a2.56,2.56,0,0,0-.08,3.19c1.28,1.66,4.71,3.93,13.92,3.66Z"/><path class="cls-6" d="M206.71,156.07s-4.42-2.19-4.67-6.58l8.71,6.58-1.38,2.61Z"/><path class="cls-7" d="M208.78,162l.62-3.46a32.56,32.56,0,0,0-3.26-.37,37.68,37.68,0,0,1-6.51-1.19,14,14,0,0,1-4.35-2.18,3.76,3.76,0,0,0-.34.35,2.56,2.56,0,0,0-.08,3.19C196.14,160,199.57,162.23,208.78,162Z"/><path class="cls-3" d="M209.88,153.88s-2.2,5.75-1.65,10.42c0,0,19.61,6.06,30.39,4.57a5.17,5.17,0,0,0,4.42-4.18c.86-4.79-1-15.44-16.34-38.51l-2.85,20s4.11,8,2.55,8.3C223.79,155,218.64,155.44,209.88,153.88Z"/><path class="cls-10" d="M230.27,146.75c-1.23-2.28-5.3-6.34-5.56-6.58l-.86,6s4.11,8,2.55,8.3c-2.61.51-7.76.93-16.52-.63a30.94,30.94,0,0,0-1.48,5.73c2.65,1,6.28.58,8.72.34,2.09-.2,4.17-.5,6.27-.63s4.17.24,6.29.23c2.32,0,4-1.25,3.84-3.72C233.27,152.84,231.69,149.39,230.27,146.75Z"/><polygon class="cls-8" points="165.27 214.84 172.58 214.84 177.52 258.17 160.7 258.17 165.27 214.84"/><path class="cls-9" d="M166.17,258.17h11.35l-4.94-43.33h-4.27a21.11,21.11,0,0,0-.32,3.66c-.05,5.66.66,11.33.83,17a74.91,74.91,0,0,1-1,16.72A43.76,43.76,0,0,1,166.17,258.17Z"/><path class="cls-8" d="M168.56,204.33a1.64,1.64,0,0,0-1.64,1.65v8.86a1.65,1.65,0,1,0,3.29,0V206A1.65,1.65,0,0,0,168.56,204.33Z"/><path class="cls-8" d="M204.12,88.06s-1.37,7.82-14.67,15.77c0,0-4.66-11.1,3.7-19.61l11-2.74s20.57,4,12.61,19.61C216.73,101.09,205.08,96.56,204.12,88.06Z"/><path class="cls-9" d="M227.58,109.59c-2.48-24.35-13.61-29.86-20.05-31a29.57,29.57,0,0,1,7,8.67c2.79,5,5.94,10.4,6.35,16.19a23.73,23.73,0,0,1-1,8.37c-.64,2.25-1.83,4.93-1.48,7.32a4.48,4.48,0,0,0,.23.89,28.1,28.1,0,0,0,7-4.86A6.81,6.81,0,0,0,227.58,109.59Z"/><path class="cls-9" d="M199.75,122.34c-1.24-4.61-6.11-7.49-8.74-11.33a24.38,24.38,0,0,1-3.8-8.36c-.81-3.63.08-6.8.61-10.38a39.45,39.45,0,0,0,.42-5.6c-5.66,7.85-7.43,19.2-8,24.27a6.15,6.15,0,0,0,1.85,5.08c5.76,5.53,14.76,6.32,14.76,6.32Z"/><polygon class="cls-6" points="199.86 114.8 199.32 123.48 205.31 125.08 211.39 122.48 211.39 110.96 199.86 114.8"/><path class="cls-7" d="M203.62,113.55c-.5.64-4.47.83-3.76,1.25,4.08,2.38,6.21,9.48,6.23,10l5.3-2.27V111Z"/><path class="cls-6" d="M204.12,88.06s-1.29,7.35-13.5,15c.85,3.25,4.36,14,13.91,13.88,0,0,11.24-.68,12.2-15.9C216.73,101.09,205.08,96.56,204.12,88.06Z"/><path class="cls-7" d="M216.69,101.07h0l-.12,0,0,0-.59-.26-.05,0-.37-.18-.06,0-1.06-.53,0,0-.57-.31-.07,0c-.63-.36-1.32-.77-2-1.25l-.08-.05a26.81,26.81,0,0,1-2.16-1.61l-.1-.08c-.22-.19-.44-.38-.65-.58l-.05,0-.7-.67c.62,1.91,3.46,12.74-3.4,21.65a11.35,11.35,0,0,0,3.85-1.13c3.35-1.6,7.77-5.48,8.35-14.77Z"/><polygon class="cls-11" points="198.36 119.05 191.03 125.03 199.73 134.68 205.31 125.08 198.36 119.05"/><polygon class="cls-11" points="212.25 119.05 220.68 125.09 210.88 134.68 205.31 125.08 212.25 119.05"/><path class="cls-8" d="M367.11,307.57l8.52,13.08a2.06,2.06,0,0,1-.73,2.93l-1.64.89a4,4,0,0,1-4.54-.51l-11.06-9.76a3.42,3.42,0,0,1-.83-4l1.88-4.11Z"/><path class="cls-9" d="M367.33,318c-2.11-1.61-4.72-2.92-6.21-5.2a8.29,8.29,0,0,1-1.11-5,.89.89,0,0,0,.16-.25,9.45,9.45,0,0,0,.42-1.2l-1.88-.34-1.88,4.11a3.42,3.42,0,0,0,.83,4L368.72,324a4,4,0,0,0,4.54.51l1.64-.89a2.06,2.06,0,0,0,.73-2.93l-.13-.21c-.54.15-1.08.35-1.64.53C370.83,322,369.48,319.66,367.33,318Z"/><polygon class="cls-4" points="334.19 184.98 316.82 241.65 319.75 311.67 332.36 311.67 334.19 247.69 352.19 204.27 357.29 307.28 368.74 307.65 377.63 178.19 346.44 176.03 334.19 184.98"/><g class="cls-14"><path class="cls-4" d="M332.5,228.08c-4.78,9.51-7.45,20.21-6.74,30.83.22,3.32.76,6.61,1.16,9.91,1.69,14.22.58,28.58-.79,42.85h6.23l1.83-64,18-43.42v.13c0-.5.09-1,.13-1.5C344.59,210.21,337.29,218.57,332.5,228.08Z"/></g><path class="cls-15" d="M377.63,178.19l-7.16-.5c-2.36,15.88-1.64,32-1.92,48-.33,18.79-3.72,37.22-5.43,55.89-.46,5.11-.77,10.23-.78,15.36a51,51,0,0,0,.78,10.49l5.62.18Z"/><path class="cls-6" d="M384,197.33c-1.68-2.06-4-6.6,2.09-12l-4.77-4.95s-11.1,9.35-1.78,18.1a3.83,3.83,0,0,0,4,.76h0A1.15,1.15,0,0,0,384,197.33Z"/><g class="cls-16"><path class="cls-6" d="M386.12,185.29,383,182a3.71,3.71,0,0,0-1,1.18l.57-.9a14.35,14.35,0,0,0-3,8.43,9.58,9.58,0,0,0,2.94,7.57,8.16,8.16,0,0,0,1.25.86,1.15,1.15,0,0,0,.35-1.83C382.35,195.27,380.06,190.73,386.12,185.29Z"/></g><path class="cls-5" d="M332.73,113l-11,3.29L307,131.79v20.84l21.66-15.54,2.54,10a47.84,47.84,0,0,1-.06,23.83l-.73,2.82a8.57,8.57,0,0,0,1,6.68l2.82,4.55s24.86,3.11,42-2.37l3.27-7a6,6,0,0,0,.62-5.84c-2.65-6.05-8.33-17.55-5-31.18l10.26,13.82a6.36,6.36,0,0,1,.33,5.76c-2.46,5.61-7.68,17.85-9.48,24.47,0,0,6.59,5.48,12.25,4.93,0,0,6.58-14.6,13.88-30.58a7.21,7.21,0,0,0-.22-6.43c-4.64-8.59-17.74-31.93-25.91-37.57l-9.68-.92-14.61.4-2.4,3.49-2.24-3.37Z"/><path class="cls-13" d="M371.94,130.91c-.76.62-6.24,10.42-3.72,23.34a26.53,26.53,0,0,0,1.49,5.49,8.42,8.42,0,0,1,.37,5.92,7.7,7.7,0,0,0-.14,3.87c.56,1.89,1.93,3.14,2,5.24.05,3.14-1.39,6.12-1.24,9.28a55.3,55.3,0,0,0,5.57-1.44,25.94,25.94,0,0,0,2.42,1.72c2.43,1.56,4.73-15.12,12-31.09C391.62,151.18,374.89,128.49,371.94,130.91Zm13.77,27.22c-1.29,3-3.35,7.75-5.28,12.59a7,7,0,0,0-.31-1c-2.65-6.05-8.33-17.55-5-31.18l10.26,13.82A6.34,6.34,0,0,1,385.71,158.13Z"/><path class="cls-13" d="M343,181.85c-1.24-3.3-4.9-6.54-4.47-10.19.18-1.58,1-3,1.14-4.61a13.72,13.72,0,0,0-.24-3.94,44.69,44.69,0,0,1-.22-11.67,27.41,27.41,0,0,0-.6-10.05,68.58,68.58,0,0,0-3.51-8.62c-1-2.26-1.23-5-4.08-5.33-3.29-.35-6.68,1.2-9.26,3.08-2.87,2.1-5.18,4.84-7.84,7.18-2,1.76-4.38,3.17-6.52,4.8a.41.41,0,0,0-.49-.37v10.5l21.66-15.54,2.54,10a47.84,47.84,0,0,1-.06,23.83l-.73,2.82a8.57,8.57,0,0,0,1,6.68l2.82,4.55s3.86.49,9.6.73A11.32,11.32,0,0,0,343,181.85Z"/><path class="cls-8" d="M330.44,311.67a15.91,15.91,0,0,1,1.75,4.15,2.9,2.9,0,0,1-2.08,3.23A151.8,151.8,0,0,1,311,323.21a2.92,2.92,0,0,1-3.26-2.86,2,2,0,0,1,.66-1.73,5.46,5.46,0,0,1,1.49-1.08l11.5-5.87Z"/><path class="cls-9" d="M330.44,311.67h-2.73a6.75,6.75,0,0,1-1.77,4.09c-3.31,3.27-8.93,3.8-13.31,4a27.3,27.3,0,0,0-4.86.28c0,.1,0,.21,0,.33a2.92,2.92,0,0,0,3.26,2.86,151.8,151.8,0,0,0,19.09-4.16,2.9,2.9,0,0,0,2.08-3.23A15.91,15.91,0,0,0,330.44,311.67Z"/><rect class="cls-8" x="198.28" y="259.75" width="109.3" height="2.19" transform="translate(-23.9 496.18) rotate(-86.25)"/><rect class="cls-8" x="237.1" y="259.75" width="109.3" height="2.19" transform="translate(12.38 534.92) rotate(-86.25)"/><rect class="cls-8" x="310.24" y="194.81" width="2.19" height="109.3" transform="translate(-15.61 20.84) rotate(-3.74)"/><rect class="cls-8" x="272.4" y="194.81" width="2.19" height="109.3" transform="translate(-15.69 18.37) rotate(-3.74)"/><polygon class="cls-8" points="253.75 114.97 307.76 115.47 315.36 204.31 257.96 201.16 253.75 114.97"/><polygon class="cls-11" points="253.75 114.42 307.76 114.92 304.94 213.09 247.54 209.94 253.75 114.42"/><rect class="cls-5" x="263.79" y="164.58" width="69.31" height="4.56" transform="translate(121.35 459.35) rotate(-88.01)"/><rect class="cls-5" x="255.67" y="164.3" width="69.31" height="4.56" transform="translate(113.79 450.97) rotate(-88.01)"/><rect class="cls-5" x="247.56" y="164.02" width="69.31" height="4.56" transform="translate(106.23 442.58) rotate(-88.01)"/><rect class="cls-5" x="239.44" y="163.74" width="69.31" height="4.56" transform="translate(98.69 434.2) rotate(-88.01)"/><rect class="cls-5" x="231.33" y="163.46" width="69.31" height="4.56" transform="translate(91.13 425.82) rotate(-88.01)"/><rect class="cls-5" x="223.21" y="163.18" width="69.31" height="4.55" transform="translate(83.57 417.43) rotate(-88.01)"/><rect class="cls-3" x="289.66" y="191.37" width="15.71" height="4.56" transform="translate(93.68 484.28) rotate(-88.01)"/><rect class="cls-3" x="267.37" y="176.42" width="45.07" height="4.56" transform="translate(101.28 462.24) rotate(-88.01)"/><rect class="cls-3" x="270.96" y="188.25" width="20.83" height="4.56" transform="translate(81.21 465.13) rotate(-88.01)"/><rect class="cls-3" x="256.17" y="181.06" width="34.66" height="4.56" transform="translate(80.8 450.32) rotate(-88.01)"/><rect class="cls-3" x="241.71" y="174.21" width="47.8" height="4.56" transform="translate(80.03 435.82) rotate(-88.01)"/><rect class="cls-3" x="230.46" y="170.68" width="54.29" height="4.55" transform="translate(75.82 424.42) rotate(-88.01)"/><path class="cls-12" d="M307.76,114.92l-2.82,98.17-57.4-3.15A296.77,296.77,0,0,1,307.76,114.92Z"/><polygon class="cls-6" points="341.94 102.81 341.36 110.35 350.48 117.75 357.41 111.04 358.27 94.17 341.94 102.81"/><path class="cls-7" d="M349,99.55a59.52,59.52,0,0,1-4.28,13.13.9.9,0,0,0-.4.09l6.14,5,6.93-6.71.86-16.87L349.11,99Z"/><path class="cls-6" d="M334.49,82.24s-3.61,23.18,11,24a3.54,3.54,0,0,0,.92-.06c2.59-.45,13.82-3.44,13.13-21,0,0-2-8.5-13.66-8C345.91,77.17,336.33,73.61,334.49,82.24Z"/><path class="cls-7" d="M347.35,106c3.63-.92,12.85-4.85,12.22-20.84,0,0-1.52-6.53-9.77-7.77C353,81.69,356.65,95.26,347.35,106Z"/><path class="cls-8" d="M364.4,95.49c.42-1.54,1.24-2.94,1.57-4.52a34.58,34.58,0,0,0,.87-10.82c-.52-5-2.68-10-6.78-13-5-3.65-11.58-3.22-17-.91-4.28,1.83-8.52,9.31-14.49,8.5a8.27,8.27,0,0,0,.85,5.08,6.11,6.11,0,0,0,4.43,3.74c2.37.37,4.56-.66,6.63-1.66,3.14-1.51,6.31-2.83,9.87-2.21,8,1.4,8,9.85,7.47,16.24-.18,2.23-.22,4.6,1.12,6.51,1.63,2.31,3.78,1.91,6.28,2.3A14.08,14.08,0,0,1,364.4,95.49Z"/><g class="cls-16"><path class="cls-8" d="M365.22,104.75c-.15-.32-.28-.64-.4-1a7.59,7.59,0,0,1-1.69-1.46,10.06,10.06,0,0,1-1.93-5c-.57-3.48-.43-7-.7-10.55s-1-7.13-3.1-10a8.71,8.71,0,0,0-3.14-2.74c-2.46-1.2-5.42-.8-8,.11s-5,2.27-7.65,3-5.69.73-7.87-.92a6.73,6.73,0,0,1-1.43-1.49c-.24,0-.49,0-.74,0a8.27,8.27,0,0,0,.85,5.08,6.11,6.11,0,0,0,4.43,3.74c2.37.37,4.56-.66,6.63-1.66,3.14-1.51,6.31-2.83,9.87-2.21,8,1.4,8,9.85,7.47,16.24-.18,2.23-.22,4.6,1.12,6.51C360.57,104.76,362.72,104.36,365.22,104.75Z"/></g><path class="cls-6" d="M288,113.51a5.16,5.16,0,0,0-9.77-.9c-1.58,3.64-2.74,8.3.7,9.91C284.83,125.3,288,114,288,114A3.56,3.56,0,0,0,288,113.51Z"/><path class="cls-7" d="M278.9,122.52C284.83,125.3,288,114,288,114a1.29,1.29,0,0,0,0-.19C285.67,114.84,283.5,120.08,278.9,122.52Z"/><path class="cls-6" d="M363.63,90.78c1.28-2.58.94-5.35-.76-6.19s-4.11.57-5.38,3.15-.94,5.35.76,6.19S362.35,93.36,363.63,90.78Z"/><path class="cls-7" d="M363.63,90.78c1.28-2.58.94-5.35-.76-6.19s-4.11.57-5.38,3.15-.94,5.35.76,6.19S362.35,93.36,363.63,90.78Z"/><polygon class="cls-11" points="344.09 119.07 349.54 136.54 354.98 119.08 349.54 114.42 344.09 119.07"/><polygon class="cls-12" points="344.09 119.07 349.54 136.54 354.98 119.08 349.54 114.42 344.09 119.07"/><polygon class="cls-11" points="340.5 106.92 332.09 110.76 341.13 122.92 349.54 114.42 340.5 106.92"/><polygon class="cls-11" points="358.59 106.92 367 110.76 357.95 122.92 349.54 114.42 358.59 106.92"/><path class="cls-8" d="M125.15,307.57a7.33,7.33,0,0,0-1.21,2.91,2.87,2.87,0,0,0,2.07,3.23,149.82,149.82,0,0,0,19,4.15,2.91,2.91,0,0,0,3.3-2.84c0-1.12-.3-2.18-1.41-2.45l-14.68-6.24Z"/><path class="cls-9" d="M129.69,308.78a7.26,7.26,0,0,1-.78-1.86l-3.76.65a7.33,7.33,0,0,0-1.21,2.91,2.87,2.87,0,0,0,2.07,3.23,149.82,149.82,0,0,0,19,4.15,2.91,2.91,0,0,0,3.3-2.84v-.16h0C140.5,315,131.3,311.44,129.69,308.78Z"/><path class="cls-4" d="M96.17,186.91s-7.86,40.4-8.77,54.3.91,66.36.91,66.36h11l6.3-62.56,10.52-43.47,8.41,106h10.6L138.22,241l-2.75-52.83Z"/><path class="cls-15" d="M127.37,248.39C126.65,238.25,126,228,124.72,218c-.58-4.41-2.36-15.82-8.62-16.41l8.41,106H130a34,34,0,0,0,.11-4C129.67,285.17,128.68,266.76,127.37,248.39Z"/><path class="cls-15" d="M87.4,241.21c-.92,13.89.91,66.36.91,66.36h5.74c.22-3.57-.41-7.37-.61-10.79-.32-5.67-.65-11.34-.88-17a282.32,282.32,0,0,1,.38-32.91,149.63,149.63,0,0,1,7-36c1.82-5.4,4.37-10.62,5.17-16.3a32.26,32.26,0,0,0,.19-7.34l-9.1-.3S88.31,227.31,87.4,241.21Z"/><path class="cls-8" d="M89.5,307.57,81,320.65a2.06,2.06,0,0,0,.73,2.93l1.64.89a4,4,0,0,0,4.54-.51L99,314.2a3.42,3.42,0,0,0,.83-4l-1.23-2.61Z"/><path class="cls-9" d="M98.55,307.57h-3.7a18.29,18.29,0,0,1-.88,2.65,24.16,24.16,0,0,1-4.06,6,31,31,0,0,1-8.59,7,2.82,2.82,0,0,0,.39.29l1.64.89a4,4,0,0,0,4.54-.51L99,314.2a3.42,3.42,0,0,0,.83-4Z"/><polygon class="cls-6" points="105.68 107.48 105.68 117.26 104.94 118.91 113.63 126.13 120.67 120.73 120.67 107.48 105.68 107.48"/><path class="cls-7" d="M105.68,117.26l-.74,1.65,8.69,7.22,1.45-1.11c-2.45-4.68-4.43-9.61-4.77-14.84a3.11,3.11,0,0,0,.77-2.7h-5.4Z"/><path class="cls-8" d="M106.22,95s-1.23-5.25.19-8.3a3.19,3.19,0,0,1,4.66-1.19c.85.56,2.45,1.14,5.37,1a7.5,7.5,0,0,0,4.56-2,2.65,2.65,0,0,1,1.3-.63,2.79,2.79,0,0,1,2.31.72c.67.59,1.83,1.35,2.68.55a1.49,1.49,0,0,0,.39-1.44c-.48-2-2.89-7.88-15-7.8,0,0-15.63.27-16.27,13.89s9.14,18.83,9.14,18.83S102,95.69,106.22,95Z"/><path class="cls-9" d="M127.68,83.66a7.58,7.58,0,0,0-1-2.37,10.33,10.33,0,0,1-3.1-1.16,5.65,5.65,0,0,0-4.25-.58c-.86.27-1.54.94-2.37,1.23-1.91.68-3.08.11-4.81-.39a7.26,7.26,0,0,0-5,.23c-3.51,1.45-5.52,4.81-6.19,8.43a30.8,30.8,0,0,0-.27,6.65c.06,1.56.2,3.31-.55,4.74a4,4,0,0,1-1.06,1.3,18.28,18.28,0,0,0,6.5,6.84S102,95.69,106.22,95c0,0-1.23-5.25.19-8.3a3.19,3.19,0,0,1,4.66-1.19c.85.56,2.45,1.14,5.37,1a7.5,7.5,0,0,0,4.56-2,2.65,2.65,0,0,1,1.3-.63,2.79,2.79,0,0,1,2.31.72c.67.59,1.83,1.35,2.68.55A1.49,1.49,0,0,0,127.68,83.66Z"/><path class="cls-5" d="M137.48,163.51l-2.08-35.24a5.2,5.2,0,0,0-3.62-4.64l-3.07-1-8.87,7.23-6.21-3.75-6.22,3.75-9.87-8-6.49,2.56s4.94,5.3,5.12,22.3V173.2l-2.71,6.66A6.7,6.7,0,0,0,95.94,188a11.65,11.65,0,0,0,4.25,1.65,30.39,30.39,0,0,0,8.11.48,23.55,23.55,0,0,1,5.5.23,27.49,27.49,0,0,0,8.52-.26,20.32,20.32,0,0,1,6,0,15.51,15.51,0,0,0,7.65-.65,5.24,5.24,0,0,0,3.3-5.57C138.76,180,138,172.78,137.48,163.51Z"/><path class="cls-13" d="M116.91,165.77a.5.5,0,0,0,.27-1,33.7,33.7,0,0,0-4-9.32c-2.42-3.82-6.11-6.54-8.51-10.32-2.68-4.19-10.43-16-10.83-15.07a55.05,55.05,0,0,1,2.31,16.59v20.57c1-.1,1.88-.2,2.74-.26C104.83,166.57,111,164.82,116.91,165.77Z"/><path class="cls-13" d="M139.25,183.83c-.49-3.84-1.28-11.05-1.77-20.32l-.81-13.84a2.78,2.78,0,0,0-3.62,2.93,38.45,38.45,0,0,0-.89,12.13c.26,4.75,1.37,11.06-1,15.4-1.78,3.23-5.26,5.13-7,8.4a4.06,4.06,0,0,0-.46,1.41,20.4,20.4,0,0,1,4.62.11,15.51,15.51,0,0,0,7.65-.65A5.24,5.24,0,0,0,139.25,183.83Z"/><path class="cls-13" d="M136.38,144.84l-1-16.57a5.2,5.2,0,0,0-3.62-4.64l-3.07-1-3.07,2.51c1.87,3,3.56,6,4,9.75a59.45,59.45,0,0,1,0,7.31c0,1.2-.12,2.41.78,3.33C132.07,147.34,134.67,146.22,136.38,144.84Z"/><path class="cls-13" d="M111.15,190.09a7,7,0,0,0,.77-5.93c-1.32-4.51-2.9-9.06-1.27-13.47a.84.84,0,0,0,.2-.08c2.06-1.16,1.34-3.46-.31-4.66-2.73-2-6.77-2.95-10.08-3.15a6.51,6.51,0,0,0-4.29,1v9.35l-2.71,6.66A6.7,6.7,0,0,0,95.94,188a11.65,11.65,0,0,0,4.25,1.65,30.39,30.39,0,0,0,8.11.48A24.64,24.64,0,0,1,111.15,190.09Z"/><polygon class="cls-8" points="121.67 163.15 129.99 132.71 169.84 130.21 159.24 161.59 122.23 164.88 121.67 163.15"/><polygon class="cls-8" points="103.03 158.67 121.67 163.15 130.84 155.65 103.03 158.67"/><polygon class="cls-8" points="103.03 158.67 103.03 161.59 122.23 164.88 121.67 163.15 103.03 158.67"/><polygon class="cls-9" points="121.67 163.15 169.84 130.21 159.24 161.59 122.23 164.88 121.67 163.15"/><path class="cls-6" d="M150.05,162.81a4.55,4.55,0,0,1-8.58,1.19c-1.54-3.15-2.74-7.21.22-8.77,5.12-2.69,8.41,7.18,8.41,7.18S150.09,162.56,150.05,162.81Z"/><path class="cls-7" d="M142.2,155a10.53,10.53,0,0,0,.83,2.66c.91,1.94,2.09,3.6,2.68,5.69a19.79,19.79,0,0,1,.61,3.14,4.41,4.41,0,0,0,3.73-3.69c0-.25,0-.4,0-.4S147,153.2,142.2,155Z"/><path class="cls-6" d="M114.42,162.88s11.21-3.12,15.89.35c1.72,1.29,1.23,4.33-.77,4.85-4.12,1.07-13.76,2.72-18.11-2.28Z"/><path class="cls-7" d="M129.54,168.08c2-.52,2.49-3.56.77-4.85-.18-.13-.36-.24-.55-.36-3.34,2.9-7.69,2.65-11.77,1.75a15.9,15.9,0,0,0-4.8-.53l-1.76,1.71C115.78,170.8,125.42,169.15,129.54,168.08Z"/><path class="cls-11" d="M88.67,160.59l7.5-10.71v-3.19c-.18-17-5.12-22.3-5.12-22.3s-8.18,6.71-17,32.51a48,48,0,0,1-2.89,6.57,5.59,5.59,0,0,0-.07,5.53s2,5.05,8.42,4.54a24,24,0,0,1,2.81-.11l32-4.07V160Z"/><path class="cls-12" d="M96.17,149.88v-3.19a55.05,55.05,0,0,0-2.31-16.59c-.91,2.18-.8,5.09-1.15,7.12-.78,4.55-3.11,8.66-5.76,12.37-2.13,3-4.88,5.94-5.33,9.75-.36,3.07.87,6.16,3.83,7.41,3.91,1.63,9.38.54,13.46.25,5.08-.37,10.35-1.7,15.48-1.47V160l-25.72.55Z"/><path class="cls-6" d="M124.61,84.55a2.79,2.79,0,0,0-2.31-.72,2.65,2.65,0,0,0-1.3.63,7.5,7.5,0,0,1-4.56,2c-2.92.15-4.52-.43-5.37-1a3.19,3.19,0,0,0-4.66,1.19c-1.42,3-.19,8.3-.19,8.3-4.08.71-.83,12.91-.64,13.59,2.93,1.8,10.92,6.51,13.81,6.06,2.24-.34,4.47-4.08,5.83-6.8a18.37,18.37,0,0,0,1.75-5.65,55.34,55.34,0,0,0-.23-16.75A2.68,2.68,0,0,1,124.61,84.55Z"/><path class="cls-7" d="M106.35,109l.36.22.35.21.28.17a53.59,53.59,0,0,0,9.52,4.63h0c-8.76-13.2-4.48-28.17-4.6-28.21L112.1,86l-.3-.12-.2-.09-.2-.09-.33-.2a3.19,3.19,0,0,0-4.66,1.19c-1.42,3-.19,8.3-.19,8.3-4.08.71-.83,12.91-.64,13.59l.53.32Z"/><path class="cls-6" d="M107,95.07c1.1,2.22.73,4.64-.83,5.41s-3.71-.4-4.81-2.62-.72-4.64.84-5.41S105.9,92.86,107,95.07Z"/><path class="cls-7" d="M107,95.07c1.1,2.22.73,4.64-.83,5.41s-3.71-.4-4.81-2.62-.72-4.64.84-5.41S105.9,92.86,107,95.07Z"/><polygon class="cls-11" points="96.41 120.92 104.94 115.43 113.63 126.13 105.22 133.17 96.41 120.92"/><polygon class="cls-11" points="130.84 120.92 122.31 115.43 113.63 126.13 122.04 132.62 130.84 120.92"/><path class="cls-3" d="M279.79,312.73c.4-10.05,5.51-21.44,13.38-24.22,5.83-2.06,10.86,1.31,11.16,7.48.32,6.81-3.89,12.76-8.33,17.5-1,1.08-12.85,12.4-13.61,11.22C280.42,321.62,279.61,317.31,279.79,312.73Z"/><path class="cls-3" d="M277.21,323.94c-.29-.17-.57-.34-.83-.51-4.89-3.11-12.07-9-9.57-15.55,3.65-9.61,14.69.17,17.75,13.63C286,327.83,280.71,326,277.21,323.94Z"/><path class="cls-3" d="M288.88,325.73l1-.12c5.73-.86,14.67-3.3,15.06-10.34.56-10.26-13.51-5.8-21.76,5.26C279.26,325.73,284.86,326.16,288.88,325.73Z"/><g class="cls-17"><path class="cls-18" d="M412,357.68,445.4,338.4a4.85,4.85,0,0,1,4.85,8.39l-33.42,19.27a4.84,4.84,0,1,1-4.84-8.38Z"/><path class="cls-19" d="M412,357.68,445.4,338.4a4.85,4.85,0,0,1,4.85,8.39l-33.42,19.27a4.84,4.84,0,1,1-4.84-8.38Z"/></g><g class="cls-17"><path class="cls-18" d="M2.56,74.63,35.35,55.72A4.75,4.75,0,0,1,40.1,64L7.31,82.86a4.75,4.75,0,0,1-4.75-8.23Z"/><path class="cls-20" d="M2.56,74.63,35.35,55.72A4.75,4.75,0,0,1,40.1,64L7.31,82.86a4.75,4.75,0,0,1-4.75-8.23Z"/></g><g class="cls-17"><path class="cls-18" d="M384.68,26,428.14.85a6.31,6.31,0,0,1,6.31,10.94L391,37a6.32,6.32,0,0,1-6.3-11Z"/><path class="cls-21" d="M384.68,26,428.14.85a6.31,6.31,0,0,1,6.31,10.94L391,37a6.32,6.32,0,0,1-6.3-11Z"/></g></g></g></g></svg>