<svg xmlns="http://www.w3.org/2000/svg" xmlns:xlink="http://www.w3.org/1999/xlink" width="754" height="680" viewBox="0 0 354.33 319.86"><defs><style>.cls-1{isolation:isolate;}.cls-2{fill:#f0f6ff;}.cls-3,.cls-8{fill:#c5d9ff;}.cls-3{opacity:0.31;}.cls-4{fill:#deeaff;}.cls-5{fill:url(#Безымянный_градиент_21);}.cls-6{fill:#243762;}.cls-7{fill:url(#Безымянный_градиент_14);}.cls-9{fill:#ecf1f7;}.cls-10,.cls-17,.cls-27{fill:#fff;}.cls-10{opacity:0.53;}.cls-11{fill:#00c3ff;}.cls-12{fill:#fe4c1c;}.cls-13{fill:#0b53c0;}.cls-14{fill:#af9cda;opacity:0.29;}.cls-15{fill:url(#Безымянный_градиент_14-2);}.cls-16{fill:url(#Безымянный_градиент_21-2);}.cls-18{fill:url(#Безымянный_градиент_14-3);}.cls-19,.cls-20,.cls-21,.cls-22,.cls-23,.cls-24,.cls-25,.cls-26,.cls-27,.cls-28,.cls-29,.cls-30,.cls-31{fill-rule:evenodd;}.cls-19{fill:url(#Безымянный_градиент_3);}.cls-20,.cls-32{fill:#42445d;}.cls-21{fill:url(#Безымянный_градиент_3-2);}.cls-22{fill:#ffcab8;}.cls-23,.cls-30{fill:#ffc3ab;}.cls-24{fill:#fd4b1b;}.cls-25{fill:#0a429f;}.cls-26{fill:#333242;}.cls-28{fill:url(#Безымянный_градиент_40);}.cls-29{fill:url(#Безымянный_градиент_40-2);}.cls-30{mix-blend-mode:multiply;}.cls-31{fill:url(#Безымянный_градиент_3-3);}.cls-33{fill:url(#Безымянный_градиент_40-3);}.cls-34{fill:url(#linear-gradient);}.cls-35{fill:url(#linear-gradient-2);}.cls-36,.cls-37,.cls-38,.cls-41{fill:none;stroke-miterlimit:10;stroke-width:0.5px;}.cls-36{stroke:url(#linear-gradient-3);}.cls-37{stroke-dasharray:3.02 3.02;stroke:url(#linear-gradient-4);}.cls-38{stroke:url(#linear-gradient-5);}.cls-39{fill:url(#linear-gradient-6);}.cls-40{fill:url(#linear-gradient-7);}.cls-41{stroke-dasharray:3;stroke:url(#linear-gradient-8);}</style><linearGradient id="Безымянный_градиент_21" x1="71.98" y1="96.6" x2="170.85" y2="96.6" gradientUnits="userSpaceOnUse"><stop offset="0" stop-color="#04dbf1"/><stop offset="1" stop-color="#0039e4"/></linearGradient><linearGradient id="Безымянный_градиент_14" x1="43.91" y1="160.05" x2="111.25" y2="160.05" gradientUnits="userSpaceOnUse"><stop offset="0" stop-color="#ff811b"/><stop offset="1" stop-color="#fd4b1c"/></linearGradient><linearGradient id="Безымянный_градиент_14-2" x1="224.62" y1="70.19" x2="245.19" y2="70.19" gradientTransform="translate(245.86 -174.73) rotate(75.92)" xlink:href="#Безымянный_градиент_14"/><linearGradient id="Безымянный_градиент_21-2" x1="256.8" y1="105.01" x2="328.97" y2="105.01" xlink:href="#Безымянный_градиент_21"/><linearGradient id="Безымянный_градиент_14-3" x1="316.38" y1="69.66" x2="339.46" y2="69.66" gradientTransform="translate(319.98 -265.49) rotate(76.65)" xlink:href="#Безымянный_градиент_14"/><linearGradient id="Безымянный_градиент_3" x1="71.66" y1="248.49" x2="44.65" y2="227.73" gradientUnits="userSpaceOnUse"><stop offset="0" stop-color="#fb6b14"/><stop offset="1" stop-color="#fdb522"/></linearGradient><linearGradient id="Безымянный_градиент_3-2" x1="71.77" y1="247.76" x2="44.98" y2="227.17" xlink:href="#Безымянный_градиент_3"/><linearGradient id="Безымянный_градиент_40" x1="18.86" y1="263.56" x2="69.61" y2="269.8" gradientUnits="userSpaceOnUse"><stop offset="0" stop-color="#eff6ff"/><stop offset="1" stop-color="#8aa8da"/></linearGradient><linearGradient id="Безымянный_градиент_40-2" x1="36.18" y1="265.64" x2="84.35" y2="271.57" xlink:href="#Безымянный_градиент_40"/><linearGradient id="Безымянный_градиент_3-3" x1="84.13" y1="231.07" x2="57.4" y2="210.53" xlink:href="#Безымянный_градиент_3"/><linearGradient id="Безымянный_градиент_40-3" x1="0.19" y1="233.66" x2="53.6" y2="240.22" xlink:href="#Безымянный_градиент_40"/><linearGradient id="linear-gradient" x1="395.54" y1="308.94" x2="402.09" y2="308.94" gradientTransform="translate(555.62 -222.89) rotate(115.25)" gradientUnits="userSpaceOnUse"><stop offset="0" stop-color="#3475f6"/><stop offset="1" stop-color="#1b5ee0"/></linearGradient><linearGradient id="linear-gradient-2" x1="1846.36" y1="309" x2="1852.9" y2="309" gradientTransform="matrix(0.43, -0.9, -0.9, -0.43, -406.14, 1816.7)" gradientUnits="userSpaceOnUse"><stop offset="0" stop-color="#acc6f9"/><stop offset="1" stop-color="#6f96e3"/></linearGradient><linearGradient id="linear-gradient-3" x1="97.9" y1="5.12" x2="-20.77" y2="59.62" gradientTransform="matrix(1, 0, 0, 1, 0, 0)" xlink:href="#linear-gradient-2"/><linearGradient id="linear-gradient-4" x1="107.63" y1="26.31" x2="-11.04" y2="80.82" gradientTransform="matrix(1, 0, 0, 1, 0, 0)" xlink:href="#linear-gradient-2"/><linearGradient id="linear-gradient-5" x1="125.59" y1="65.41" x2="6.92" y2="119.92" gradientTransform="matrix(1, 0, 0, 1, 0, 0)" xlink:href="#linear-gradient-2"/><linearGradient id="linear-gradient-6" x1="440.01" y1="-195.95" x2="446.45" y2="-195.95" gradientTransform="translate(-109 79.02) rotate(50.77)" xlink:href="#linear-gradient"/><linearGradient id="linear-gradient-7" x1="1794.02" y1="-201.88" x2="1800.46" y2="-201.88" gradientTransform="matrix(-0.6, -0.8, -0.8, 0.6, 1240.93, 1864.12)" xlink:href="#linear-gradient-2"/><linearGradient id="linear-gradient-8" x1="155.74" y1="305.89" x2="320.17" y2="305.89" gradientTransform="matrix(1, 0, 0, 1, 0, 0)" xlink:href="#linear-gradient-2"/></defs><g class="cls-1"><g id="Слой_2" data-name="Слой 2"><g id="OBJECTS"><path class="cls-2" d="M337.52,204.6A93.77,93.77,0,0,0,294.81,121a19.85,19.85,0,0,1-8.9-14.48c0-.32-.07-.64-.11-1-4.89-39.15-41.49-66.66-80.47-61.36C168.05,49.32,141.2,69,145.17,107c0,.18,0,.44.06.77A18.12,18.12,0,0,1,127.48,127q-3.26.08-6.54.42A81.09,81.09,0,0,0,74.8,267.88H306.68C324.3,251,336.49,227.62,337.52,204.6Z"/><path class="cls-3" d="M69.67,68.45a4.7,4.7,0,1,1-4.7-4.7A4.69,4.69,0,0,1,69.67,68.45Z"/><circle class="cls-3" cx="303.85" cy="35.23" r="9.4"/><path class="cls-3" d="M354.33,126.83a6.4,6.4,0,1,1-6.4-6.39A6.4,6.4,0,0,1,354.33,126.83Z"/><path class="cls-4" d="M316.26,213.91a80,80,0,0,0-36.43-71.26,16.93,16.93,0,0,1-7.58-12.35c0-.27-.07-.54-.1-.82C268,96.09,236.77,72.63,203.52,77.15c-31.8,4.33-54.69,21.13-51.31,53.49,0,.15,0,.38.06.66a15.46,15.46,0,0,1-15.14,16.44c-1.85,0-3.71.16-5.58.35A69.17,69.17,0,0,0,92.2,267.88H290C305,253.5,315.38,233.54,316.26,213.91Z"/><path class="cls-5" d="M150.65,129.92l-3.89-6.06a37.16,37.16,0,0,0,9-13l7,1.54a6.61,6.61,0,1,0,2.82-12.92l-7-1.54a37,37,0,0,0-2.8-15.56l6.07-3.9a6.6,6.6,0,0,0,2-9.13h0a6.62,6.62,0,0,0-9.14-2l-6.07,3.9a36.9,36.9,0,0,0-13-9l1.54-7a6.61,6.61,0,1,0-12.92-2.82l-1.54,7a37.18,37.18,0,0,0-15.57,2.8l-3.89-6.07a6.61,6.61,0,0,0-9.13-2h0a6.62,6.62,0,0,0-2,9.14l3.89,6.07a37,37,0,0,0-9,13l-7-1.54A6.61,6.61,0,0,0,77.18,93.7l7,1.54A37,37,0,0,0,87,110.81L81,114.7a6.61,6.61,0,0,0-2,9.14h0a6.62,6.62,0,0,0,9.14,2l6.07-3.89a37,37,0,0,0,13,9l-1.54,7a6.61,6.61,0,1,0,12.92,2.82l1.54-7A37,37,0,0,0,135.63,131l3.89,6.06a6.6,6.6,0,0,0,9.13,2h0A6.61,6.61,0,0,0,150.65,129.92ZM98.74,111.14A26.94,26.94,0,1,1,136,119.27,26.95,26.95,0,0,1,98.74,111.14Z"/><path class="cls-6" d="M98.74,111.64a.51.51,0,0,1-.42-.23A27.44,27.44,0,0,1,106.6,73.5a.5.5,0,0,1,.54.84,26.46,26.46,0,0,0-8,36.53.5.5,0,0,1-.15.69A.45.45,0,0,1,98.74,111.64ZM87,111.31a.51.51,0,0,1-.47-.31,37.44,37.44,0,0,1-2.84-15.36l-6.64-1.45a7.11,7.11,0,0,1-2.32-12.93,7,7,0,0,1,5.36-1l6.63,1.44a37.29,37.29,0,0,1,8.69-12.48l-3.67-5.72a7.11,7.11,0,1,1,12-7.68l3.67,5.72a37.24,37.24,0,0,1,15-2.69l1.45-6.64a7.11,7.11,0,1,1,13.9,3l-1.54,7a.5.5,0,0,1-.6.38.49.49,0,0,1-.38-.59l1.54-7a6.11,6.11,0,1,0-11.94-2.6l-1.63,7.45-.42,0a36.34,36.34,0,0,0-15.35,2.76l-.39.16-4.12-6.42A6.11,6.11,0,0,0,92.6,63l4.12,6.42-.31.29a36.22,36.22,0,0,0-8.9,12.8l-.17.39-7.45-1.63a6.11,6.11,0,0,0-2.61,11.94l7.46,1.63,0,.42a36.23,36.23,0,0,0,2.76,15.36.51.51,0,0,1-.27.65A.43.43,0,0,1,87,111.31Z"/><path class="cls-7" d="M105.17,172.33,101,169.69a25.28,25.28,0,0,0,1.89-10.61l4.79-1.06a4.51,4.51,0,1,0-1.94-8.8L101,150.28a25.19,25.19,0,0,0-6.17-8.83l2.64-4.14a4.5,4.5,0,0,0-1.37-6.22h0a4.5,4.5,0,0,0-6.22,1.37l-2.64,4.14a25.28,25.28,0,0,0-10.61-1.89l-1.06-4.79a4.5,4.5,0,1,0-8.79,1.94l1,4.79A25.28,25.28,0,0,0,59,142.82l-4.14-2.64a4.5,4.5,0,0,0-6.22,1.37h0A4.5,4.5,0,0,0,50,147.77l4.14,2.64A25.27,25.27,0,0,0,52.25,161l-4.8,1.06a4.5,4.5,0,1,0,1.94,8.79l4.79-1.05a25.41,25.41,0,0,0,6.17,8.83l-2.64,4.14A4.5,4.5,0,0,0,59.08,189h0a4.5,4.5,0,0,0,6.22-1.37l2.64-4.14a25.27,25.27,0,0,0,10.61,1.88l1.06,4.8a4.51,4.51,0,0,0,8.8-1.94l-1.06-4.79a25.32,25.32,0,0,0,8.83-6.17l4.14,2.64a4.5,4.5,0,0,0,6.22-1.37h0A4.5,4.5,0,0,0,105.17,172.33ZM67.7,175.51a18.35,18.35,0,1,1,25.35-5.58A18.34,18.34,0,0,1,67.7,175.51Z"/><path class="cls-8" d="M73,116.92l-3.3-2.11a20.08,20.08,0,0,0,1.51-8.46l3.82-.84a3.59,3.59,0,0,0-1.54-7l-3.83.84a20.05,20.05,0,0,0-4.92-7L66.85,89a3.59,3.59,0,0,0-1.09-5h0a3.6,3.6,0,0,0-5,1.09l-2.11,3.3a20,20,0,0,0-8.46-1.5l-.84-3.83a3.59,3.59,0,0,0-7,1.55l.85,3.82a20.22,20.22,0,0,0-7.05,4.92l-3.3-2.11a3.6,3.6,0,0,0-5,1.1h0a3.59,3.59,0,0,0,1.09,5l3.3,2.11a20.23,20.23,0,0,0-1.5,8.46l-3.83.84a3.59,3.59,0,0,0,1.55,7l3.83-.84a20,20,0,0,0,4.92,7l-2.11,3.3a3.59,3.59,0,0,0,1.09,5h0a3.59,3.59,0,0,0,5-1.09l2.11-3.3a20.07,20.07,0,0,0,8.46,1.5l.85,3.83a3.59,3.59,0,0,0,7-1.55l-.84-3.82a20.09,20.09,0,0,0,7-4.92L69.14,123a3.6,3.6,0,0,0,5-1.1h0A3.58,3.58,0,0,0,73,116.92Zm-29.88,2.54A14.64,14.64,0,1,1,63.33,115,14.65,14.65,0,0,1,43.12,119.46Z"/><rect class="cls-9" x="81.57" y="108.12" width="211.31" height="136.14" rx="6.77"/><path class="cls-10" d="M275.2,244.27H100.46a6.2,6.2,0,0,1-6-6.39V122.21a6.2,6.2,0,0,1,6-6.39H275.2a6.2,6.2,0,0,1,6,6.39V237.88A6.2,6.2,0,0,1,275.2,244.27Z"/><path class="cls-11" d="M248.3,143.83H124.49c-2.26,0-4.09-.23-4.09-.51v-6.58a8.31,8.31,0,0,1,5.09-2.51H248.3c2.25,0,4.08,3.23,4.08,3.51v5.58C252.38,143.6,250.55,143.83,248.3,143.83Z"/><path class="cls-6" d="M248.3,210.93H124.49a4.59,4.59,0,0,1-4.59-4.58v-68a4.59,4.59,0,0,1,4.59-4.58H248.3a4.59,4.59,0,0,1,4.58,4.58v68A4.58,4.58,0,0,1,248.3,210.93Zm-123.81-76.2a3.59,3.59,0,0,0-3.59,3.58v68a3.58,3.58,0,0,0,3.59,3.58H248.3a3.58,3.58,0,0,0,3.58-3.58v-68a3.59,3.59,0,0,0-3.58-3.58Z"/><path class="cls-6" d="M252.38,144.33H125.51a.5.5,0,0,1,0-1H252.38a.5.5,0,0,1,0,1Z"/><path class="cls-9" d="M126.3,141.32a1.48,1.48,0,1,1,1.48-1.47A1.47,1.47,0,0,1,126.3,141.32Zm0-2.45a1,1,0,1,0,1,1A1,1,0,0,0,126.3,138.87Z"/><path class="cls-9" d="M130.75,141.32a1.48,1.48,0,1,1,1.47-1.47A1.47,1.47,0,0,1,130.75,141.32Zm0-2.45a1,1,0,1,0,0,1.95,1,1,0,0,0,0-1.95Z"/><path class="cls-9" d="M135,141.32a1.48,1.48,0,1,1,1.47-1.47A1.47,1.47,0,0,1,135,141.32Zm0-2.45a1,1,0,1,0,0,1.95,1,1,0,0,0,0-1.95Z"/><path class="cls-6" d="M238.39,157.35H170.25a.51.51,0,0,1-.5-.5.5.5,0,0,1,.5-.5h68.14a.5.5,0,0,1,.5.5A.51.51,0,0,1,238.39,157.35Z"/><path class="cls-6" d="M238.39,173.89H170.25a.51.51,0,0,1-.5-.5.5.5,0,0,1,.5-.5h68.14a.5.5,0,0,1,.5.5A.51.51,0,0,1,238.39,173.89Z"/><path class="cls-6" d="M238.39,191.36H170.25a.51.51,0,0,1-.5-.5.5.5,0,0,1,.5-.5h68.14a.5.5,0,0,1,.5.5A.51.51,0,0,1,238.39,191.36Z"/><path class="cls-6" d="M200.21,165.06h-30a.5.5,0,0,1-.5-.5.51.51,0,0,1,.5-.5h30a.51.51,0,0,1,.5.5A.5.5,0,0,1,200.21,165.06Z"/><path class="cls-6" d="M238.39,165.06h-30a.5.5,0,0,1-.5-.5.51.51,0,0,1,.5-.5h30a.51.51,0,0,1,.5.5A.5.5,0,0,1,238.39,165.06Z"/><path class="cls-6" d="M200.21,182.54h-30a.51.51,0,0,1-.5-.5.5.5,0,0,1,.5-.5h30a.5.5,0,0,1,.5.5A.51.51,0,0,1,200.21,182.54Z"/><path class="cls-6" d="M238.39,182.54h-30a.51.51,0,0,1-.5-.5.5.5,0,0,1,.5-.5h30a.5.5,0,0,1,.5.5A.51.51,0,0,1,238.39,182.54Z"/><circle class="cls-12" cx="146.27" cy="172.6" r="15.52"/><circle class="cls-9" cx="146.27" cy="172.6" r="9.65"/><path class="cls-12" d="M151.35,172.6a5.09,5.09,0,1,1-5.09-5.09A5.09,5.09,0,0,1,151.35,172.6Z"/><path class="cls-9" d="M146.26,175.07a2.47,2.47,0,1,1,2.48-2.47A2.48,2.48,0,0,1,146.26,175.07Zm0-3.94a1.47,1.47,0,1,0,1.48,1.47A1.47,1.47,0,0,0,146.26,171.13Z"/><path class="cls-6" d="M146.26,173.1a.49.49,0,0,1-.32-.12.51.51,0,0,1-.05-.71l13.35-15.51a.49.49,0,0,1,.7-.06.51.51,0,0,1,.06.71l-13.36,15.52A.5.5,0,0,1,146.26,173.1Z"/><path class="cls-6" d="M154.62,162.89l1-5.07a.5.5,0,0,1,1,.2l-.67,3.32,3.49-1.29a.5.5,0,1,1,.35.94Z"/><path class="cls-6" d="M157.26,160l.76-3.76a.49.49,0,0,1,.58-.39.51.51,0,0,1,.4.59l-.41,2,2.13-.78a.5.5,0,0,1,.65.29.52.52,0,0,1-.3.65Z"/><path class="cls-13" d="M81.57,225.64v11.85a6.79,6.79,0,0,0,6.78,6.78h78.22v8.07A11.87,11.87,0,0,1,159.92,263l-7.66,3.75h68.92l-8.65-4.24a10.09,10.09,0,0,1-5.66-9.06v-9.18h79.24a6.78,6.78,0,0,0,6.77-6.78V225.64Z"/><polygon class="cls-14" points="206.87 244.27 166.57 252.34 166.57 244.27 206.87 244.27 206.87 244.27"/><path class="cls-9" d="M186.72,238.67a4.25,4.25,0,1,1,4.25-4.25A4.25,4.25,0,0,1,186.72,238.67Zm0-7.74a3.5,3.5,0,1,0,3.5,3.49A3.49,3.49,0,0,0,186.72,230.93Z"/><path class="cls-9" d="M186.72,240.45a6,6,0,1,1,6-6A6,6,0,0,1,186.72,240.45Zm0-11.3a5.28,5.28,0,1,0,5.28,5.27A5.27,5.27,0,0,0,186.72,229.15Z"/><path class="cls-6" d="M323.83,268.77H49.58a.89.89,0,0,1,0-1.77H323.83a.89.89,0,0,1,0,1.77Z"/><path class="cls-6" d="M274.8,97.43H194.22c-2.33,0-4.22-1.51-4.22-3.36V40.56c0-1.85,1.89-3.36,4.22-3.36H274.8c2.33,0,4.23,1.51,4.23,3.36V94.07C279,95.92,277.13,97.43,274.8,97.43ZM194.22,38.2c-1.78,0-3.22,1.06-3.22,2.36V94.07c0,1.3,1.44,2.36,3.22,2.36H274.8c1.78,0,3.23-1.06,3.23-2.36V40.56c0-1.3-1.45-2.36-3.23-2.36Z"/><circle class="cls-15" cx="234.9" cy="70.19" r="10.29" transform="translate(109.69 280.97) rotate(-75.92)"/><path class="cls-6" d="M234.9,84.82a14.63,14.63,0,1,1,14.63-14.63A14.65,14.65,0,0,1,234.9,84.82Zm0-28.26a13.63,13.63,0,1,0,13.63,13.63A13.65,13.65,0,0,0,234.9,56.56Z"/><path class="cls-6" d="M233.73,74.23l-4.83-6.67a.5.5,0,0,1,.82-.58l4.13,5.71L252,54.51a.5.5,0,0,1,.71.71Z"/><rect class="cls-6" x="190.5" y="48.11" width="87.5" height="1"/><path class="cls-6" d="M196.85,45.53a1.89,1.89,0,1,1,1.88-1.89A1.89,1.89,0,0,1,196.85,45.53Zm0-2.77a.89.89,0,1,0,.88.88A.88.88,0,0,0,196.85,42.76Z"/><path class="cls-6" d="M202,45.53a1.89,1.89,0,1,1,1.89-1.89A1.89,1.89,0,0,1,202,45.53Zm0-2.77a.89.89,0,0,0,0,1.77.89.89,0,1,0,0-1.77Z"/><path class="cls-6" d="M207.14,45.53A1.89,1.89,0,1,1,209,43.64,1.89,1.89,0,0,1,207.14,45.53Zm0-2.77a.89.89,0,1,0,.88.88A.89.89,0,0,0,207.14,42.76Z"/><path class="cls-16" d="M260.28,66h66.57A2.12,2.12,0,0,1,329,68.13V117a3.75,3.75,0,0,1-3.75,3.75H299.53a1.1,1.1,0,0,0-.78.34l-21.35,22.6a1.08,1.08,0,0,1-1.86-.81v-21a1.13,1.13,0,0,0-1.09-1.16H260.28A3.59,3.59,0,0,1,256.8,117V69.7A3.59,3.59,0,0,1,260.28,66Z"/><path class="cls-6" d="M276,121.88h-1a.63.63,0,0,0-.59-.66H260.28a4.09,4.09,0,0,1-4-4.19V69.7a4.09,4.09,0,0,1,4-4.19h52.85v1H260.28a3.09,3.09,0,0,0-3,3.19V117a3.09,3.09,0,0,0,3,3.19h14.17A1.63,1.63,0,0,1,276,121.88Z"/><path class="cls-17" d="M319,82.4H269.34a.38.38,0,1,1,0-.75H319a.38.38,0,1,1,0,.75Z"/><path class="cls-17" d="M319,93.54H296.64a.38.38,0,0,1,0-.75H319a.38.38,0,1,1,0,.75Z"/><path class="cls-17" d="M292.34,93.54H270a.38.38,0,0,1,0-.75h22.32a.38.38,0,1,1,0,.75Z"/><path class="cls-17" d="M305.22,103.63H271.81a.38.38,0,0,1,0-.75h33.41a.38.38,0,1,1,0,.75Z"/><circle class="cls-18" cx="327.92" cy="69.66" r="11.54" transform="translate(184.43 372.63) rotate(-76.65)"/><path class="cls-6" d="M328.07,85.17a.5.5,0,0,1-.5-.5.5.5,0,0,1,.5-.5A14.66,14.66,0,1,0,313.4,69.51a.5.5,0,0,1-.5.5.5.5,0,0,1-.5-.5,15.67,15.67,0,1,1,15.67,15.66Z"/><path class="cls-17" d="M327.76,75.93a1.55,1.55,0,0,1-1.1-.4,1.3,1.3,0,0,1-.43-1,1.24,1.24,0,0,1,.44-1,1.56,1.56,0,0,1,1.09-.38,1.52,1.52,0,0,1,1.08.38,1.25,1.25,0,0,1,.43,1,1.29,1.29,0,0,1-.42,1A1.53,1.53,0,0,1,327.76,75.93ZM329.07,65l-.23,6A1.1,1.1,0,0,1,327.73,72h0a1.1,1.1,0,0,1-1.1-1.06l-.22-6a1.1,1.1,0,0,1,1.1-1.15H328A1.1,1.1,0,0,1,329.07,65Z"/><path class="cls-19" d="M51,218.83c-6.38,1.79-9.75,11.68-12.68,17.52,0,0,2,4.2,9.28,4.74,0,0,7.52-12.35,7.57-15.47S52.25,218.47,51,218.83Z"/><path class="cls-20" d="M51,218.83a9.2,9.2,0,0,0-1.08.39,2.24,2.24,0,0,1,.33,1.27c-.11,6.64-4.35,13.29-9.36,18.51a13.72,13.72,0,0,0,6.71,2.09s7.52-12.35,7.57-15.47S52.25,218.47,51,218.83Z"/><path class="cls-21" d="M48.29,220.06c-2,1.37-.16,24.51-2,28.13-3,5.73-6.56,12.65-6.56,12.65,7.72,4.68,37.37,4.66,37.37,4.66A111.63,111.63,0,0,0,80,251c1.46-10.52,2-33.41,1.39-33.57C68.88,214,51.75,217.65,48.29,220.06Z"/><path class="cls-22" d="M69.1,203.69,59.26,210c.19.44.73,4.34,0,6.21-.62,1.6-1.22,4,2.25,4.8,3.24.72,9.25-2.34,8.45-5.09C68.56,211.09,69.1,203.69,69.1,203.69Z"/><path class="cls-23" d="M69.1,203.69,59.26,210c.19.44.73,4.34,0,6.21-.1.26-.19.53-.27.82a8,8,0,0,0,3.43-1.44c1.75-1.26,3.71-.58,5.08,1.17a3.71,3.71,0,0,1,.71,2.38c1.27-1,2.07-2.11,1.75-3.22C68.56,211.09,69.1,203.69,69.1,203.69Z"/><path class="cls-24" d="M79.74,217c-3.83-.57-10.49,5.68-10.83,15.59a23.78,23.78,0,0,1-3,10.14c-1.21,2.32-6.12,4.24-8.24,5s-2.4,1.71-1.17,2.38,10.92,2.29,9.73,3.81-13.09,4.32-10.93,9.56c1,2.54,19,.72,22.28,0,1.09-2.06,1.22-7,1.93-10.15,1.48-6.46,1-20.29,1.9-27.67C81.94,220.69,83.94,217.63,79.74,217Z"/><path class="cls-25" d="M40,270.74c-.54.06-8.22-.5-11.29-.13s-4.32.44-6.14,2.54-1.19,5.66-.24,8.2,2.27,2.57,4.65,1.87,5-2.63,7.41-2.88,3,.2,4.71-.31,2,.07,1.85-1.2S40,270.74,40,270.74Z"/><path class="cls-26" d="M40,270.74c-.54.06-8.22-.5-11.29-.13s-4.32.44-6.14,2.54a5.83,5.83,0,0,0-1.14,4.3,10.35,10.35,0,0,0,5.27-.07c1.57-.34,3.24-1,4.87-.66a6.25,6.25,0,0,1,4.48,3.54,8.6,8.6,0,0,0,3-.23c1.7-.51,2,.07,1.85-1.2S40,270.74,40,270.74Z"/><path class="cls-27" d="M26,271.54c1-.7,2.43-.78,4.12-1-.54,0-1,.05-1.42.1-3.08.37-4.32.44-6.14,2.54s-1.19,5.66-.24,8.2c.86,2.29,2,2.54,4,2C23.12,280.63,21.94,274.31,26,271.54Z"/><path class="cls-25" d="M81.28,271c-1.77-.29-7.64-.24-12.13-.91l-4.88,7.11c-.12.17,3.57,2.24,5.09,3.46s7.57,3.33,9.25,3S83.39,276.47,84,274,83,271.26,81.28,271Z"/><path class="cls-26" d="M81.28,271c-1.77-.29-7.64-.24-12.13-.91l-4.81,7c2.08,0,4.08-1.09,6.21-.75,1.06.18,2.32,1.62,5.42,1.24,1.89-.24,1.53,3-.1,4.63a5.29,5.29,0,0,1-1.07.81,10.72,10.72,0,0,0,3.81.65c1.68-.33,4.78-7.18,5.41-9.64S83,271.26,81.28,271Z"/><path class="cls-28" d="M24.94,255.32c-4.31.92-6,4.31-6,8.07a6.25,6.25,0,0,0,4.35,5.43c2.42.76,39.93,9.56,41,9.83s5.54-10.94,5.54-10.94C68.51,267.22,33.08,253.56,24.94,255.32Z"/><path class="cls-26" d="M48.71,192.27a6.09,6.09,0,0,0-1.91,3.57c-.22,2.11,2.1,5.46,2.1,5.46s2.18-5.72,1.87-7.36C50.71,193.61,48.71,192.27,48.71,192.27Z"/><path class="cls-27" d="M58.86,217.46l.25-1s-1.85-.08-2.17,2.35A11.24,11.24,0,0,0,58.4,226c.33-2.18,3.44-5,3.44-5A4.65,4.65,0,0,1,58.86,217.46Z"/><path class="cls-22" d="M72.55,200.21c-1-1.89-2.78-.32-2.78-.32a13.55,13.55,0,0,0-3.73-8c-3.34-3.15-6.71-1.82-12.71,0s-4.84,3.77-4.84,3.77a87.05,87.05,0,0,0,1.13,10.19c.37,2.12,2.69,5,5.16,8.15s5.76,1.34,10.12-1.29S69,207.51,69,207c0,0,.74.36,2.12-.67a5.3,5.3,0,0,0,1.53-5.95Z"/><path class="cls-23" d="M72.55,200.21c-1-1.89-2.78-.32-2.78-.32a13.55,13.55,0,0,0-3.73-8c-.76-.72-4.63.61-4.14,2.68.54,2.3,2.36,3.88,2.72,6.06.41,2.52,1,7.2-.43,9.32-2.14,3.06-5.85,5.51-9.53,3.9l.12.15c2.39,3,5.76,1.34,10.12-1.29S69,207.51,69,207c0,0,.74.36,2.12-.67a5.3,5.3,0,0,0,1.53-5.95Z"/><path class="cls-20" d="M48.06,191.23c-.76,1.63-1.51,7,2.79,8.19,4.74,1.33,13.11-4.84,15-1.27,1.52,2.92-.29,4.86,1.06,6a1.2,1.2,0,0,0,2-.41c.12-.28,0-2.44.93-3.86a2.69,2.69,0,0,1,1.5-.61,11.67,11.67,0,0,0-.4-6.69C66.3,181.55,51.26,184.32,48.06,191.23Z"/><path class="cls-26" d="M61.13,185.27c3.05,2.21-.86,7.37,2.18,9.9,2.7,2.25,3.92,2.94,3.87,4.65a41.07,41.07,0,0,1-.52,4.12,1.45,1.45,0,0,0,.21.22,1.2,1.2,0,0,0,2-.41c.12-.28,0-2.44.93-3.86a2.69,2.69,0,0,1,1.5-.61,11.35,11.35,0,0,0-10.14-14Z"/><path class="cls-29" d="M82.1,256.24c-4.3-2.6-12.07.58-20.7,3.38-6.76,2.2-25.51,8.81-25.51,8.81s-1.89,8.19,3.25,13.18c0,0,25.89-6.39,42.56-13.72a5.19,5.19,0,0,0,3.58-4.09A7.56,7.56,0,0,0,82.1,256.24Z"/><path class="cls-30" d="M70,201.68a1.68,1.68,0,0,0-.1,1.36c.2.54.34.27.38.78s-.49.28-.64.83,0,.93.52,1.06,1.2-.38,1.67-1.5.63-2.61.14-3.29S70.27,200.84,70,201.68Z"/><path class="cls-27" d="M81.58,271c1.41,1.15-2.46,10.9-5.61,12.29a7.36,7.36,0,0,0,2.64.33c1.68-.33,4.78-7.18,5.41-9.64S83.22,271.31,81.58,271Z"/><path class="cls-22" d="M76.92,223.21c-.76,5.52,7.24,19.83,7.24,19.83S64.5,238.3,62.54,238.1c-3.18-.33-6.87-3.15-8.08-3a23.88,23.88,0,0,0-2.89,1.13c-.13.1-4.12,3.48-3.78,4.24.13.27,1-.06,1.24-.2.71-.45,2.28-2.07,2.95-2.39a11.48,11.48,0,0,1,3-.74s-1.87.91-2.43,1.3a20.29,20.29,0,0,0-3.47,3.46c-.26.37-.33.68-.15.77a1.79,1.79,0,0,0,1.18-.27,9.59,9.59,0,0,0,2.08-1.83c.24-.21,2.14-1.2,2.14-1.2s-2,2.19-2.4,2.74-1.68,2.55-1.22,2.77c.23.12.61-.22,1.06-.58,1-.79,1.59-2,2-2.23a16.07,16.07,0,0,1,2.27-1.24,5.58,5.58,0,0,0-1.16,1.36c-.19.43-.73,1.75-.73,1.75s-.26,2,.32,1.82,1-2.09,1-2.09a2.82,2.82,0,0,0,.71-.79,16.66,16.66,0,0,0,4.39.87,4.68,4.68,0,0,0,3.07-.8h0c.16.67,22.6,7.58,24.84,8.07s4.06-1.08,4.24-1.91c.87-4.1-4.12-16.6-7.4-25.29C82.4,215.79,77.13,221.7,76.92,223.21Z"/><path class="cls-23" d="M76.92,223.21c-.65,4.74,5.16,16,6.81,19a6,6,0,0,0,3.32-.66c2.84-1.37,6.57,3.12,2.35,5.85-2.82,1.83-7.27.28-25.36-5.86-1.7-.58-3.55.72-4.75.7-.63,0-2-.8-2.81-.29-1.33.87-1.54,1.82-2,3.33a.43.43,0,0,1-.21.27c.06.08.12.15.23.12.62-.17,1-2.09,1-2.09a2.82,2.82,0,0,0,.71-.79,16.66,16.66,0,0,0,4.39.87,4.68,4.68,0,0,0,3.07-.8h0c.16.67,22.6,7.58,24.84,8.07s4.06-1.08,4.24-1.91c.87-4.1-4.12-16.6-7.4-25.29C82.4,215.79,77.13,221.7,76.92,223.21Z"/><path class="cls-31" d="M79,217.12c-5.88,1.2-6.46,8.78,3.73,24.28,0,0,6.28-.45,9.63-3.69C92.32,237.71,85.55,215.78,79,217.12Z"/><path class="cls-24" d="M80.23,217.14a2.55,2.55,0,0,1,.5,1.09,21.75,21.75,0,0,1-2.63,15.33,78.63,78.63,0,0,0,4.59,7.84s6.28-.45,9.63-3.69C92.32,237.71,86.39,218.51,80.23,217.14Z"/><path class="cls-27" d="M69.5,213.49l.3,1.78s-4,6.13-8,5.67c0,0,3.19,2.81,4.06,5.16,0,0,4.88-4.55,5.44-8.74A3.48,3.48,0,0,0,69.5,213.49Z"/><path class="cls-32" d="M49.17,254v0a1.59,1.59,0,0,0,1.57,1.6H87.5a1.59,1.59,0,0,0,1.57-1.6v0Z"/><path class="cls-32" d="M45.2,220.71a2.86,2.86,0,0,0-2.83-2.15l-22.56,0v36.71l31.16.4a1.68,1.68,0,0,0,1.89-2Z"/><path class="cls-33" d="M43.58,219.23a.94.94,0,0,0-.89-.69H2.86A.93.93,0,0,0,2,219.73l7.47,32.52a4.53,4.53,0,0,0,4.35,3.4H50.89a.94.94,0,0,0,.89-1.19Z"/><polygon class="cls-34" points="111.25 12.1 100.93 0 101.93 7.71 111.25 12.1"/><polygon class="cls-35" points="111.25 12.1 95.35 11.84 101.93 7.71 111.25 12.1"/><path class="cls-36" d="M97.94,5.67a10.83,10.83,0,0,0-1.42-.46"/><path class="cls-37" d="M93.57,4.57C78,1.75,28.59-.2,12.79,48.38,10.26,56.16,12,65,16.07,72.1c1.31,2.28,3.68,4.68,6.16,3.81,2.85-1,2.43-5.75-.24-7.16s-5.86,0-8.43,1.59C-7.15,83.17,1.19,108.9,6.35,117.7"/><path class="cls-38" d="M7.16,119a9.74,9.74,0,0,0,.93,1.18"/><polygon class="cls-39" points="330.68 296.39 315.54 300.43 322.82 302.81 330.68 296.39"/><polygon class="cls-40" points="330.98 296.55 323.4 310.25 322.85 302.62 330.98 296.55"/><path class="cls-41" d="M155.92,292.08c19,20.26,49,25,76.74,26.76,29.87,1.9,61.5,1.3,87.39-13.73"/></g></g></g></svg>