<svg xmlns="http://www.w3.org/2000/svg" xmlns:xlink="http://www.w3.org/1999/xlink" width="493px" height="291px">
  <path fill-rule="evenodd"  fill="rgba(0, 0, 0, .5)" d="M485.129,24.323 L469.001,8.073 C463.925,2.998 457.172,0.202 449.954,0.202 C442.741,0.202 435.979,2.998 430.903,8.073 L246.923,192.172 L62.730,7.869 C57.662,2.794 50.901,0.002 43.687,0.002 C36.474,0.002 29.709,2.794 24.637,7.869 L8.505,24.019 C-1.999,34.521 -1.999,51.628 8.505,62.131 L227.808,282.355 C232.876,287.426 239.629,290.999 246.907,290.999 L246.991,290.999 C254.208,290.999 260.962,287.422 266.029,282.355 L485.129,62.727 C490.205,57.656 492.991,50.695 492.999,43.477 C492.999,36.255 490.205,29.390 485.129,24.323 Z"/>
</svg>