<svg xmlns="http://www.w3.org/2000/svg" width="14" height="13" viewBox="0 0 14 13"><g><g><path fill="#a5b7d2" d="M4.878.018h2.984c.481 0 1.088-.06 1.52.025h.65l1.004.128c.924.246 1.684.68 2.17 1.336.752 1.015.76 2.588.76 4.342v1.85c0 .297.03.671-.027.924v.616c-.08.349-.054.73-.163 1.054-.313.933-.828 1.64-1.628 2.107-1.024.597-2.68.563-4.34.564H5.855c-.314 0-.71.03-.977-.025h-.651c-.368-.075-.77-.051-1.112-.154-1.136-.342-2-.961-2.442-1.953-.212-.476-.22-1.01-.352-1.593v-.616C.264 8.37.294 7.996.294 7.698v-1.8c0-1.18-.074-2.472.244-3.389C.962 1.286 1.876.527 3.223.171L4.227.043c.196-.04.503.062.65-.025zM4.797 1.2c-.146.083-.988.044-1.221.102-.866.217-1.475.654-1.79 1.388-.307.713-.245 1.8-.245 2.773 0 2.23-.342 4.901 1.058 5.831 1.062.706 3.362.488 5.127.488 1.34 0 2.926.11 3.771-.385.367-.215.745-.585.922-.975.487-1.067.299-3.392.299-4.907 0-1.371.012-2.64-.597-3.416-.395-.504-1.023-.687-1.79-.848l-.868-.026C9.015 1.134 8.388 1.2 7.889 1.2H4.797zm5.832 1.051c1.194-.03 1.267 1.34.299 1.568-.574.137-1.155-.501-.95-1.027.135-.346.362-.353.651-.54zm-3.635.9c1.725-.015 2.818.862 3.337 2.005.32.706.428 1.781.081 2.57-.424.955-1.218 1.644-2.306 1.976-.26.079-.56.073-.84.129-.473.094-1.26-.19-1.547-.309-1.396-.572-2.716-2.35-1.872-4.263.378-.857 1.076-1.518 1.98-1.877.257-.1.561-.144.841-.205.113-.025.249.02.326-.025zm-.027 1.182c-.158.092-.527.082-.705.155a2.341 2.341 0 0 0-1.303 1.31c-.47 1.226.394 2.23 1.194 2.62.244.119.716.32 1.14.232.977-.205 1.6-.557 1.953-1.336.71-1.571-.682-2.992-2.28-2.98z"/></g></g></svg>