<svg xmlns="http://www.w3.org/2000/svg" xmlns:xlink="http://www.w3.org/1999/xlink" width="903" height="708" viewBox="0 0 342.35 268.39"><defs><style>.cls-1{fill:none;stroke-miterlimit:10;stroke-width:0.5px;stroke-dasharray:3;stroke:url(#linear-gradient);}.cls-2{fill:#f0f6ff;}.cls-18,.cls-20,.cls-3{fill:#c5d9ff;}.cls-21,.cls-4,.cls-5{fill:#243762;}.cls-5{opacity:0.57;}.cls-6{fill:url(#Безымянный_градиент_15);}.cls-7{fill:url(#Безымянный_градиент_15-2);}.cls-13,.cls-19,.cls-8{fill:#ecf1f7;}.cls-16,.cls-8{opacity:0.35;}.cls-9{fill:url(#Безымянный_градиент_15-3);}.cls-10{fill:url(#Безымянный_градиент_21);}.cls-11{fill:#fff;}.cls-12{fill:#fe4c1c;}.cls-14,.cls-17{fill:#af9cda;}.cls-14,.cls-21{opacity:0.29;}.cls-15{fill:#00c3ff;}.cls-18,.cls-19{opacity:0.63;}.cls-20{opacity:0.66;}.cls-22{fill:#0160e7;}.cls-23{fill:#15b7ec;}.cls-24{fill:url(#linear-gradient-2);}.cls-25{fill:url(#linear-gradient-3);}</style><linearGradient id="linear-gradient" x1="417.8" y1="223.55" x2="538.02" y2="223.55" gradientTransform="matrix(-0.51, -0.86, -0.86, 0.51, 701.4, 381.01)" gradientUnits="userSpaceOnUse"><stop offset="0" stop-color="#acc6f9"/><stop offset="1" stop-color="#6f96e3"/></linearGradient><linearGradient id="Безымянный_градиент_15" x1="288.9" y1="235" x2="314.78" y2="235" gradientUnits="userSpaceOnUse"><stop offset="0" stop-color="#ff811b"/><stop offset="0.63" stop-color="#fd4b1c"/></linearGradient><linearGradient id="Безымянный_градиент_15-2" x1="244.11" y1="236.42" x2="296.17" y2="236.42" xlink:href="#Безымянный_градиент_15"/><linearGradient id="Безымянный_градиент_15-3" x1="0.5" y1="149.96" x2="123.07" y2="149.96" xlink:href="#Безымянный_градиент_15"/><linearGradient id="Безымянный_градиент_21" x1="215.18" y1="119" x2="286.68" y2="119" gradientUnits="userSpaceOnUse"><stop offset="0" stop-color="#04dbf1"/><stop offset="1" stop-color="#0039e4"/></linearGradient><linearGradient id="linear-gradient-2" x1="586.44" y1="-488.58" x2="592.97" y2="-488.58" gradientTransform="matrix(0.21, -0.98, 0.98, 0.21, 624.93, 685.99)" gradientUnits="userSpaceOnUse"><stop offset="0" stop-color="#3475f6"/><stop offset="1" stop-color="#1b5ee0"/></linearGradient><linearGradient id="linear-gradient-3" x1="1644.23" y1="-500.91" x2="1650.76" y2="-500.91" gradientTransform="matrix(-0.25, 0.97, 0.97, 0.25, 1166.97, -1468.97)" xlink:href="#linear-gradient"/></defs><g id="Слой_2" data-name="Слой 2"><g id="OBJECTS"><path class="cls-1" d="M277,6.22c29.42,6.86,55.85,49.63,61.65,65.69A53.55,53.55,0,0,1,342.07,88c.15,3.84-.31,7.91-2.57,11s-6.75,4.85-10.13,3c-2.08-1.14-10.41-9.94-8.88-15.59.35-1.32,2.26-1.63,3.52-1.12a5.54,5.54,0,0,1,2.83,2.83c13.51,28.17-35,52.3-53.94,47.3-8.41-2.23-15.2-9.54-23.89-10s-16.84,7-18.55,15.71,2,17.78,8,24.27"/><path class="cls-2" d="M333.24,196.86a104.7,104.7,0,0,0-47.67-93.27,22.19,22.19,0,0,1-9.94-16.16l-.12-1.08c-5.46-43.71-46.31-74.41-89.82-68.49-41.63,5.66-71.59,27.66-67.16,70,0,.2,0,.49.06.86a20.22,20.22,0,0,1-19.81,21.52c-2.42.06-4.85.21-7.3.47A90.54,90.54,0,0,0,40,267.51H298.81C318.49,248.68,332.09,222.55,333.24,196.86Z"/><path class="cls-3" d="M309.51,207.25a89.27,89.27,0,0,0-40.66-79.54,18.91,18.91,0,0,1-8.47-13.78c0-.31-.07-.61-.11-.92-4.65-37.28-39.49-63.47-76.6-58.42-35.5,4.83-61.06,23.59-57.28,59.71,0,.17,0,.42.06.73a17.25,17.25,0,0,1-16.9,18.36c-2.07.05-4.14.18-6.23.4A77.21,77.21,0,0,0,59.39,267.51H280.15C296.93,251.45,308.53,229.17,309.51,207.25Z"/><path class="cls-4" d="M325.85,268.39H20.08a.89.89,0,0,1,0-1.77H325.85a.89.89,0,0,1,0,1.77Z"/><path class="cls-5" d="M263.76,205.62a.5.5,0,0,1-.5-.5v-5a7.1,7.1,0,0,0-7.08-7.09h-1.9a6.92,6.92,0,0,1-6.92-6.92v-2.77a6.78,6.78,0,0,1,6.77-6.77h2.78a6.37,6.37,0,0,0,6.35-6.36,8.41,8.41,0,0,0-8.4-8.4H242.25a.5.5,0,0,1-.5-.5.5.5,0,0,1,.5-.5h12.61a9.41,9.41,0,0,1,9.4,9.4,7.36,7.36,0,0,1-7.35,7.36h-2.78a5.78,5.78,0,0,0-5.77,5.77v2.77a5.92,5.92,0,0,0,5.92,5.92h1.9a8.09,8.09,0,0,1,8.08,8.09v5A.5.5,0,0,1,263.76,205.62Z"/><path class="cls-5" d="M281.63,206.4a.51.51,0,0,1-.5-.5v-3A4.09,4.09,0,0,0,277,198.8h-1.15a4.39,4.39,0,0,1-4.38-4.38v-1.68a4.31,4.31,0,0,1,4.3-4.3h1.67a3.64,3.64,0,0,0,3.65-3.64,4.89,4.89,0,0,0-4.88-4.89h-7.63a.5.5,0,0,1,0-1h7.63a5.89,5.89,0,0,1,5.88,5.89,4.65,4.65,0,0,1-4.65,4.64h-1.67a3.3,3.3,0,0,0-3.3,3.3v1.68a3.39,3.39,0,0,0,3.38,3.38H277a5.1,5.1,0,0,1,5.09,5.09v3A.5.5,0,0,1,281.63,206.4Z"/><path class="cls-6" d="M298.92,253.68h-10v-7h10a8.88,8.88,0,0,0,8.86-8.86v-10.6a3.91,3.91,0,0,0-3.9-3.9H291.23v-7h12.65a10.91,10.91,0,0,1,10.9,10.9v10.6A15.88,15.88,0,0,1,298.92,253.68Z"/><path class="cls-4" d="M298.92,247.18h-10a.5.5,0,0,1-.5-.5.5.5,0,0,1,.5-.5h10a8.37,8.37,0,0,0,8.36-8.36v-10.6a3.41,3.41,0,0,0-3.4-3.4H290.73v-8h13.15a11.41,11.41,0,0,1,11.4,11.4v10.6a.5.5,0,0,1-.5.5.5.5,0,0,1-.5-.5v-10.6a10.42,10.42,0,0,0-10.4-10.4H291.73v6h12.15a4.41,4.41,0,0,1,4.4,4.4v10.6A9.37,9.37,0,0,1,298.92,247.18Z"/><path class="cls-7" d="M288.7,267H251.58a7.47,7.47,0,0,1-7.47-7.47v-49.3a4.44,4.44,0,0,1,4.44-4.44h41.94a5.68,5.68,0,0,1,5.68,5.68v48.06A7.47,7.47,0,0,1,288.7,267Z"/><path class="cls-8" d="M289.54,231.85H256.6c-3.67,0-6.64-1.67-6.64-3.74V208c0-1.23,1.77-2.22,3.95-2.22h37.22c2.79,0,5,1.27,5,2.84v19.45C296.17,230.18,293.2,231.85,289.54,231.85Z"/><path class="cls-4" d="M244.11,235.5a.5.5,0,0,1-.5-.5V210.26a5,5,0,0,1,4.94-4.94h41.94a.5.5,0,0,1,.5.5.5.5,0,0,1-.5.5H248.55a4,4,0,0,0-3.94,3.94V235A.5.5,0,0,1,244.11,235.5Z"/><path class="cls-4" d="M278,218.79H244.37a.5.5,0,0,1-.5-.5.5.5,0,0,1,.5-.5H278a.5.5,0,0,1,.5.5A.51.51,0,0,1,278,218.79Z"/><path class="cls-9" d="M117.17,139.58H106.7a5.89,5.89,0,0,1-5.54-3.81c-.4-1.06-.83-2.1-1.31-3.11a5.78,5.78,0,0,1,1.15-6.6l7.41-7.29a5.72,5.72,0,0,0,0-8.2l-6.58-6.48a6,6,0,0,0-8.34,0l-7.41,7.29a6,6,0,0,1-6.7,1.14c-1-.47-2.09-.9-3.17-1.29a5.82,5.82,0,0,1-3.87-5.45V95.47a5.85,5.85,0,0,0-5.9-5.8H57.13a5.85,5.85,0,0,0-5.9,5.8v10.31a5.82,5.82,0,0,1-3.87,5.45c-1.08.39-2.13.82-3.17,1.29a6,6,0,0,1-6.7-1.14l-7.41-7.29a6,6,0,0,0-8.34,0l-6.58,6.48a5.72,5.72,0,0,0,0,8.2l7.41,7.29a5.78,5.78,0,0,1,1.15,6.6c-.48,1-.91,2.05-1.31,3.11a5.89,5.89,0,0,1-5.54,3.81H6.4a5.85,5.85,0,0,0-5.9,5.8v9.16a5.85,5.85,0,0,0,5.9,5.81H16.87a5.89,5.89,0,0,1,5.54,3.81c.4,1.06.83,2.1,1.31,3.11a5.76,5.76,0,0,1-1.15,6.59l-7.41,7.29a5.73,5.73,0,0,0,0,8.21l6.58,6.48a6,6,0,0,0,8.34,0l7.41-7.29a6,6,0,0,1,6.7-1.14c1,.47,2.09.9,3.17,1.29a5.81,5.81,0,0,1,3.87,5.45v10.31a5.85,5.85,0,0,0,5.9,5.8h9.31a5.85,5.85,0,0,0,5.9-5.8V194.15a5.81,5.81,0,0,1,3.87-5.45c1.08-.39,2.13-.82,3.17-1.29a6,6,0,0,1,6.7,1.14l7.41,7.29a6,6,0,0,0,8.34,0l6.58-6.48a5.73,5.73,0,0,0,0-8.21L101,173.86a5.76,5.76,0,0,1-1.15-6.59c.48-1,.91-2.05,1.31-3.11a5.89,5.89,0,0,1,5.54-3.81h10.47a5.85,5.85,0,0,0,5.9-5.81v-9.16A5.85,5.85,0,0,0,117.17,139.58ZM61.78,181.2C44.25,181.2,30,167.21,30,150s14.21-31.23,31.74-31.23,31.75,14,31.75,31.23S79.32,181.2,61.78,181.2Z"/><path class="cls-4" d="M22.57,174.36a.5.5,0,0,1-.36-.14.5.5,0,0,1,0-.71,5.3,5.3,0,0,0,1.05-6c-.49-1-.93-2.09-1.33-3.15a5.41,5.41,0,0,0-5.07-3.48H6.4A6.36,6.36,0,0,1,0,154.54v-9.16a6.36,6.36,0,0,1,6.4-6.3H16.87a5.42,5.42,0,0,0,5.07-3.48c.4-1.06.84-2.12,1.33-3.16a5.29,5.29,0,0,0-1.05-6l-7.41-7.29a6.23,6.23,0,0,1,0-8.92l6.58-6.48a6.48,6.48,0,0,1,9,0L37.84,111a5.53,5.53,0,0,0,6.15,1c1-.47,2.12-.91,3.2-1.3a5.34,5.34,0,0,0,3.54-5V95.47a6.36,6.36,0,0,1,6.4-6.3h9.31a6.36,6.36,0,0,1,6.4,6.3.5.5,0,0,1-1,0,5.36,5.36,0,0,0-5.4-5.3H57.13a5.36,5.36,0,0,0-5.4,5.3v10.31a6.34,6.34,0,0,1-4.2,5.92c-1.06.38-2.11.81-3.13,1.27a6.55,6.55,0,0,1-7.26-1.23l-7.41-7.29a5.46,5.46,0,0,0-7.64,0l-6.58,6.48a5.23,5.23,0,0,0,0,7.49l7.41,7.29a6.29,6.29,0,0,1,1.25,7.16c-.47,1-.91,2-1.29,3.07a6.42,6.42,0,0,1-6,4.14H6.4a5.36,5.36,0,0,0-5.4,5.3v9.16a5.36,5.36,0,0,0,5.4,5.31H16.87a6.42,6.42,0,0,1,6,4.13c.39,1,.82,2.07,1.29,3.08a6.29,6.29,0,0,1-1.25,7.16A.49.49,0,0,1,22.57,174.36ZM30,150.46a.5.5,0,0,1-.5-.5c0-17.49,14.46-31.73,32.25-31.73a.5.5,0,1,1,0,1C44.55,119.23,30.54,133,30.54,150A.5.5,0,0,1,30,150.46Z"/><path class="cls-3" d="M115.19,96.43l-2.09-5.55a3.34,3.34,0,0,1,.91-3.7c.48-.42.94-.86,1.38-1.31a3.26,3.26,0,0,1,3.73-.71l5.34,2.47A3.26,3.26,0,0,0,128.81,86l2.11-4.79a3.38,3.38,0,0,0-1.66-4.42l-5.35-2.46A3.42,3.42,0,0,1,122,71c0-.64.06-1.28,0-1.93a3.28,3.28,0,0,1,2.11-3.14l5.46-2.06a3.32,3.32,0,0,0,1.9-4.29l-1.86-4.93a3.32,3.32,0,0,0-4.26-2l-5.46,2.06a3.27,3.27,0,0,1-3.66-1c-.42-.49-.86-1-1.32-1.42a3.41,3.41,0,0,1-.73-3.78l2.38-5.38a3.38,3.38,0,0,0-1.67-4.42l-4.75-2.19a3.25,3.25,0,0,0-4.35,1.64l-2.38,5.38a3.25,3.25,0,0,1-3.26,1.94c-.63-.06-1.27-.08-1.91-.08a3.35,3.35,0,0,1-3.13-2.17L93,37.74a3.32,3.32,0,0,0-4.26-2l-4.85,1.83A3.31,3.31,0,0,0,82,41.89l2.09,5.55a3.34,3.34,0,0,1-.91,3.7c-.48.42-.94.86-1.39,1.32a3.26,3.26,0,0,1-3.72.7L72.77,50.7a3.24,3.24,0,0,0-4.35,1.64L66.3,57.12A3.38,3.38,0,0,0,68,61.54L73.31,64a3.39,3.39,0,0,1,2,3.32c-.05.64-.06,1.29-.05,1.94a3.31,3.31,0,0,1-2.12,3.14l-5.46,2.06a3.31,3.31,0,0,0-1.89,4.28l1.86,4.94a3.31,3.31,0,0,0,4.25,2l5.47-2.06a3.29,3.29,0,0,1,3.66,1c.42.49.86,1,1.31,1.42A3.4,3.4,0,0,1,83,89.75l-2.38,5.38a3.38,3.38,0,0,0,1.67,4.42l4.75,2.19a3.23,3.23,0,0,0,4.34-1.64l2.38-5.38a3.28,3.28,0,0,1,3.27-1.93c.63,0,1.27.07,1.91.07A3.32,3.32,0,0,1,102.09,95l2.1,5.55a3.31,3.31,0,0,0,4.25,2l4.86-1.84A3.31,3.31,0,0,0,115.19,96.43Zm-33.12-21A17.69,17.69,0,1,1,105,86,17.84,17.84,0,0,1,82.07,75.41Z"/><path class="cls-10" d="M218.64,80.37h65.93a2.1,2.1,0,0,1,2.11,2.1v48.38a3.73,3.73,0,0,1-3.72,3.72H257.52a1.07,1.07,0,0,0-.78.33L235.6,157.29a1.08,1.08,0,0,1-1.85-.81V135.71a1.11,1.11,0,0,0-1.08-1.14h-14a3.57,3.57,0,0,1-3.46-3.66V84A3.56,3.56,0,0,1,218.64,80.37Z"/><path class="cls-11" d="M276.76,96.61H227.61a.38.38,0,1,1,0-.75h49.15a.38.38,0,1,1,0,.75Z"/><path class="cls-11" d="M276.76,107.65H254.65a.37.37,0,0,1-.37-.38.36.36,0,0,1,.37-.37h22.11a.37.37,0,0,1,.38.37A.38.38,0,0,1,276.76,107.65Z"/><path class="cls-11" d="M250.39,107.65H228.28a.38.38,0,0,1-.37-.38.37.37,0,0,1,.37-.37h22.11a.37.37,0,0,1,.38.37A.38.38,0,0,1,250.39,107.65Z"/><path class="cls-11" d="M263.15,117.64H230.06a.38.38,0,1,1,0-.75h33.09a.38.38,0,1,1,0,.75Z"/><circle class="cls-12" cx="282.58" cy="136.47" r="20.37"/><circle class="cls-13" cx="282.58" cy="136.47" r="16.37"/><path class="cls-4" d="M282.58,153.33a16.87,16.87,0,1,1,16.87-16.86A16.87,16.87,0,0,1,282.58,153.33Zm0-32.73a15.87,15.87,0,1,0,15.87,15.87A15.88,15.88,0,0,0,282.58,120.6Z"/><path class="cls-4" d="M282,139.85a1.53,1.53,0,0,1-.45-.13,1.2,1.2,0,0,1-.65-1.15l.84-11.06a.83.83,0,1,1,1.65.13l-.76,9.94,6.35-5.45a.81.81,0,0,1,1.16.09.82.82,0,0,1-.08,1.16l-7.2,6.18A1.19,1.19,0,0,1,282,139.85Z"/><path class="cls-4" d="M42.17,142.15l0,.14,11.1,116.46,173.55,2.86L213.09,141.55a3.16,3.16,0,0,0-3.16-2.87H45.34A3.18,3.18,0,0,0,42.17,142.15Z"/><path class="cls-4" d="M285.44,252.9H56.6a7.27,7.27,0,0,0-7.27,7.28V266h242.8v-6.41A6.69,6.69,0,0,0,285.44,252.9Z"/><path class="cls-4" d="M285.44,252.9H56.6a7.27,7.27,0,0,0-7.27,7.28V266h242.8v-6.41A6.69,6.69,0,0,0,285.44,252.9Z"/><path class="cls-14" d="M285.44,252.9H132.08a7.27,7.27,0,0,0-7.27,7.28V266H292.13v-6.41A6.69,6.69,0,0,0,285.44,252.9Z"/><path class="cls-13" d="M48.43,142.15v.14L59,252.9H230L219.35,141.55a3.18,3.18,0,0,0-3.17-2.87H51.59A3.17,3.17,0,0,0,48.43,142.15Z"/><path class="cls-4" d="M135.34,145.37a2.11,2.11,0,1,1,2.11-2.11A2.12,2.12,0,0,1,135.34,145.37Zm0-3.47a1.36,1.36,0,1,0,1.36,1.36A1.36,1.36,0,0,0,135.34,141.9Z"/><path class="cls-11" d="M68.11,244.66H218.93a1.78,1.78,0,0,0,1.82-1.92l-9-90a1.81,1.81,0,0,0-1.82-1.59H59.14a1.79,1.79,0,0,0-1.83,1.92l9,90A1.81,1.81,0,0,0,68.11,244.66Z"/><path class="cls-15" d="M212.7,160.59l-154,.41-.87-8.06a1.74,1.74,0,0,1,1.95-1.7l148.33,0c1.44,0,3.63.94,3.63,2.1Z"/><path class="cls-13" d="M65.21,158a1.69,1.69,0,1,1,1.69-1.69A1.69,1.69,0,0,1,65.21,158Zm0-2.63a.94.94,0,1,0,.94.94A.94.94,0,0,0,65.21,155.33Z"/><path class="cls-13" d="M70.09,158a1.69,1.69,0,1,1,1.69-1.69A1.69,1.69,0,0,1,70.09,158Zm0-2.63a.94.94,0,1,0,.94.94A.94.94,0,0,0,70.09,155.33Z"/><path class="cls-13" d="M74.6,158a1.69,1.69,0,1,1,1.69-1.69A1.69,1.69,0,0,1,74.6,158Zm0-2.63a.94.94,0,1,0,.94.94A.94.94,0,0,0,74.6,155.33Z"/><path class="cls-13" d="M224.78,259.83H184.34a2.43,2.43,0,0,1-2.43-2.43v-4.5h.75v4.5a1.68,1.68,0,0,0,1.68,1.68h40.44a1.68,1.68,0,0,0,1.68-1.68v-4.5h.75v4.5A2.43,2.43,0,0,1,224.78,259.83Z"/><path class="cls-13" d="M59.63,262a2.7,2.7,0,1,1,2.7-2.7A2.7,2.7,0,0,1,59.63,262Zm0-4.65a1.95,1.95,0,1,0,1.95,2A2,2,0,0,0,59.63,257.34Z"/><path class="cls-4" d="M169.48,151.72H58.83a.5.5,0,0,1,0-1H169.48a.5.5,0,0,1,0,1Z"/><g class="cls-16"><path class="cls-17" d="M121.7,182,75.59,183a3.14,3.14,0,0,1-1.53-.16l0-2.45a3.12,3.12,0,0,1,1.87-1l45.74-1.05c.84,0,1.55,1.17,1.55,1.28l0,2.07C123.22,181.85,122.54,182,121.7,182Z"/><path class="cls-17" d="M122.28,207,76.17,208a1.71,1.71,0,0,1-1.75-1.67L73.84,181a1.69,1.69,0,0,1,1.66-1.74l46.11-1.06a1.7,1.7,0,0,1,1.75,1.66l.59,25.34A1.72,1.72,0,0,1,122.28,207ZM75.51,179.64a1.34,1.34,0,0,0-1.3,1.37l.58,25.33a1.34,1.34,0,0,0,1.37,1.31l46.11-1.06a1.34,1.34,0,0,0,1.3-1.37L123,179.88a1.34,1.34,0,0,0-1.37-1.3Z"/><path class="cls-17" d="M123.23,182.12,76,183.21a.18.18,0,0,1-.19-.19.18.18,0,0,1,.18-.19l47.25-1.08a.18.18,0,0,1,.19.18A.19.19,0,0,1,123.23,182.12Z"/><path class="cls-13" d="M76.24,182.08a.55.55,0,0,1-.56-.54.56.56,0,0,1,.54-.56.55.55,0,0,1,0,1.1Zm0-.91a.36.36,0,0,0,0,.72.36.36,0,1,0,0-.72Z"/><path class="cls-13" d="M77.9,182a.55.55,0,1,1,0-1.1.55.55,0,0,1,0,1.1Zm0-.91a.37.37,0,0,0-.36.37.38.38,0,0,0,.38.36.37.37,0,0,0,.35-.38A.35.35,0,0,0,77.88,181.13Z"/><path class="cls-13" d="M79.47,182a.56.56,0,0,1-.56-.54.55.55,0,0,1,1.1,0A.55.55,0,0,1,79.47,182Zm0-.92a.36.36,0,0,0-.35.37.37.37,0,0,0,.37.36.36.36,0,0,0,.35-.37A.37.37,0,0,0,79.45,181.09Z"/><path class="cls-17" d="M80,193.37l-.09-4.22,36.52-.84.1,4.22Zm.42-3.73.07,3.22L116,192l-.07-3.22Z"/><path class="cls-17" d="M80.18,199.72l-.1-4.22,36.53-.84.09,4.22Zm.41-3.73.08,3.22,35.52-.82-.07-3.22Z"/></g><g class="cls-16"><path class="cls-17" d="M207.13,192.6,161,193.67a3.14,3.14,0,0,1-1.53-.16l-.05-2.45a3.12,3.12,0,0,1,1.87-1L207.05,189c.84,0,1.55,1.17,1.55,1.27l.05,2.08A3.21,3.21,0,0,1,207.13,192.6Z"/><path class="cls-17" d="M207.71,217.6l-46.11,1.06a1.71,1.71,0,0,1-1.75-1.67l-.58-25.34a1.71,1.71,0,0,1,1.66-1.75L207,188.84a1.71,1.71,0,0,1,1.75,1.67l.58,25.34A1.71,1.71,0,0,1,207.71,217.6Zm-46.77-27.32a1.33,1.33,0,0,0-1.3,1.36l.58,25.34a1.35,1.35,0,0,0,1.37,1.31l46.11-1.07a1.33,1.33,0,0,0,1.3-1.36l-.58-25.34a1.33,1.33,0,0,0-1.37-1.3Z"/><path class="cls-17" d="M208.66,192.76l-47.25,1.08a.19.19,0,1,1,0-.37l47.25-1.09a.19.19,0,0,1,.19.19A.19.19,0,0,1,208.66,192.76Z"/><path class="cls-13" d="M161.67,192.72a.56.56,0,0,1-.56-.54.55.55,0,1,1,.56.54Zm0-.92a.37.37,0,0,0,0,.73.37.37,0,0,0,.36-.37A.38.38,0,0,0,161.65,191.8Z"/><path class="cls-13" d="M163.33,192.68a.55.55,0,1,1,.54-.56A.56.56,0,0,1,163.33,192.68Zm0-.91a.36.36,0,1,0,0,.72.36.36,0,1,0,0-.72Z"/><path class="cls-13" d="M164.9,192.64a.55.55,0,1,1,0-1.1.56.56,0,0,1,.56.54A.55.55,0,0,1,164.9,192.64Zm0-.91a.35.35,0,0,0-.35.37.36.36,0,1,0,.72,0A.35.35,0,0,0,164.88,191.73Z"/><path class="cls-17" d="M165.46,204l-.09-4.22,36.52-.84.1,4.22Zm.42-3.73.07,3.21,35.52-.81-.07-3.22Z"/><path class="cls-17" d="M165.61,210.36l-.1-4.22L202,205.3l.1,4.22Zm.41-3.73.08,3.22,35.52-.82-.07-3.22Z"/></g><path class="cls-11" d="M172.28,202.1a36.25,36.25,0,0,0-20.44,6.28l0,0-7.37-31h-8.64l-7.37,31,0,0a36.41,36.41,0,0,0-56.87,30.13,36.66,36.66,0,0,0,.55,6.24h136a36.36,36.36,0,0,0-35.88-42.66Z"/><path class="cls-18" d="M180.43,222.44a17.7,17.7,0,0,0-4.89-19.7c-7.88-14-26.64-53.27-10.68-86.17l-8-6s-49,20.83-50.82,94a17.75,17.75,0,0,0-4.26,11.55,17.5,17.5,0,0,0,.67,4.77,10.35,10.35,0,1,0,9.71,17.42,17,17,0,0,0,21.46.68,10.33,10.33,0,0,0,13.26-.18,17,17,0,0,0,21,.09,10.36,10.36,0,1,0,12.55-16.45Z"/><path class="cls-19" d="M168.68,201a13.58,13.58,0,0,0,1.09-4.7c.17-4-7.87-6.93-10.54-9.49-5.43-10.74-8.48-46,4.55-70.14l-6.89-5.18s-35.1,18.47-38.84,73.13c-2.09,2.24-7.86,5.75-8,9a13,13,0,0,0,.34,3.59,7.76,7.76,0,1,0,6.69,13.36,12.73,12.73,0,0,0,16,1.22,7.74,7.74,0,0,0,9.93.3,12.7,12.7,0,0,0,15.69.76,7.76,7.76,0,1,0,9.94-11.9Z"/><path class="cls-4" d="M108.13,155.93a71.77,71.77,0,0,0,1.56,10.41,82.06,82.06,0,0,0,3,10.25c.57,1.69,1.28,3.32,1.95,5l1.13,2.43.58,1.21.63,1.18a66.7,66.7,0,0,0,5.74,9.08v0a.51.51,0,0,1-.11.7.52.52,0,0,1-.68-.08,69.82,69.82,0,0,1-6.53-8.82l-.74-1.16-.67-1.2-1.35-2.4c-.82-1.64-1.67-3.27-2.39-5a85.73,85.73,0,0,1-3.84-10.36,76.62,76.62,0,0,1-2.47-10.91,2.12,2.12,0,0,1,4.19-.61.77.77,0,0,1,0,.15Z"/><path class="cls-4" d="M87.85,178a11.29,11.29,0,0,0,.68,1.15c.28.41.56.82.87,1.22.59.8,1.26,1.58,1.94,2.34A45.67,45.67,0,0,0,95.83,187a57,57,0,0,0,5,3.77c.87.6,1.78,1.14,2.67,1.71L106.3,194h0a.64.64,0,0,1,.24.88.66.66,0,0,1-.82.28l-3-1.29c-1-.48-2-.92-2.92-1.43a61.78,61.78,0,0,1-5.66-3.3,50.73,50.73,0,0,1-5.29-4c-.83-.75-1.66-1.51-2.44-2.35-.39-.4-.77-.84-1.15-1.28a17.93,17.93,0,0,1-1.13-1.49v0a2.12,2.12,0,0,1,3.55-2.32C87.76,177.78,87.81,177.88,87.85,178Z"/><path class="cls-4" d="M179.26,156.29a76.6,76.6,0,0,1-2.46,10.91A85.73,85.73,0,0,1,173,177.56c-.72,1.7-1.58,3.33-2.39,5l-1.35,2.4-.68,1.2-.74,1.16a68.86,68.86,0,0,1-6.53,8.82.5.5,0,0,1-.7.06.51.51,0,0,1-.08-.68v0a67.69,67.69,0,0,0,5.74-9.08l.63-1.18.58-1.21,1.13-2.43c.67-1.66,1.38-3.29,1.95-5a83.8,83.8,0,0,0,3-10.25,73.17,73.17,0,0,0,1.56-10.41v-.09a2.11,2.11,0,1,1,4.22.29A.88.88,0,0,1,179.26,156.29Z"/><path class="cls-4" d="M199,180.05a17.93,17.93,0,0,1-1.13,1.49c-.38.44-.76.88-1.16,1.28-.78.84-1.6,1.6-2.43,2.35a50.73,50.73,0,0,1-5.29,4,61.78,61.78,0,0,1-5.66,3.3c-1,.51-2,1-2.93,1.43l-3,1.29a.65.65,0,0,1-.58-1.16h0l2.76-1.59c.89-.57,1.8-1.11,2.67-1.71a57,57,0,0,0,5-3.77,48,48,0,0,0,4.49-4.29c.68-.76,1.34-1.54,1.94-2.34.31-.4.59-.81.86-1.22s.55-.86.69-1.15a2.12,2.12,0,0,1,3.84,1.8,2,2,0,0,1-.14.25Z"/><path class="cls-3" d="M185.31,231.75a23.3,23.3,0,0,0-15.64,6,30.1,30.1,0,0,0-58.66.53,23.39,23.39,0,0,0-37.17,6.48H206.27A23.39,23.39,0,0,0,185.31,231.75Z"/><path class="cls-20" d="M108.06,202.1a36.36,36.36,0,0,0-35.88,42.66h64.21a36.41,36.41,0,0,1,3.78-23.45A36.41,36.41,0,0,0,108.06,202.1Z"/><path class="cls-20" d="M172.28,202.1a36.41,36.41,0,0,0-32.11,19.21A36.41,36.41,0,0,1,144,244.76h64.21a36.36,36.36,0,0,0-35.88-42.66Z"/><path class="cls-21" d="M213.8,49.18a1.89,1.89,0,0,0-2.92,2.18l-3.84,5c-11.52-.26-26.49,10.05-33.15,18.69l-7.64,9.89c-.7.9-1.36,1.83-2,2.77l.1-.39-4-.79A12.89,12.89,0,0,0,146,94l-10.75,24.9A5,5,0,0,0,141.1,117l5-7.41a11.87,11.87,0,0,1,11-5.16,49.46,49.46,0,0,0-1.08,7.61l3.93,3h0l-3.93-3-2,6.38,2.1,1.62-8.41,10.89c-.74,1-2.21,4.56-1.2,5.35s4.13-1.55,4.88-2.51l7.13-9.25h0l1.27-1.64,2.13,1.64,5.64-3.57h0a49.72,49.72,0,0,0,7-2.93,11.88,11.88,0,0,1-2.25,11.82l-5.91,6.73a5,5,0,0,0-.37,6.14L187.44,126a12.9,12.9,0,0,0,3.66-15.8l-1.78-3.66c.67-.76,1.32-1.54,2-2.35l7.63-9.88a53.14,53.14,0,0,0,7.21-13.51.44.44,0,0,0,.08-.11c2.89-7.83,4.32-16.59,2.41-23.21l3.83-5a1.89,1.89,0,0,0,1.37-3.37Z"/><path class="cls-22" d="M191,99.41l1.7,3.5A12.31,12.31,0,0,1,189.21,118L168.8,133.93h0a4.8,4.8,0,0,1,.36-5.86l5.63-6.42a11.35,11.35,0,0,0,.84-13.89h0Z"/><path class="cls-21" d="M191,99.41l1.7,3.5A12.31,12.31,0,0,1,189.21,118L168.8,133.93h0a4.8,4.8,0,0,1,.36-5.86l5.63-6.42a11.35,11.35,0,0,0,.84-13.89h0Z"/><path class="cls-22" d="M167.17,81l-3.82-.76a12.29,12.29,0,0,0-13.7,7.19l-10.26,23.77h0a4.77,4.77,0,0,0,5.57-1.82l4.79-7.08A11.34,11.34,0,0,1,163,98h0Z"/><path class="cls-22" d="M163.35,80.25a12.29,12.29,0,0,0-13.7,7.19l-10.26,23.77h0a4.77,4.77,0,0,0,5.57-1.82l4.79-7.08"/><path class="cls-4" d="M141,112a5.2,5.2,0,0,1-1.77-.31l-.51-.18,10.48-24.26a12.86,12.86,0,0,1,14.26-7.48.5.5,0,0,1-.19,1,11.87,11.87,0,0,0-13.15,6.9l-10,23.25a4.29,4.29,0,0,0,4.48-1.78l4.79-7.08a.49.49,0,0,1,.69-.13.5.5,0,0,1,.14.69l-4.79,7.08A5.32,5.32,0,0,1,141,112Z"/><rect class="cls-11" x="206.76" y="48.6" width="7.64" height="1.87" transform="translate(42.67 185.94) rotate(-52.33)"/><path class="cls-4" d="M209.07,53.83l-2.27-1.75,5.28-6.84L214.35,47Zm-.86-1.93.68.53L213,47.18l-.69-.53Z"/><path class="cls-12" d="M214.69,47.16a1.8,1.8,0,1,1-.32-2.53A1.8,1.8,0,0,1,214.69,47.16Z"/><path class="cls-4" d="M213.26,48.37a2.33,2.33,0,0,1-1.41-.48,2.31,2.31,0,0,1,2.82-3.66,2.31,2.31,0,0,1,.42,3.24h0a2.3,2.3,0,0,1-1.53.88Zm0-3.61A1.29,1.29,0,0,0,212,46.23a1.29,1.29,0,0,0,.49.86,1.3,1.3,0,1,0,1.6-2.06A1.27,1.27,0,0,0,213.26,44.76Z"/><path class="cls-11" d="M209.09,51.63s0-.12,0-.12-.13,0-.13,0c-11.12-.91-26.1,9.29-32.67,17.79L169,78.73a47.15,47.15,0,0,0-9.75,25.92l5.23,4,.55.42,5.24,4h0a47.16,47.16,0,0,0,22.61-16l7.29-9.44C206.71,79.23,212.79,62.16,209.09,51.63Z"/><path class="cls-13" d="M164.46,108.69l.53.41,5,3.9h0a48.41,48.41,0,0,0,22.39-16.16l7.29-9.44c6.56-8.5,12.79-25.45,9.36-35.78,0,0,0-.12,0-.12s-.13,0-.13,0"/><path class="cls-22" d="M209.13,51.65s0-.11,0-.12-.13,0-.13,0c-6.84-.56-15.14,3.08-22,7.94-2.14,1.51,19.25,17.81,20.19,15.26C210,66.89,211.37,58.06,209.13,51.65Z"/><path class="cls-21" d="M209.13,51.65s0-.11,0-.12-.13,0-.13,0c-6.84-.56-15.14,3.08-22,7.94-2.14,1.51,19.25,17.81,20.19,15.26C210,66.89,211.37,58.06,209.13,51.65Z"/><path class="cls-23" d="M193.93,85a8.5,8.5,0,1,1-1.53-11.92A8.5,8.5,0,0,1,193.93,85Z"/><path class="cls-4" d="M187.2,88.8a9,9,0,1,1,7.13-3.5h0A9,9,0,0,1,187.2,88.8Zm0-17a8,8,0,1,0,6.32,12.88h0a8,8,0,0,0-6.32-12.88Z"/><path class="cls-3" d="M192.32,83.75a6.46,6.46,0,1,1-1.17-9.06A6.46,6.46,0,0,1,192.32,83.75Z"/><path class="cls-13" d="M189.21,79.25a2.87,2.87,0,1,1-.52-4A2.87,2.87,0,0,1,189.21,79.25Z"/><polygon class="cls-12" points="159.23 104.65 157.32 110.75 164.86 116.57 170.25 113.15 159.23 104.65"/><path class="cls-4" d="M164.83,117.18l-8.09-6.25,2.23-7.12,12.15,9.38Zm-6.93-6.62,7,5.4,4.49-2.85-9.89-7.63Z"/><path class="cls-22" d="M150.15,127.79h0c-1-.75.44-4.19,1.15-5.11l23.8-30.82a2.16,2.16,0,0,1,3-.31h0a2.16,2.16,0,0,1,.47,3L154.8,125.39C154.1,126.31,151.12,128.54,150.15,127.79Z"/><path class="cls-22" d="M161.62,116.57l-6.82,8.82c-.7.92-3.68,3.15-4.65,2.4h0c-1-.75.44-4.19,1.15-5.11"/><path class="cls-4" d="M150.66,128.44a1.28,1.28,0,0,1-.81-.25c-.62-.47-.69-1.49-.24-3a10.05,10.05,0,0,1,1.29-2.78l.79.61a9.2,9.2,0,0,0-1.12,2.45c-.36,1.22-.26,1.84-.11,2s.77,0,1.86-.61a9.32,9.32,0,0,0,2.09-1.7l6.81-8.83.79.61-6.81,8.83a10.27,10.27,0,0,1-2.36,2A4.53,4.53,0,0,1,150.66,128.44Z"/><polygon class="cls-24" points="262.98 3.05 275.76 12.43 273.02 5.18 262.98 3.05"/><polygon class="cls-25" points="262.91 2.71 278.54 0 272.86 5.28 262.91 2.71"/></g></g></svg>