<svg xmlns="http://www.w3.org/2000/svg" viewBox="0 0 172.22 154.86"><defs><style>.cls-1{font-size:27.48px;}.cls-1,.cls-3{font-family:Kefa-Bold, Kefa;font-weight:700;}.cls-2{letter-spacing:-0.03em;}.cls-3{font-size:4.78px;}.cls-4{fill:none;stroke:#000;stroke-miterlimit:10;stroke-width:0.46px;}</style></defs><g id="Слой_2" data-name="Слой 2"><g id="Слой_1-2" data-name="Слой 1"><text class="cls-1" transform="translate(10.08 148.69)"><tspan class="cls-2">F</tspan><tspan x="15.18" y="0">ancyNerds</tspan></text><text class="cls-3" transform="translate(158.83 130.88)">R</text><circle class="cls-4" cx="160.5" cy="129.24" r="3.29"/><path d="M168.18,89.73H151.85v8.48a10.8,10.8,0,0,1-10.8,10.8H119.69a10.8,10.8,0,0,1-10.8-10.8V88.67a10.8,10.8,0,0,1,10.8-10.8h21.36a10.8,10.8,0,0,1,10.8,10.8v1.06l10.24-9.8A22.76,22.76,0,0,0,155,70.66v0A19,19,0,0,0,158.91,59c0-9.88-11.26-18-21.43-18.93l0,0a18.83,18.83,0,0,0,1.24-6.75,19,19,0,0,0-19-19c-.51,0-1,0-1.55.06l0,0A19,19,0,0,0,86.22,5.54v0a19.17,19.17,0,0,0-32.08,8.72l0,0c-.52,0-1-.06-1.55-.06a19,19,0,0,0-19,19,18.83,18.83,0,0,0,1.24,6.75l0,0c-10.17,1-21.43,9-21.43,18.93a19,19,0,0,0,3.93,11.59v0c-3.11,2.4-8.92,6.23-8.66,19.07H4a5,5,0,0,0-4,4.59,4.93,4.93,0,0,0,4.92,5.17H8.44A22.77,22.77,0,0,0,31.17,121H52.53A22.77,22.77,0,0,0,75.3,98.21V88.64a5.42,5.42,0,0,1,.22-1.87,6.49,6.49,0,0,1,6.23-4.52h8.72a6.49,6.49,0,0,1,6.23,4.52,5.42,5.42,0,0,1,.22,1.87v9.57A22.77,22.77,0,0,0,119.69,121h21.36a22.77,22.77,0,0,0,22.73-21.48h3.51a4.93,4.93,0,0,0,4.92-5.17A5,5,0,0,0,168.18,89.73ZM63.33,98.21A10.8,10.8,0,0,1,52.53,109H31.17a10.8,10.8,0,0,1-10.8-10.8V88.67a10.8,10.8,0,0,1,10.8-10.8H52.53a10.8,10.8,0,0,1,10.8,10.8Zm4.25-26.63h0a22.65,22.65,0,0,0-15-5.66H31.13a22.62,22.62,0,0,0-9.41,2h0A13.9,13.9,0,0,1,18.43,59c0-7.36,10.26-13.9,18.34-13.9a14.41,14.41,0,0,1,1.94.14l.22,0a2.47,2.47,0,0,0,2.36-3.86,14.27,14.27,0,0,1-2.59-7,13.92,13.92,0,0,1,13.86-15,14.08,14.08,0,0,1,3.09.35l.11,0a2.46,2.46,0,0,0,3-2.15l0-.1A13.89,13.89,0,0,1,84,11.16V71.58Zm37.06,0H88.19V11.16a13.89,13.89,0,0,1,25.26,6.37l0,.1a2.47,2.47,0,0,0,3,2.15l.11,0a14.08,14.08,0,0,1,3.09-.35,13.92,13.92,0,0,1,13.86,15,14.27,14.27,0,0,1-2.59,7,2.47,2.47,0,0,0,2.36,3.86l.22,0a14.41,14.41,0,0,1,1.94-.14c8.08,0,18.34,6.54,18.34,13.9a13.9,13.9,0,0,1-3.25,8.92h0a22.62,22.62,0,0,0-9.41-2H119.65a22.65,22.65,0,0,0-15,5.66Z"/></g></g></svg>