<?xml version="1.0" encoding="UTF-8"?>
<svg viewBox="0 0 565.04 539.26" xmlns="http://www.w3.org/2000/svg">
    <defs>
        <style>.cls-1{fill:#f0f6ff;}</style>
    </defs>
    <g data-name="Слой 2">
        <g data-name="Режим изоляции">
            <path class="cls-1" d="M229.79,0c-34.34,0-73.73,6.29-90.54,40-16,32-12.77,70-29.45,101.8C96,168.07,70.33,185.56,47.43,204.48S2.27,247.43.16,277.06c-.92,13,2.23,26.07,7.33,38.08,11.14,26.23,36.32,55.3,64.65,63.6,29.78,8.72,59.23,26.48,76.65,53.14,12.94,19.79,18.23,43.49,22.63,66.72,1.31,6.89,2.6,13.93,5.92,20.12,7.08,13.21,22.64,20.33,37.64,20.54s29.47-5.52,42.6-12.77c20.07-11.08,37.86-25.69,57.29-37.79,17.22-10.72,42.19-22.13,62.39-13.58,10.27,4.35,18,13.56,28.46,17.37,6,2.18,12.45,2.46,18.77,2,22.24-1.69,43.09-12.52,59.85-27.23,26.3-23.09,47.79-56.09,58.4-89.43,10.52-33.05,13.19-67.89,17.49-102.12,6.71-53.46,10.79-107.21-18.75-155.36-18-29.37-46-51.63-76.7-67.31s-64.09-25.2-97.56-33.35C322.14,8.7,276.18,0,229.79,0Z"/>
        </g>
    </g>
</svg>
