<svg xmlns="http://www.w3.org/2000/svg" width="258" height="350" xmlns:xlink="http://www.w3.org/1999/xlink" viewBox="0 0 201.5 273.72"><defs><style>.cls-1{isolation:isolate;}.cls-2{fill:#f5b784;}.cls-3{fill:#2a2b3c;}.cls-4{fill:#f0bd4f;}.cls-13,.cls-5{fill:#e8e8e8;}.cls-6{fill:url(#linear-gradient);}.cls-7{fill:url(#linear-gradient-2);}.cls-8{fill:url(#linear-gradient-3);}.cls-9{fill:url(#linear-gradient-4);}.cls-10{fill:url(#linear-gradient-5);}.cls-11{fill:url(#linear-gradient-6);}.cls-12{fill:#61d6ff;}.cls-13{mix-blend-mode:multiply;}.cls-14{fill:url(#linear-gradient-7);}.cls-15{fill:#50ccff;}.cls-16{fill:#3f3b50;}.cls-17{fill:#dee8ea;}.cls-18{fill:#7e452f;}.cls-19{fill:#e13738;}.cls-20{fill:#e66440;}.cls-21{fill:#eb9047;}.cls-22{fill:#f4e956;}</style><linearGradient id="linear-gradient" x1="-449.18" y1="-556.76" x2="-449.18" y2="-237.01" gradientTransform="matrix(0, 1, -0.41, 0, -78.74, 677.29)" gradientUnits="userSpaceOnUse"><stop offset="0" stop-color="#fff" stop-opacity="0.5"/><stop offset="1" stop-color="#fff" stop-opacity="0"/></linearGradient><linearGradient id="linear-gradient-2" x1="-465.75" y1="-566.47" x2="-465.75" y2="-246.72" gradientTransform="matrix(0, 1, -0.37, 0, -70.1, 673.42)" xlink:href="#linear-gradient"/><linearGradient id="linear-gradient-3" x1="-516.69" y1="-567.38" x2="-516.69" y2="-389.66" gradientTransform="matrix(0, 1, -0.68, 0, -273.82, 684.97)" xlink:href="#linear-gradient"/><linearGradient id="linear-gradient-4" x1="-529.73" y1="-556.76" x2="-529.73" y2="-237" gradientTransform="matrix(0, 1, -0.32, 0, -83.53, 686.34)" xlink:href="#linear-gradient"/><linearGradient id="linear-gradient-5" x1="-497.06" y1="-508.82" x2="-497.06" y2="-236.79" gradientTransform="matrix(0, 1, -0.31, 0, -71.35, 694.14)" xlink:href="#linear-gradient"/><linearGradient id="linear-gradient-6" x1="-480.74" y1="-527.03" x2="-480.74" y2="-236.87" gradientTransform="matrix(0, 1, -0.34, 0, -72.15, 687.4)" xlink:href="#linear-gradient"/><linearGradient id="linear-gradient-7" x1="101.46" y1="114.91" x2="197.81" y2="114.91" gradientTransform="matrix(1, 0, 0, 1, 0, 0)" xlink:href="#linear-gradient"/></defs><g class="cls-1"><g id="Слой_2" data-name="Слой 2"><g id="Режим_изоляции" data-name="Режим изоляции"><path class="cls-2" d="M140.35,46.43s1.58-11-5.33-8.67,3,8.67,3,8.67Z"/><path class="cls-3" d="M140.92,46.43H138c2.23,13-9.7,13.91-18.25,13.38h0c2.08,1.9,3,5.63,3.77,9.44C147.52,66.52,140.92,46.43,140.92,46.43Z"/><path class="cls-4" d="M126.09,19.06l-1.1.4a20.75,20.75,0,0,0-2.11.83A16.53,16.53,0,0,0,120,22a14.72,14.72,0,0,0-3.23,3.33c-.59.8-1.2,1.76-1.9,2.91s-1.46,2.51-2.46,4A29.18,29.18,0,0,1,108.55,37a22.12,22.12,0,0,1-5.5,4,25.76,25.76,0,0,1-6,2.15,38.13,38.13,0,0,1-5.84.82c-1.9.12-3.76.13-5.59.07-.92,0-1.83-.09-2.73-.14l-2.56-.21a17.08,17.08,0,0,0-7.79.82,5.7,5.7,0,0,0-2.42,1.84,8,8,0,0,0-1.37,3.23,26.63,26.63,0,0,0-.07,8.32c.34,2.81.85,5.51,1.31,8s.89,4.86,1.1,7a12.44,12.44,0,0,1-.42,5.6,3.49,3.49,0,0,1-2.75,2.25,6.41,6.41,0,0,1-.92.08h-.31l.31,0a6,6,0,0,0,.86-.24A3.39,3.39,0,0,0,69,79.87a3,3,0,0,0,.83-1.58,11.53,11.53,0,0,0-.55-5c-.55-1.94-1.36-4.11-2.26-6.5s-1.9-5-2.79-7.9A32,32,0,0,1,62.59,49,15,15,0,0,1,64,43a13.25,13.25,0,0,1,4.45-5.18,19.55,19.55,0,0,1,5.85-2.68A32.83,32.83,0,0,1,80.14,34l2.53-.26c.8-.09,1.58-.19,2.36-.31a44.87,44.87,0,0,0,4.45-.9,17.44,17.44,0,0,0,6.7-3,10.56,10.56,0,0,0,3-4.57c.85-2.07,1.73-4.9,3.07-7.75a33.17,33.17,0,0,1,5-7.81,34.09,34.09,0,0,1,5.41-5,36.11,36.11,0,0,1,3.9-2.57l1.09-.65Z"/><rect class="cls-5" x="134.07" y="-3.74" width="0.71" height="79.52" transform="translate(-2.38 61.55) rotate(-25.57)"/><path class="cls-3" d="M144.59,94.61C141,89.43,133,92.71,133,92.71l-3.06,8.6,1.66,1.39C135.71,99.88,140.11,97.16,144.59,94.61Z"/><rect class="cls-6" x="17.28" y="222.87" width="131.72" height="10.53" transform="translate(-125.16 103.36) rotate(-39.05)"/><rect class="cls-7" x="21.62" y="205.07" width="120.82" height="5.27" transform="matrix(0.78, -0.63, 0.63, 0.78, -112.53, 98.1)"/><rect class="cls-8" x="-10.98" y="166.86" width="121.39" height="2.93" transform="translate(-94.95 68.94) rotate(-39.06)"/><rect class="cls-9" x="-8.22" y="151.36" width="103.3" height="10.53" transform="translate(-88.98 62.36) rotate(-39.05)"/><rect class="cls-10" x="2.38" y="191.83" width="86.03" height="10.53" transform="translate(-114.04 72.64) rotate(-39.05)"/><rect class="cls-11" x="8.99" y="204.41" width="100.99" height="4.54" transform="translate(-116.93 83.66) rotate(-39.05)"/><path class="cls-5" d="M120.58,119.16s-37.7-4-42.73,2.92S105,138.36,105,138.36Z"/><path class="cls-12" d="M108,134.64l12.58-15.48s-20.47-2.15-33.25-.53C78.18,130.32,100.54,133.81,108,134.64Z"/><path class="cls-5" d="M146.82,151.51s-3.9,37.69-11.66,41.21-10.34-29.91-10.34-29.91Z"/><path class="cls-12" d="M129.08,160.62l17.74-9.11s-2.12,20.46-6.34,32.64C127.16,190.69,128.35,168.09,129.08,160.62Z"/><path class="cls-13" d="M145.05,164.43c1.18-7.2,1.77-12.92,1.77-12.92l-22,11.3s.45,5.86,1.55,12.41A44.07,44.07,0,0,0,145.05,164.43Z"/><path class="cls-5" d="M155.27,153c-25.16,20.42-37.27,14.5-46.77,2.8S95.71,131,120.88,110.59s69.27-40.47,78.76-28.76S180.44,132.56,155.27,153Z"/><path class="cls-14" d="M130.24,123.16c22.63-18.36,56.56-40.78,67.57-42.94-12.36-7.93-53.12,11-76.93,30.37-22.13,17.95-22.25,30.21-15.51,40.87C106,146.15,112,137.94,130.24,123.16Z"/><polygon class="cls-12" points="110.5 154.15 101.96 143.62 99.58 148.87 106.5 157.4 113.42 165.93 119.05 164.69 110.5 154.15"/><polygon class="cls-12" points="105.41 158.28 98.6 149.89 95.89 154.73 101.41 161.53 106.93 168.33 112.22 166.68 105.41 158.28"/><path class="cls-15" d="M188.41,117.13c.61-.87,1.2-1.73,1.78-2.6a43.29,43.29,0,0,1-24.5-30.19l-2.9,1.2a46.45,46.45,0,0,0,25.62,31.59Z"/><path class="cls-12" d="M176.76,100.4a38.33,38.33,0,0,0,15.15,11.5c8.18-12.9,12.23-24.54,7.73-30.07s-16.71-4-31,1.37A38.25,38.25,0,0,0,176.76,100.4Z"/><polygon class="cls-13" points="105.82 166.97 106.93 168.33 112.22 166.68 109.82 163.72 105.82 166.97"/><path class="cls-13" d="M155.27,153c23.82-19.32,50.79-55.3,45.57-69-4.38,10.34-33.32,38.91-56,57.27-15.33,12.44-24.34,17.41-30,18.37l-1.59,1.29-2.41,2,2.51,3.1,5.62-1.25C127.33,168.52,138.35,166.71,155.27,153Z"/><path class="cls-3" d="M133,92.71l-18.39,12.16s24.63,5.3,23.38,19.33-5.61,22.44-5.61,22.44h3.39s27.82-35.89-.59-46.29Z"/><polygon class="cls-16" points="135.54 145.64 135.32 146.64 138.95 148.48 131.96 148.96 132.74 146.34 135.54 145.64"/><path class="cls-17" d="M133,92.71c1.81-2.51,1.28-9.33-4.75-12S125.49,58,116,58.54s-16.87,42.72-1.48,46.33Z"/><path class="cls-3" d="M145.64,81.7V85s-21.25,4.32-31.87-2.37c0,0-9.31,12.33-6,22.24,0,0-9.58-4-6.69-17.25s.65-26.69,10.62-29.09,5.9,12.56,5.9,12.56S117.31,82.6,145.64,81.7Z"/><path class="cls-2" d="M112.92,57.19c1.12-.06,1.24,4.33,4.26,3.61s1.9-4,1.9-4,5,.44,6.58-6-7.17-20.46-14-19.5S100.87,57.84,112.92,57.19Z"/><path class="cls-18" d="M117.7,26.28c1.49-4.46,8,11.45,1,12.41s-10.4,3.06-7.78,5.6c0,0-4.37-.52-2.1,2.89s-5.24,4.19-6.56,0-.7-13.91,6.3-17S115.81,32,117.7,26.28Z"/><path class="cls-2" d="M145.64,81.7s12.64-2.52,12.9,2.2-12.9,1.1-12.9,1.1Z"/><path class="cls-19" d="M119.78,61.52c1.22-.35,1.09,2.36,1.09,2.36s.5,7.48-9.05,11.8-9.57,7.25-10.06,9-8.47-6.56,0-9.31,17.49-8.3,18-11.67C119.78,63.75,117.92,62,119.78,61.52Z"/><path class="cls-19" d="M98.15,161.08C87,147.32,60.58,168.6,49,201,83.05,196.29,109.31,174.83,98.15,161.08Z"/><path class="cls-20" d="M98.15,161.08c-9.68-11.94-31.7,5.79-41,33.24C86,190.9,107.83,173,98.15,161.08Z"/><path class="cls-21" d="M98.15,161.08c-8.21-10.12-25.83,4.06-32.78,26.59C88.86,185.51,106.36,171.2,98.15,161.08Z"/><path class="cls-4" d="M98.15,161.08c-6.74-8.31-20,2.32-24.59,19.95C91.76,180.12,104.89,169.38,98.15,161.08Z"/><path class="cls-22" d="M98.15,161.08c-5.26-6.49-14.08.59-16.4,13.3C94.66,174.74,103.41,167.57,98.15,161.08Z"/><path class="cls-2" d="M135,37.76c-3.14,1.06-2.8,3-1.5,4.69,2.19,1.73,4.53-.65,6,1,.8.93.09-2.34-.06-4.53C138.65,37.68,137.3,37,135,37.76Z"/></g></g></g></svg>