<svg xmlns="http://www.w3.org/2000/svg" xmlns:xlink="http://www.w3.org/1999/xlink" viewBox="0 0 75.84 72.95">
<defs>
<style>.cls-1{fill:#f0f6ff;}</style>
</defs><g id="Слой_2" data-name="Слой 2"><g id="Режим_изоляции" data-name="Режим изоляции"><path class="cls-1" d="M13.66,19.09C15.89,16,16.83,12.16,18.3,8.64S22.11,1.57,25.75.4,33.36.76,36.5,2.94s5.8,5,9.07,7c3.62,2.16,7.79,3.14,11.88,4.13s8.27,2.05,11.81,4.32,6.43,6,6.57,10.22c.16,4.82-3.19,9.07-6.94,12.1s-8.1,5.39-11.29,9-5,8.43-7.38,12.76-5.65,8.59-10.37,10a15.25,15.25,0,0,1-9.2-.5,42.7,42.7,0,0,1-8.32-4.26,78.13,78.13,0,0,1-13-9.39A29.49,29.49,0,0,1,.71,44.89C-.7,39.7-.07,33.83,3.1,29.49,6,25.49,10.77,23.11,13.66,19.09Z"/></g></g></svg>