<svg id="Режим_изоляции" data-name="Режим изоляции" xmlns="http://www.w3.org/2000/svg" xmlns:xlink="http://www.w3.org/1999/xlink" viewBox="0 0 186.29 225"><defs><style>.cls-1{fill:none;stroke-miterlimit:10;stroke-width:0.5px;stroke-dasharray:3;stroke:url(#linear-gradient);}</style><linearGradient id="linear-gradient" x1="135.15" y1="210.87" x2="327.45" y2="210.87" gradientTransform="matrix(-0.99, -0.1, -0.1, 0.99, 709.14, 35.58)" gradientUnits="userSpaceOnUse"><stop offset="0" stop-color="#acc6f9"/><stop offset="1" stop-color="#6f96e3"/></linearGradient></defs><path class="cls-1" d="M369.88,138.35c36.64-31.61,116.93-25.48,143.2-17.84a86.23,86.23,0,0,1,24.09,10.81c5.11,3.43,9.94,7.87,11.84,13.73s-.09,13.31-5.66,15.94c-3.43,1.62-22.68,4.1-28.56-3.21-1.36-1.7,0-4.45,1.87-5.61a9,9,0,0,1,6.34-1c49.2,9.1,34.64,94.71,10.34,114.45-10.82,8.79-26.7,10.68-35.53,21.47-9,11-6.78,28.44,2.84,38.83s24.87,14.22,38.94,12.58" transform="translate(-369.71 -114.12)"/></svg>